<svg xmlns="http://www.w3.org/2000/svg" xmlns:xlink="http://www.w3.org/1999/xlink" width="140" zoomAndPan="magnify" viewBox="0 0 104.88 30.000001" height="40" preserveAspectRatio="xMidYMid meet" version="1.0"><defs><clipPath id="ebb885bc51"><path d="M 1.632812 0 L 103.128906 0 L 103.128906 29.03125 L 1.632812 29.03125 Z M 1.632812 0 " clip-rule="nonzero"/></clipPath></defs><g clip-path="url(#ebb885bc51)"><rect x="-10.488" width="125.856" fill="#ffffff" y="-3" height="36.000001" fill-opacity="1"/><path stroke-linecap="butt" transform="matrix(0.131296, 0, 0, 0.131296, -41.299584, 6.427436)" fill="none" stroke-linejoin="miter" d="M 293.013326 -184.501608 L 1134.891299 -184.501608 L 1134.891299 410.795998 L 293.013326 410.795998 Z M 293.013326 -184.501608 " stroke="#000000" stroke-width="1" stroke-opacity="1" stroke-miterlimit="10"/></g><path fill="#0f5d9a" d="M 38.1875 7.148438 C 39.121094 7.148438 39.921875 7.925781 39.921875 8.871094 C 39.921875 9.800781 39.132812 10.535156 38.1875 10.535156 C 37.214844 10.535156 36.453125 9.800781 36.453125 8.871094 C 36.453125 7.925781 37.214844 7.148438 38.1875 7.148438 Z M 36.808594 13.203125 C 36.808594 12.820312 36.941406 12.691406 37.332031 12.691406 L 39.105469 12.691406 C 39.5 12.691406 39.632812 12.820312 39.632812 13.203125 L 39.632812 24.453125 C 39.632812 24.835938 39.5 24.964844 39.105469 24.964844 L 37.332031 24.964844 C 36.941406 24.964844 36.808594 24.835938 36.808594 24.453125 Z M 36.808594 13.203125 " fill-opacity="1" fill-rule="nonzero"/><path fill="#0f5d9a" d="M 49.503906 25.230469 C 46 25.097656 43.1875 22.261719 43.1875 18.847656 C 43.1875 15.40625 46 12.558594 49.503906 12.441406 L 49.503906 14.894531 C 47.628906 14.988281 45.984375 16.617188 45.984375 18.847656 C 45.984375 20.988281 47.574219 22.707031 49.503906 22.828125 Z M 49.910156 22.8125 C 51.882812 22.667969 53.429688 20.988281 53.429688 18.835938 C 53.429688 16.695312 51.882812 15.015625 49.910156 14.882812 L 49.910156 12.425781 C 53.46875 12.558594 56.226562 15.449219 56.226562 18.835938 C 56.226562 22.222656 53.484375 25.070312 49.910156 25.214844 Z M 49.910156 22.8125 " fill-opacity="1" fill-rule="nonzero"/><path fill="#0f5d9a" d="M 59.507812 7.675781 C 59.507812 7.292969 59.640625 7.164062 60.035156 7.164062 L 61.808594 7.164062 C 62.214844 7.164062 62.332031 7.292969 62.332031 7.675781 L 62.332031 24.453125 C 62.332031 24.835938 62.199219 24.964844 61.808594 24.964844 L 60.035156 24.964844 C 59.640625 24.964844 59.507812 24.835938 59.507812 24.453125 Z M 59.507812 7.675781 " fill-opacity="1" fill-rule="nonzero"/><path fill="#0f5d9a" d="M 68.449219 18.941406 C 68.449219 21.171875 70.105469 22.878906 72.257812 22.878906 C 73.152344 22.878906 74.359375 22.683594 75.644531 21.960938 C 76.039062 21.789062 76.132812 21.683594 76.40625 22.011719 L 77.117188 22.878906 C 77.367188 23.167969 77.417969 23.3125 77.195312 23.5625 C 76.039062 24.636719 74.003906 25.242188 72.179688 25.242188 C 68.449219 25.242188 65.5625 22.367188 65.5625 18.859375 C 65.5625 15.511719 68.28125 12.570312 71.785156 12.453125 L 71.785156 14.6875 C 69.816406 14.816406 68.449219 16.457031 68.449219 18.769531 Z M 68.976562 17.929688 L 75.34375 17.929688 C 75.171875 16.496094 74.203125 14.804688 72.207031 14.6875 L 72.207031 12.414062 C 76.171875 12.507812 78.207031 15.671875 78.207031 19.1875 C 78.207031 19.570312 78.128906 19.714844 77.71875 19.714844 L 68.976562 19.714844 C 68.859375 19.1875 68.859375 18.480469 68.976562 17.929688 Z M 68.976562 17.929688 " fill-opacity="1" fill-rule="nonzero"/><path fill="#0f5d9a" d="M 86.503906 14.882812 C 84.507812 15.015625 82.984375 16.707031 82.984375 18.835938 C 82.984375 20.976562 84.507812 22.65625 86.503906 22.773438 L 86.503906 25.230469 C 82.855469 25.097656 80.1875 22.210938 80.1875 18.847656 C 80.1875 15.460938 82.90625 12.558594 86.503906 12.441406 Z M 86.9375 12.441406 C 88.578125 12.492188 90.128906 13.136719 91.28125 14.253906 C 91.507812 14.476562 91.453125 14.582031 91.203125 14.871094 L 90.285156 15.839844 C 90.007812 16.128906 89.839844 16.207031 89.535156 15.933594 C 88.789062 15.238281 87.765625 14.921875 86.925781 14.894531 L 86.925781 12.441406 Z M 86.9375 22.773438 C 87.972656 22.722656 88.894531 22.367188 89.550781 21.738281 C 89.851562 21.460938 90.023438 21.539062 90.296875 21.828125 L 91.21875 22.800781 C 91.46875 23.089844 91.519531 23.207031 91.296875 23.417969 C 90.140625 24.53125 88.589844 25.175781 86.949219 25.230469 L 86.949219 22.773438 Z M 86.9375 22.773438 " fill-opacity="1" fill-rule="nonzero"/><path fill="#e9a822" d="M 25.265625 13.203125 C 26.355469 13.1875 27.171875 12.441406 27.144531 11.441406 C 27.132812 10.457031 26.332031 9.722656 25.292969 9.722656 C 23.023438 9.722656 20.75 9.722656 18.480469 9.722656 C 17.691406 9.722656 16.957031 9.933594 16.273438 10.300781 C 14.894531 11.0625 13.976562 12.191406 13.660156 13.742188 C 13.464844 14.253906 13.449219 14.789062 13.449219 15.316406 C 13.464844 18.058594 13.476562 20.804688 13.515625 23.5625 C 13.53125 24.574219 14.226562 25.308594 15.183594 25.308594 C 16.15625 25.308594 16.851562 24.597656 16.851562 23.574219 C 16.878906 20.554688 16.902344 17.523438 16.929688 14.515625 C 16.917969 14.527344 16.917969 14.542969 16.902344 14.582031 C 16.902344 14.566406 16.917969 14.527344 16.929688 14.515625 C 17.140625 13.804688 17.757812 13.320312 18.519531 13.292969 C 20.765625 13.148438 23.007812 13.230469 25.265625 13.203125 Z M 25.265625 13.203125 " fill-opacity="1" fill-rule="nonzero"/><path fill="#e9a822" d="M 33.511719 8.882812 C 32.804688 5.625 29.3125 2.789062 25.832031 2.726562 C 22.3125 2.671875 18.78125 2.710938 15.261719 2.710938 C 14.933594 2.710938 14.632812 2.777344 14.34375 2.949219 C 13.660156 3.34375 13.347656 4.15625 13.570312 4.96875 C 13.765625 5.707031 14.394531 6.191406 15.238281 6.191406 C 18.53125 6.203125 21.839844 6.191406 25.136719 6.203125 C 25.726562 6.203125 26.304688 6.257812 26.882812 6.425781 C 28.496094 6.941406 29.535156 8.042969 30.203125 9.511719 C 30.742188 11.195312 30.664062 12.796875 29.730469 14.34375 C 28.617188 15.960938 27.09375 16.785156 25.082031 16.746094 C 24.046875 16.734375 23.023438 16.722656 21.984375 16.746094 C 20.972656 16.773438 20.332031 17.523438 20.34375 18.574219 C 20.355469 19.542969 21.027344 20.1875 22.011719 20.214844 C 23.273438 20.226562 24.519531 20.238281 25.78125 20.214844 C 28.878906 20.109375 31.097656 18.574219 32.671875 16.050781 C 33.972656 13.765625 34.339844 11.390625 33.511719 8.882812 Z M 33.511719 8.882812 " fill-opacity="1" fill-rule="nonzero"/></svg>