<svg xmlns="http://www.w3.org/2000/svg" xmlns:xlink="http://www.w3.org/1999/xlink" width="140" zoomAndPan="magnify" viewBox="0 0 104.88 30.000001" height="40" preserveAspectRatio="xMidYMid meet" version="1.0"><defs><g/><clipPath id="af7124f16f"><path d="M 10 0.960938 L 25 0.960938 L 25 21 L 10 21 Z M 10 0.960938 " clip-rule="nonzero"/></clipPath><clipPath id="1d589195aa"><path d="M 3 8 L 33 8 L 33 27.816406 L 3 27.816406 Z M 3 8 " clip-rule="nonzero"/></clipPath></defs><g fill="#f8b600" fill-opacity="1"><g transform="translate(33.820212, 20.081569)"><g><path d="M 1.171875 -13.546875 C 1.148438 -13.546875 1.164062 -13.550781 1.21875 -13.5625 C 1.289062 -13.570312 1.492188 -13.578125 1.828125 -13.578125 C 2.160156 -13.578125 2.648438 -13.578125 3.296875 -13.578125 L 5.53125 -13.578125 L 5.53125 1.53125 L 1.53125 1.53125 L 1.53125 -5.75 C 1.53125 -8.1875 1.523438 -10.015625 1.515625 -11.234375 C 1.503906 -12.453125 1.492188 -13.085938 1.484375 -13.140625 C 1.441406 -13.316406 1.335938 -13.453125 1.171875 -13.546875 Z M 6.046875 -13.578125 L 7.53125 -13.578125 C 7.925781 -13.578125 8.253906 -13.578125 8.515625 -13.578125 C 8.773438 -13.578125 8.976562 -13.570312 9.125 -13.5625 C 9.257812 -13.550781 9.390625 -13.535156 9.515625 -13.515625 C 9.648438 -13.492188 9.785156 -13.457031 9.921875 -13.40625 C 10.285156 -13.3125 10.632812 -13.160156 10.96875 -12.953125 C 11.300781 -12.742188 11.601562 -12.5 11.875 -12.21875 C 12.15625 -11.9375 12.394531 -11.625 12.59375 -11.28125 C 12.800781 -10.9375 12.957031 -10.59375 13.0625 -10.25 C 13.445312 -9.019531 13.359375 -7.84375 12.796875 -6.71875 C 12.472656 -6.070312 12.039062 -5.53125 11.5 -5.09375 C 10.96875 -4.664062 10.363281 -4.351562 9.6875 -4.15625 C 9.207031 -4.039062 8.40625 -3.984375 7.28125 -3.984375 L 6.046875 -3.984375 L 6.046875 -6.8125 L 6.859375 -6.828125 C 7.359375 -6.828125 7.675781 -6.84375 7.8125 -6.875 C 8.726562 -7.175781 9.148438 -7.863281 9.078125 -8.9375 C 9.035156 -9.6875 8.75 -10.171875 8.21875 -10.390625 C 8.09375 -10.441406 7.695312 -10.46875 7.03125 -10.46875 L 6.046875 -10.46875 Z M 6.046875 -13.578125 "/></g></g></g><g fill="#224b82" fill-opacity="1"><g transform="translate(47.663127, 20.081569)"><g><path d="M 1.421875 -14.25 L 5.421875 -14.25 L 5.421875 -11.171875 L 1.421875 -11.171875 Z M 1.078125 -10 C 1.054688 -10.03125 1.050781 -10.039062 1.0625 -10.03125 C 1.070312 -10.03125 1.09375 -10.03125 1.125 -10.03125 C 1.1875 -10.039062 1.382812 -10.046875 1.71875 -10.046875 C 2.0625 -10.046875 2.546875 -10.046875 3.171875 -10.046875 L 5.390625 -10.046875 L 5.390625 1.53125 L 1.421875 1.53125 L 1.421875 -4.6875 C 1.421875 -5.945312 1.421875 -6.9375 1.421875 -7.65625 C 1.421875 -8.375 1.414062 -8.84375 1.40625 -9.0625 C 1.375 -9.488281 1.328125 -9.75 1.265625 -9.84375 C 1.222656 -9.914062 1.160156 -9.96875 1.078125 -10 Z M 1.078125 -10 "/></g></g></g><g fill="#224b82" fill-opacity="1"><g transform="translate(54.452856, 20.081569)"><g><path d="M 6.8125 -10.171875 L 7.171875 -10.140625 C 7.972656 -10.109375 8.691406 -9.941406 9.328125 -9.640625 C 9.960938 -9.347656 10.503906 -8.953125 10.953125 -8.453125 C 11.410156 -7.960938 11.757812 -7.390625 12 -6.734375 C 12.25 -6.078125 12.394531 -5.359375 12.4375 -4.578125 C 12.488281 -3.335938 12.269531 -2.207031 11.78125 -1.1875 C 11.082031 0.21875 9.9375 1.101562 8.34375 1.46875 C 7.851562 1.601562 7.410156 1.671875 7.015625 1.671875 L 6.859375 1.671875 L 6.828125 1.0625 C 6.847656 0.851562 6.859375 0.632812 6.859375 0.40625 C 6.859375 0.1875 6.859375 -0.046875 6.859375 -0.296875 C 6.859375 -0.804688 6.867188 -1.0625 6.890625 -1.0625 C 7.109375 -1.0625 7.359375 -1.160156 7.640625 -1.359375 C 8.148438 -1.660156 8.476562 -2.304688 8.625 -3.296875 C 8.632812 -3.398438 8.640625 -3.535156 8.640625 -3.703125 C 8.648438 -3.867188 8.648438 -4.066406 8.640625 -4.296875 C 8.628906 -4.535156 8.613281 -4.734375 8.59375 -4.890625 C 8.582031 -5.054688 8.566406 -5.195312 8.546875 -5.3125 C 8.460938 -5.800781 8.304688 -6.226562 8.078125 -6.59375 C 7.859375 -6.96875 7.476562 -7.203125 6.9375 -7.296875 L 6.8125 -7.3125 Z M 5.59375 -10.125 C 5.65625 -10.132812 5.726562 -10.140625 5.8125 -10.140625 C 5.90625 -10.140625 6.003906 -10.148438 6.109375 -10.171875 L 6.375 -10.171875 L 6.375 -8.9375 C 6.375 -8.550781 6.375 -8.238281 6.375 -8 C 6.375 -7.757812 6.363281 -7.59375 6.34375 -7.5 L 6.34375 -7.3125 L 6.125 -7.25 C 5.5 -7.144531 5.070312 -6.742188 4.84375 -6.046875 C 4.738281 -5.742188 4.671875 -5.394531 4.640625 -5 C 4.609375 -4.601562 4.609375 -4.171875 4.640625 -3.703125 C 4.671875 -3.441406 4.703125 -3.179688 4.734375 -2.921875 C 4.773438 -2.660156 4.847656 -2.410156 4.953125 -2.171875 C 5.066406 -1.941406 5.207031 -1.742188 5.375 -1.578125 C 5.550781 -1.410156 5.78125 -1.285156 6.0625 -1.203125 L 6.328125 -1.140625 L 6.34375 0.234375 L 6.34375 1.625 L 5.96875 1.625 C 4.894531 1.625 3.921875 1.332031 3.046875 0.75 C 1.804688 -0.09375 1.078125 -1.472656 0.859375 -3.390625 C 0.671875 -4.953125 0.914062 -6.320312 1.59375 -7.5 C 1.988281 -8.21875 2.539062 -8.8125 3.25 -9.28125 C 3.957031 -9.75 4.738281 -10.03125 5.59375 -10.125 Z M 5.59375 -10.125 "/></g></g></g><g fill="#224b82" fill-opacity="1"><g transform="translate(67.710913, 20.081569)"><g><path d="M 1.21875 -14.140625 L 1.109375 -14.21875 L 5.5625 -14.21875 L 5.5625 1.53125 L 1.5 1.53125 L 1.5 -5.84375 C 1.519531 -7.71875 1.523438 -9.242188 1.515625 -10.421875 C 1.503906 -11.609375 1.5 -12.390625 1.5 -12.765625 C 1.488281 -13.515625 1.472656 -13.914062 1.453125 -13.96875 C 1.410156 -14.039062 1.332031 -14.097656 1.21875 -14.140625 Z M 1.21875 -14.140625 "/></g></g></g><g fill="#224b82" fill-opacity="1"><g transform="translate(74.781875, 20.081569)"><g><path d="M 5.734375 -10.1875 C 5.835938 -10.195312 5.96875 -10.203125 6.125 -10.203125 C 6.289062 -10.203125 6.488281 -10.203125 6.71875 -10.203125 C 6.9375 -10.191406 7.128906 -10.175781 7.296875 -10.15625 C 7.472656 -10.144531 7.617188 -10.128906 7.734375 -10.109375 C 8.535156 -9.972656 9.210938 -9.71875 9.765625 -9.34375 C 10.316406 -8.976562 10.753906 -8.523438 11.078125 -7.984375 C 11.410156 -7.453125 11.648438 -6.859375 11.796875 -6.203125 C 11.953125 -5.546875 12.039062 -4.859375 12.0625 -4.140625 L 12.0625 -3.5 L 8.515625 -3.46875 L 4.984375 -3.46875 L 4.9375 -3.3125 C 4.925781 -3.175781 4.941406 -2.921875 4.984375 -2.546875 C 5.035156 -2.109375 5.160156 -1.738281 5.359375 -1.4375 C 5.566406 -1.144531 5.925781 -1 6.4375 -1 C 6.75 -1 7.03125 -1.066406 7.28125 -1.203125 C 7.53125 -1.335938 7.707031 -1.566406 7.8125 -1.890625 C 7.882812 -2.046875 7.925781 -2.125 7.9375 -2.125 C 7.988281 -2.15625 8.644531 -2.171875 9.90625 -2.171875 C 11.175781 -2.171875 11.828125 -2.15625 11.859375 -2.125 C 11.898438 -2.125 11.851562 -1.960938 11.71875 -1.640625 C 11.476562 -1.023438 11.175781 -0.503906 10.8125 -0.078125 C 10.445312 0.335938 10.035156 0.675781 9.578125 0.9375 C 9.128906 1.195312 8.632812 1.382812 8.09375 1.5 C 7.550781 1.613281 6.96875 1.671875 6.34375 1.671875 C 5.800781 1.671875 5.242188 1.609375 4.671875 1.484375 C 4.097656 1.367188 3.585938 1.160156 3.140625 0.859375 C 3.066406 0.816406 2.972656 0.742188 2.859375 0.640625 C 2.742188 0.546875 2.628906 0.4375 2.515625 0.3125 C 2.398438 0.195312 2.289062 0.0820312 2.1875 -0.03125 C 2.082031 -0.15625 2.003906 -0.257812 1.953125 -0.34375 C 1.535156 -0.90625 1.226562 -1.5625 1.03125 -2.3125 C 0.84375 -3.070312 0.773438 -3.863281 0.828125 -4.6875 C 0.941406 -6.28125 1.414062 -7.546875 2.25 -8.484375 C 3.082031 -9.429688 4.242188 -10 5.734375 -10.1875 Z M 6.90625 -7.609375 C 6.84375 -7.628906 6.773438 -7.640625 6.703125 -7.640625 C 6.628906 -7.648438 6.554688 -7.65625 6.484375 -7.65625 C 5.921875 -7.65625 5.535156 -7.488281 5.328125 -7.15625 C 5.117188 -6.820312 4.988281 -6.398438 4.9375 -5.890625 L 4.90625 -5.625 L 8.125 -5.625 L 8.09375 -5.765625 C 8.082031 -6.046875 8.019531 -6.328125 7.90625 -6.609375 C 7.800781 -6.898438 7.691406 -7.128906 7.578125 -7.296875 C 7.441406 -7.472656 7.21875 -7.578125 6.90625 -7.609375 Z M 6.90625 -7.609375 "/></g></g></g><g fill="#224b82" fill-opacity="1"><g transform="translate(87.638168, 20.081569)"><g><path d="M 5.734375 -10.109375 C 5.828125 -10.117188 5.910156 -10.125 5.984375 -10.125 C 6.066406 -10.125 6.140625 -10.128906 6.203125 -10.140625 L 6.390625 -10.140625 L 6.390625 -8.71875 L 6.375 -7.328125 L 6.1875 -7.3125 C 5.894531 -7.226562 5.65625 -7.085938 5.46875 -6.890625 C 5.289062 -6.691406 5.148438 -6.46875 5.046875 -6.21875 C 4.953125 -5.96875 4.882812 -5.703125 4.84375 -5.421875 C 4.8125 -5.140625 4.789062 -4.863281 4.78125 -4.59375 C 4.75 -3.375 4.847656 -2.492188 5.078125 -1.953125 C 5.171875 -1.710938 5.328125 -1.515625 5.546875 -1.359375 C 5.773438 -1.210938 6.023438 -1.140625 6.296875 -1.140625 L 6.390625 -1.140625 L 6.390625 1.609375 L 6.1875 1.609375 C 5.84375 1.609375 5.441406 1.550781 4.984375 1.4375 C 4.523438 1.320312 4.113281 1.191406 3.75 1.046875 C 3.070312 0.734375 2.53125 0.351562 2.125 -0.09375 C 1.726562 -0.539062 1.414062 -1.117188 1.1875 -1.828125 C 0.914062 -2.628906 0.796875 -3.535156 0.828125 -4.546875 C 0.847656 -5.296875 0.976562 -5.984375 1.21875 -6.609375 C 1.46875 -7.242188 1.800781 -7.800781 2.21875 -8.28125 C 2.644531 -8.757812 3.148438 -9.148438 3.734375 -9.453125 C 4.328125 -9.765625 4.992188 -9.984375 5.734375 -10.109375 Z M 6.859375 -10.140625 L 7.21875 -10.125 C 7.84375 -10.082031 8.414062 -9.945312 8.9375 -9.71875 C 9.457031 -9.5 9.910156 -9.195312 10.296875 -8.8125 C 10.691406 -8.425781 11.015625 -7.976562 11.265625 -7.46875 C 11.523438 -6.96875 11.703125 -6.414062 11.796875 -5.8125 L 11.796875 -5.6875 L 7.984375 -5.6875 L 7.890625 -6.0625 C 7.828125 -6.5 7.734375 -6.8125 7.609375 -7 C 7.484375 -7.1875 7.289062 -7.289062 7.03125 -7.3125 L 6.859375 -7.328125 Z M 7.859375 -2.484375 L 7.984375 -2.8125 L 11.734375 -2.8125 L 11.71875 -2.625 C 11.664062 -2.101562 11.507812 -1.59375 11.25 -1.09375 C 11 -0.59375 10.691406 -0.148438 10.328125 0.234375 C 9.515625 1.054688 8.457031 1.507812 7.15625 1.59375 L 6.90625 1.59375 L 6.90625 -1.125 L 7.046875 -1.21875 C 7.367188 -1.40625 7.640625 -1.828125 7.859375 -2.484375 Z M 7.859375 -2.484375 "/></g></g></g><path fill="#f8b600" d="M 8.683594 18.261719 C 9.027344 19.125 10.082031 19.628906 11.558594 19.757812 C 9.054688 19.847656 7.195312 19.238281 6.6875 17.941406 C 5.765625 15.609375 9.542969 11.933594 15.121094 9.738281 C 15.429688 9.617188 15.738281 9.5 16.042969 9.394531 L 13.085938 12.652344 C 9.941406 14.441406 8.070312 16.703125 8.683594 18.261719 Z M 8.683594 18.261719 " fill-opacity="1" fill-rule="nonzero"/><path fill="#f8b600" d="M 24.558594 14.640625 C 25.023438 14.121094 25.367188 13.605469 25.5625 13.117188 C 25.65625 12.890625 25.71875 12.671875 25.742188 12.457031 C 25.78125 12.148438 25.75 11.855469 25.640625 11.585938 C 25.210938 10.488281 23.640625 9.976562 21.523438 10.058594 L 22.328125 8.164062 C 24.675781 8.132812 26.398438 8.746094 26.886719 9.988281 C 27.398438 11.285156 26.453125 13 24.558594 14.640625 Z M 24.558594 14.640625 " fill-opacity="1" fill-rule="nonzero"/><g clip-path="url(#af7124f16f)"><path fill="#224b82" d="M 13.988281 20.285156 C 15.496094 20.042969 17.085938 19.628906 18.652344 19.066406 C 18.902344 18.976562 19.148438 18.886719 19.390625 18.789062 L 24.640625 13.097656 L 19.582031 12.847656 L 20.746094 10.113281 L 21.5625 8.195312 L 24.640625 0.960938 L 17.359375 8.972656 L 14.816406 11.769531 L 10.980469 15.996094 L 15.683594 15.996094 Z M 13.988281 20.285156 " fill-opacity="1" fill-rule="nonzero"/></g><g clip-path="url(#1d589195aa)"><path fill="#224b82" d="M 32.253906 11.242188 C 31.660156 9.582031 29.46875 8.675781 26.417969 8.554688 C 27.632812 8.941406 28.476562 9.585938 28.796875 10.476562 C 29.796875 13.261719 25.359375 17.398438 18.886719 19.71875 C 18.714844 19.78125 18.539062 19.839844 18.363281 19.898438 C 16.75 20.445312 15.167969 20.820312 13.695312 21.03125 C 9.445312 21.644531 6.085938 20.890625 5.363281 18.882812 C 5.070312 18.054688 5.261719 17.109375 5.832031 16.132812 C 3.785156 18.066406 2.800781 20.027344 3.363281 21.601562 C 4.15625 23.804688 7.761719 24.683594 12.464844 24.152344 L 12.175781 24.878906 L 10.984375 27.90625 L 13.996094 24.636719 L 14.773438 23.792969 C 16.425781 23.472656 18.171875 22.996094 19.941406 22.359375 C 27.917969 19.5 33.433594 14.519531 32.253906 11.242188 Z M 32.253906 11.242188 " fill-opacity="1" fill-rule="nonzero"/></g></svg>