<svg xmlns="http://www.w3.org/2000/svg" xmlns:xlink="http://www.w3.org/1999/xlink" width="140" zoomAndPan="magnify" viewBox="0 0 104.88 30.000001" height="40" preserveAspectRatio="xMidYMid meet" version="1.0"><defs><g/><clipPath id="0fe8379f96"><path d="M 17 2.902344 L 30 2.902344 L 30 20 L 17 20 Z M 17 2.902344 " clip-rule="nonzero"/></clipPath><clipPath id="46581a8513"><path d="M 10.199219 9 L 36 9 L 36 26.128906 L 10.199219 26.128906 Z M 10.199219 9 " clip-rule="nonzero"/></clipPath></defs><g fill="#f8b600" fill-opacity="1"><g transform="translate(37.785321, 19.59197)"><g><path d="M 0.96875 -11.234375 C 0.957031 -11.234375 0.972656 -11.238281 1.015625 -11.25 C 1.066406 -11.257812 1.234375 -11.265625 1.515625 -11.265625 C 1.796875 -11.265625 2.203125 -11.265625 2.734375 -11.265625 L 4.578125 -11.265625 L 4.578125 1.265625 L 1.265625 1.265625 L 1.265625 -4.765625 C 1.265625 -6.785156 1.257812 -8.300781 1.25 -9.3125 C 1.25 -10.332031 1.242188 -10.863281 1.234375 -10.90625 C 1.203125 -11.050781 1.113281 -11.160156 0.96875 -11.234375 Z M 5.015625 -11.265625 L 6.25 -11.265625 C 6.570312 -11.265625 6.84375 -11.265625 7.0625 -11.265625 C 7.28125 -11.265625 7.445312 -11.257812 7.5625 -11.25 C 7.675781 -11.238281 7.785156 -11.222656 7.890625 -11.203125 C 8.003906 -11.191406 8.117188 -11.164062 8.234375 -11.125 C 8.535156 -11.039062 8.820312 -10.910156 9.09375 -10.734375 C 9.375 -10.566406 9.628906 -10.363281 9.859375 -10.125 C 10.085938 -9.894531 10.285156 -9.640625 10.453125 -9.359375 C 10.617188 -9.078125 10.75 -8.789062 10.84375 -8.5 C 11.15625 -7.476562 11.082031 -6.5 10.625 -5.5625 C 10.351562 -5.03125 9.992188 -4.585938 9.546875 -4.234375 C 9.109375 -3.878906 8.601562 -3.617188 8.03125 -3.453125 C 7.632812 -3.347656 6.96875 -3.296875 6.03125 -3.296875 L 5.015625 -3.296875 L 5.015625 -5.65625 L 5.6875 -5.671875 C 6.101562 -5.671875 6.367188 -5.679688 6.484375 -5.703125 C 7.242188 -5.953125 7.59375 -6.523438 7.53125 -7.421875 C 7.5 -8.046875 7.257812 -8.445312 6.8125 -8.625 C 6.71875 -8.664062 6.390625 -8.6875 5.828125 -8.6875 L 5.015625 -8.6875 Z M 5.015625 -11.265625 "/></g></g></g><g fill="#224b82" fill-opacity="1"><g transform="translate(49.273476, 19.59197)"><g><path d="M 1.1875 -11.828125 L 4.5 -11.828125 L 4.5 -9.265625 L 1.1875 -9.265625 Z M 0.90625 -8.296875 C 0.875 -8.328125 0.863281 -8.335938 0.875 -8.328125 C 0.894531 -8.316406 0.914062 -8.3125 0.9375 -8.3125 C 0.988281 -8.332031 1.148438 -8.34375 1.421875 -8.34375 C 1.703125 -8.34375 2.109375 -8.34375 2.640625 -8.34375 L 4.46875 -8.34375 L 4.46875 1.265625 L 1.1875 1.265625 L 1.1875 -3.890625 C 1.1875 -4.929688 1.1875 -5.75 1.1875 -6.34375 C 1.1875 -6.945312 1.179688 -7.335938 1.171875 -7.515625 C 1.148438 -7.867188 1.109375 -8.085938 1.046875 -8.171875 C 1.015625 -8.222656 0.96875 -8.265625 0.90625 -8.296875 Z M 0.90625 -8.296875 "/></g></g></g><g fill="#224b82" fill-opacity="1"><g transform="translate(54.908233, 19.59197)"><g><path d="M 5.65625 -8.4375 L 5.953125 -8.421875 C 6.617188 -8.390625 7.210938 -8.25 7.734375 -8 C 8.265625 -7.757812 8.71875 -7.429688 9.09375 -7.015625 C 9.46875 -6.609375 9.753906 -6.128906 9.953125 -5.578125 C 10.160156 -5.035156 10.28125 -4.441406 10.3125 -3.796875 C 10.363281 -2.765625 10.179688 -1.828125 9.765625 -0.984375 C 9.191406 0.179688 8.242188 0.914062 6.921875 1.21875 C 6.515625 1.332031 6.144531 1.390625 5.8125 1.390625 L 5.6875 1.390625 L 5.671875 0.890625 C 5.679688 0.703125 5.6875 0.515625 5.6875 0.328125 C 5.6875 0.148438 5.6875 -0.0390625 5.6875 -0.25 C 5.6875 -0.675781 5.695312 -0.890625 5.71875 -0.890625 C 5.894531 -0.890625 6.097656 -0.972656 6.328125 -1.140625 C 6.753906 -1.378906 7.03125 -1.910156 7.15625 -2.734375 C 7.164062 -2.828125 7.171875 -2.941406 7.171875 -3.078125 C 7.179688 -3.210938 7.179688 -3.375 7.171875 -3.5625 C 7.160156 -3.769531 7.148438 -3.9375 7.140625 -4.0625 C 7.128906 -4.195312 7.109375 -4.3125 7.078125 -4.40625 C 7.015625 -4.8125 6.890625 -5.164062 6.703125 -5.46875 C 6.523438 -5.78125 6.207031 -5.972656 5.75 -6.046875 L 5.65625 -6.0625 Z M 4.640625 -8.40625 C 4.691406 -8.414062 4.753906 -8.421875 4.828125 -8.421875 C 4.898438 -8.421875 4.976562 -8.425781 5.0625 -8.4375 L 5.28125 -8.4375 L 5.28125 -7.421875 C 5.28125 -7.097656 5.28125 -6.832031 5.28125 -6.625 C 5.28125 -6.425781 5.273438 -6.289062 5.265625 -6.21875 L 5.265625 -6.0625 L 5.078125 -6.015625 C 4.554688 -5.929688 4.203125 -5.597656 4.015625 -5.015625 C 3.929688 -4.765625 3.875 -4.472656 3.84375 -4.140625 C 3.820312 -3.816406 3.820312 -3.457031 3.84375 -3.0625 C 3.875 -2.851562 3.90625 -2.640625 3.9375 -2.421875 C 3.96875 -2.203125 4.023438 -1.992188 4.109375 -1.796875 C 4.203125 -1.609375 4.320312 -1.441406 4.46875 -1.296875 C 4.613281 -1.160156 4.800781 -1.0625 5.03125 -1 L 5.25 -0.953125 L 5.265625 0.203125 L 5.265625 1.34375 L 4.953125 1.34375 C 4.066406 1.34375 3.257812 1.097656 2.53125 0.609375 C 1.5 -0.0859375 0.894531 -1.226562 0.71875 -2.8125 C 0.5625 -4.101562 0.757812 -5.238281 1.3125 -6.21875 C 1.644531 -6.820312 2.101562 -7.316406 2.6875 -7.703125 C 3.28125 -8.085938 3.929688 -8.320312 4.640625 -8.40625 Z M 4.640625 -8.40625 "/></g></g></g><g fill="#224b82" fill-opacity="1"><g transform="translate(65.911018, 19.59197)"><g><path d="M 1.015625 -11.734375 L 0.921875 -11.796875 L 4.625 -11.796875 L 4.625 1.265625 L 1.25 1.265625 L 1.25 -4.84375 C 1.257812 -6.40625 1.257812 -7.675781 1.25 -8.65625 C 1.25 -9.632812 1.25 -10.28125 1.25 -10.59375 C 1.238281 -11.207031 1.222656 -11.539062 1.203125 -11.59375 C 1.171875 -11.65625 1.109375 -11.703125 1.015625 -11.734375 Z M 1.015625 -11.734375 "/></g></g></g><g fill="#224b82" fill-opacity="1"><g transform="translate(71.779168, 19.59197)"><g><path d="M 4.75 -8.453125 C 4.84375 -8.460938 4.953125 -8.46875 5.078125 -8.46875 C 5.210938 -8.46875 5.375 -8.46875 5.5625 -8.46875 C 5.757812 -8.457031 5.925781 -8.445312 6.0625 -8.4375 C 6.195312 -8.425781 6.316406 -8.410156 6.421875 -8.390625 C 7.085938 -8.273438 7.644531 -8.0625 8.09375 -7.75 C 8.550781 -7.445312 8.914062 -7.070312 9.1875 -6.625 C 9.46875 -6.1875 9.671875 -5.691406 9.796875 -5.140625 C 9.921875 -4.597656 9.988281 -4.03125 10 -3.4375 L 10 -2.90625 L 7.0625 -2.890625 L 4.140625 -2.890625 L 4.09375 -2.75 C 4.082031 -2.632812 4.097656 -2.425781 4.140625 -2.125 C 4.179688 -1.75 4.285156 -1.4375 4.453125 -1.1875 C 4.617188 -0.945312 4.910156 -0.828125 5.328125 -0.828125 C 5.597656 -0.828125 5.835938 -0.882812 6.046875 -1 C 6.253906 -1.113281 6.398438 -1.300781 6.484375 -1.5625 C 6.535156 -1.695312 6.566406 -1.765625 6.578125 -1.765625 C 6.628906 -1.785156 7.175781 -1.796875 8.21875 -1.796875 C 9.269531 -1.796875 9.8125 -1.785156 9.84375 -1.765625 C 9.875 -1.765625 9.832031 -1.628906 9.71875 -1.359375 C 9.519531 -0.847656 9.269531 -0.414062 8.96875 -0.0625 C 8.664062 0.28125 8.328125 0.554688 7.953125 0.765625 C 7.578125 0.984375 7.160156 1.140625 6.703125 1.234375 C 6.253906 1.335938 5.773438 1.390625 5.265625 1.390625 C 4.804688 1.390625 4.34375 1.335938 3.875 1.234375 C 3.40625 1.128906 2.976562 0.957031 2.59375 0.71875 C 2.539062 0.6875 2.46875 0.628906 2.375 0.546875 C 2.28125 0.460938 2.1875 0.367188 2.09375 0.265625 C 2 0.160156 1.90625 0.0625 1.8125 -0.03125 C 1.726562 -0.132812 1.660156 -0.21875 1.609375 -0.28125 C 1.265625 -0.75 1.007812 -1.296875 0.84375 -1.921875 C 0.6875 -2.554688 0.632812 -3.210938 0.6875 -3.890625 C 0.78125 -5.210938 1.171875 -6.265625 1.859375 -7.046875 C 2.554688 -7.828125 3.519531 -8.296875 4.75 -8.453125 Z M 5.734375 -6.3125 C 5.679688 -6.320312 5.625 -6.332031 5.5625 -6.34375 C 5.5 -6.351562 5.441406 -6.359375 5.390625 -6.359375 C 4.921875 -6.359375 4.597656 -6.21875 4.421875 -5.9375 C 4.253906 -5.65625 4.144531 -5.304688 4.09375 -4.890625 L 4.0625 -4.671875 L 6.734375 -4.671875 L 6.71875 -4.78125 C 6.707031 -5.019531 6.65625 -5.257812 6.5625 -5.5 C 6.476562 -5.738281 6.382812 -5.921875 6.28125 -6.046875 C 6.175781 -6.191406 5.992188 -6.28125 5.734375 -6.3125 Z M 5.734375 -6.3125 "/></g></g></g><g fill="#224b82" fill-opacity="1"><g transform="translate(82.448532, 19.59197)"><g><path d="M 4.75 -8.390625 C 4.832031 -8.398438 4.90625 -8.40625 4.96875 -8.40625 C 5.03125 -8.40625 5.09375 -8.410156 5.15625 -8.421875 L 5.296875 -8.421875 L 5.296875 -7.234375 L 5.28125 -6.078125 L 5.140625 -6.0625 C 4.890625 -6 4.6875 -5.882812 4.53125 -5.71875 C 4.382812 -5.550781 4.269531 -5.363281 4.1875 -5.15625 C 4.101562 -4.945312 4.046875 -4.726562 4.015625 -4.5 C 3.992188 -4.269531 3.976562 -4.039062 3.96875 -3.8125 C 3.945312 -2.800781 4.03125 -2.066406 4.21875 -1.609375 C 4.289062 -1.410156 4.421875 -1.25 4.609375 -1.125 C 4.796875 -1.007812 5 -0.953125 5.21875 -0.953125 L 5.296875 -0.953125 L 5.296875 1.328125 L 5.140625 1.328125 C 4.847656 1.328125 4.507812 1.28125 4.125 1.1875 C 3.75 1.09375 3.414062 0.984375 3.125 0.859375 C 2.550781 0.609375 2.097656 0.296875 1.765625 -0.078125 C 1.429688 -0.453125 1.171875 -0.929688 0.984375 -1.515625 C 0.765625 -2.179688 0.664062 -2.929688 0.6875 -3.765625 C 0.707031 -4.390625 0.816406 -4.960938 1.015625 -5.484375 C 1.210938 -6.003906 1.488281 -6.460938 1.84375 -6.859375 C 2.195312 -7.265625 2.613281 -7.59375 3.09375 -7.84375 C 3.582031 -8.101562 4.132812 -8.285156 4.75 -8.390625 Z M 5.6875 -8.421875 L 5.984375 -8.40625 C 6.503906 -8.375 6.976562 -8.257812 7.40625 -8.0625 C 7.84375 -7.875 8.222656 -7.617188 8.546875 -7.296875 C 8.867188 -6.984375 9.132812 -6.613281 9.34375 -6.1875 C 9.5625 -5.769531 9.707031 -5.3125 9.78125 -4.8125 L 9.78125 -4.71875 L 6.625 -4.71875 L 6.546875 -5.03125 C 6.492188 -5.382812 6.414062 -5.640625 6.3125 -5.796875 C 6.207031 -5.953125 6.046875 -6.039062 5.828125 -6.0625 L 5.6875 -6.078125 Z M 6.515625 -2.0625 L 6.625 -2.328125 L 9.734375 -2.328125 L 9.71875 -2.1875 C 9.675781 -1.75 9.546875 -1.320312 9.328125 -0.90625 C 9.117188 -0.488281 8.863281 -0.117188 8.5625 0.203125 C 7.882812 0.878906 7.007812 1.25 5.9375 1.3125 L 5.734375 1.3125 L 5.734375 -0.9375 L 5.859375 -1.015625 C 6.117188 -1.171875 6.335938 -1.519531 6.515625 -2.0625 Z M 6.515625 -2.0625 "/></g></g></g><path fill="#f8b600" d="M 15.28125 17.8125 C 15.574219 18.558594 16.484375 18.992188 17.757812 19.105469 C 15.597656 19.183594 13.996094 18.65625 13.554688 17.539062 C 12.765625 15.527344 16.019531 12.359375 20.828125 10.46875 C 21.09375 10.363281 21.359375 10.265625 21.621094 10.171875 L 19.070312 12.980469 C 16.363281 14.519531 14.75 16.472656 15.28125 17.8125 Z M 15.28125 17.8125 " fill-opacity="1" fill-rule="nonzero"/><path fill="#f8b600" d="M 28.964844 14.691406 C 29.363281 14.246094 29.660156 13.800781 29.828125 13.378906 C 29.90625 13.1875 29.960938 12.996094 29.984375 12.8125 C 30.015625 12.546875 29.988281 12.292969 29.894531 12.058594 C 29.523438 11.113281 28.171875 10.671875 26.34375 10.746094 L 27.039062 9.109375 C 29.0625 9.082031 30.546875 9.613281 30.96875 10.683594 C 31.410156 11.800781 30.597656 13.277344 28.964844 14.691406 Z M 28.964844 14.691406 " fill-opacity="1" fill-rule="nonzero"/><g clip-path="url(#0fe8379f96)"><path fill="#224b82" d="M 19.851562 19.558594 C 21.152344 19.347656 22.519531 18.992188 23.871094 18.507812 C 24.085938 18.429688 24.300781 18.351562 24.507812 18.269531 L 29.03125 13.363281 L 24.671875 13.148438 L 25.675781 10.792969 L 26.378906 9.136719 L 29.03125 2.902344 L 22.757812 9.808594 L 20.566406 12.21875 L 17.261719 15.863281 L 21.3125 15.863281 Z M 19.851562 19.558594 " fill-opacity="1" fill-rule="nonzero"/></g><g clip-path="url(#46581a8513)"><path fill="#224b82" d="M 35.597656 11.761719 C 35.085938 10.332031 33.195312 9.554688 30.566406 9.449219 C 31.609375 9.78125 32.339844 10.335938 32.617188 11.105469 C 33.476562 13.503906 29.652344 17.070312 24.074219 19.070312 C 23.925781 19.125 23.773438 19.175781 23.625 19.226562 C 22.230469 19.695312 20.867188 20.019531 19.597656 20.203125 C 15.933594 20.730469 13.039062 20.082031 12.417969 18.347656 C 12.164062 17.636719 12.328125 16.824219 12.820312 15.976562 C 11.058594 17.644531 10.207031 19.335938 10.691406 20.691406 C 11.375 22.59375 14.484375 23.347656 18.535156 22.894531 L 18.289062 23.519531 L 17.261719 26.125 L 19.855469 23.3125 L 20.527344 22.582031 C 21.953125 22.308594 23.457031 21.894531 24.984375 21.347656 C 31.859375 18.882812 36.613281 14.589844 35.597656 11.761719 Z M 35.597656 11.761719 " fill-opacity="1" fill-rule="nonzero"/></g></svg>