<svg xmlns="http://www.w3.org/2000/svg" xmlns:xlink="http://www.w3.org/1999/xlink" width="140" zoomAndPan="magnify" viewBox="0 0 104.88 30.000001" height="40" preserveAspectRatio="xMidYMid meet" version="1.0">
  <defs>
    <clipPath id="b40285ca88">
      <path d="M 1.632812 0 L 103.128906 0 L 103.128906 29.03125 L 1.632812 29.03125 Z M 1.632812 0 " clip-rule="nonzero"/>
    </clipPath>
  </defs>
  <g clip-path="url(#b40285ca88)">
    <!-- Background removed by deleting the <rect> element -->
  </g>
  <path fill="#ffffff" d="M 35.609375 6.4375 C 36.710938 6.4375 37.65625 7.351562 37.65625 8.46875 C 37.65625 9.566406 36.726562 10.4375 35.609375 10.4375 C 34.464844 10.4375 33.566406 9.566406 33.566406 8.46875 C 33.566406 7.351562 34.464844 6.4375 35.609375 6.4375 Z M 33.984375 13.582031 C 33.984375 13.132812 34.136719 12.980469 34.601562 12.980469 L 36.695312 12.980469 C 37.160156 12.980469 37.316406 13.132812 37.316406 13.582031 L 37.316406 26.871094 C 37.316406 27.320312 37.160156 27.472656 36.695312 27.472656 L 34.601562 27.472656 C 34.136719 27.472656 33.984375 27.320312 33.984375 26.871094 Z M 33.984375 13.582031 " fill-opacity="1" fill-rule="nonzero"/>
  <path fill="#ffffff" d="M 48.976562 27.785156 C 44.835938 27.628906 41.519531 24.28125 41.519531 20.25 C 41.519531 16.1875 44.835938 12.824219 48.976562 12.683594 L 48.976562 15.582031 C 46.757812 15.691406 44.820312 17.613281 44.820312 20.25 C 44.820312 22.777344 46.695312 24.808594 48.976562 24.945312 Z M 49.457031 24.929688 C 51.78125 24.761719 53.609375 22.777344 53.609375 20.234375 C 53.609375 17.707031 51.78125 15.722656 49.457031 15.566406 L 49.457031 12.667969 C 53.65625 12.824219 56.914062 16.234375 56.914062 20.234375 C 56.914062 24.234375 53.671875 27.597656 49.457031 27.769531 Z M 49.457031 24.929688 " fill-opacity="1" fill-rule="nonzero"/>
  <path fill="#ffffff" d="M 60.789062 7.054688 C 60.789062 6.605469 60.941406 6.453125 61.410156 6.453125 L 63.5 6.453125 C 63.980469 6.453125 64.121094 6.605469 64.121094 7.054688 L 64.121094 26.871094 C 64.121094 27.320312 63.964844 27.472656 63.5 27.472656 L 61.410156 27.472656 C 60.941406 27.472656 60.789062 27.320312 60.789062 26.871094 Z M 60.789062 7.054688 " fill-opacity="1" fill-rule="nonzero"/>
  <path fill="#ffffff" d="M 71.347656 20.359375 C 71.347656 22.992188 73.300781 25.007812 75.84375 25.007812 C 76.894531 25.007812 78.324219 24.777344 79.839844 23.925781 C 80.308594 23.722656 80.414062 23.597656 80.742188 23.984375 L 81.578125 25.007812 C 81.871094 25.351562 81.933594 25.519531 81.671875 25.816406 C 80.308594 27.085938 77.902344 27.800781 75.75 27.800781 C 71.347656 27.800781 67.933594 24.40625 67.933594 20.265625 C 67.933594 16.3125 71.144531 12.839844 75.285156 12.699219 L 75.285156 15.335938 C 72.957031 15.488281 71.347656 17.429688 71.347656 20.15625 Z M 71.964844 19.164062 L 79.484375 19.164062 C 79.285156 17.472656 78.136719 15.476562 75.78125 15.335938 L 75.78125 12.652344 C 80.460938 12.761719 82.863281 16.496094 82.863281 20.652344 C 82.863281 21.101562 82.773438 21.273438 82.292969 21.273438 L 71.964844 21.273438 C 71.828125 20.652344 71.828125 19.816406 71.964844 19.164062 Z M 71.964844 19.164062 " fill-opacity="1" fill-rule="nonzero"/>
  <path fill="#ffffff" d="M 92.664062 15.566406 C 90.304688 15.722656 88.507812 17.722656 88.507812 20.234375 C 88.507812 22.761719 90.304688 24.746094 92.664062 24.886719 L 92.664062 27.785156 C 88.351562 27.628906 85.207031 24.21875 85.207031 20.25 C 85.207031 16.25 88.414062 12.824219 92.664062 12.683594 Z M 93.175781 12.683594 C 95.113281 12.746094 96.941406 13.503906 98.304688 14.824219 C 98.570312 15.085938 98.507812 15.210938 98.214844 15.550781 L 97.128906 16.699219 C 96.800781 17.039062 96.601562 17.132812 96.242188 16.808594 C 95.359375 15.984375 94.152344 15.613281 93.160156 15.582031 L 93.160156 12.683594 Z M 93.175781 24.886719 C 94.398438 24.824219 95.484375 24.40625 96.257812 23.660156 C 96.617188 23.335938 96.816406 23.429688 97.144531 23.769531 L 98.230469 24.917969 C 98.523438 25.257812 98.585938 25.398438 98.320312 25.644531 C 96.957031 26.960938 95.128906 27.722656 93.191406 27.785156 L 93.191406 24.886719 Z M 93.175781 24.886719 " fill-opacity="1" fill-rule="nonzero"/>
  <path fill="#e9a822" d="M 20.355469 13.582031 C 21.640625 13.566406 22.605469 12.683594 22.574219 11.503906 C 22.558594 10.34375 21.613281 9.476562 20.386719 9.476562 C 17.703125 9.476562 15.023438 9.476562 12.339844 9.476562 C 11.410156 9.476562 10.542969 9.722656 9.734375 10.15625 C 8.109375 11.054688 7.023438 12.390625 6.652344 14.21875 C 6.417969 14.824219 6.402344 15.460938 6.402344 16.078125 C 6.417969 19.320312 6.433594 22.558594 6.480469 25.816406 C 6.496094 27.007812 7.316406 27.878906 8.449219 27.878906 C 9.597656 27.878906 10.417969 27.039062 10.417969 25.832031 C 10.449219 22.265625 10.480469 18.683594 10.511719 15.132812 C 10.496094 15.148438 10.496094 15.164062 10.480469 15.210938 C 10.480469 15.195312 10.496094 15.148438 10.511719 15.132812 C 10.757812 14.296875 11.488281 13.722656 12.386719 13.691406 C 15.039062 13.519531 17.6875 13.613281 20.355469 13.582031 Z M 20.355469 13.582031 " fill-opacity="1" fill-rule="nonzero"/>
  <path fill="#e9a822" d="M 30.089844 8.484375 C 29.253906 4.636719 25.128906 1.289062 21.023438 1.210938 C 16.867188 1.148438 12.695312 1.195312 8.542969 1.195312 C 8.15625 1.195312 7.796875 1.273438 7.457031 1.476562 C 6.652344 1.941406 6.277344 2.902344 6.542969 3.863281 C 6.773438 4.730469 7.519531 5.304688 8.511719 5.304688 C 12.402344 5.320312 16.308594 5.304688 20.199219 5.320312 C 20.898438 5.320312 21.582031 5.382812 22.261719 5.582031 C 24.167969 6.1875 25.394531 7.492188 26.183594 9.226562 C 26.820312 11.210938 26.726562 13.101562 25.625 14.933594 C 24.308594 16.839844 22.511719 17.816406 20.136719 17.769531 C 18.914062 17.753906 17.703125 17.738281 16.480469 17.769531 C 15.285156 17.800781 14.527344 18.683594 14.542969 19.925781 C 14.558594 21.070312 15.347656 21.832031 16.511719 21.863281 C 18 21.878906 19.472656 21.894531 20.960938 21.863281 C 24.617188 21.738281 27.238281 19.925781 29.097656 16.949219 C 30.632812 14.25 31.070312 11.445312 30.089844 8.484375 Z M 30.089844 8.484375 " fill-opacity="1" fill-rule="nonzero"/>
</svg>