<svg xmlns="http://www.w3.org/2000/svg" xmlns:xlink="http://www.w3.org/1999/xlink" width="140" zoomAndPan="magnify" viewBox="0 0 104.88 30.000001" height="40" preserveAspectRatio="xMidYMid meet" version="1.0"><defs><clipPath id="8812798f7d"><path d="M 1.632812 0 L 103.128906 0 L 103.128906 29.03125 L 1.632812 29.03125 Z M 1.632812 0 " clip-rule="nonzero"/></clipPath></defs><g clip-path="url(#8812798f7d)"><rect x="-10.488" width="125.856" fill="#ffffff" y="-3" height="36.000001" fill-opacity="1"/><path stroke-linecap="butt" transform="matrix(0.162803, 0, 0, 0.162803, -62.869922, 5.099637)" fill="none" stroke-linejoin="miter" d="M 293.003797 -184.499684 L 1134.894543 -184.499684 L 1134.894543 410.807865 L 293.003797 410.807865 Z M 293.003797 -184.499684 " stroke="#000000" stroke-width="1" stroke-opacity="1" stroke-miterlimit="10"/></g><path fill="#0f5d9a" d="M 35.691406 5.996094 C 36.847656 5.996094 37.839844 6.957031 37.839844 8.128906 C 37.839844 9.285156 36.863281 10.195312 35.691406 10.195312 C 34.488281 10.195312 33.542969 9.285156 33.542969 8.128906 C 33.542969 6.957031 34.488281 5.996094 35.691406 5.996094 Z M 33.980469 13.5 C 33.980469 13.027344 34.144531 12.867188 34.632812 12.867188 L 36.832031 12.867188 C 37.320312 12.867188 37.480469 13.027344 37.480469 13.5 L 37.480469 27.453125 C 37.480469 27.925781 37.320312 28.085938 36.832031 28.085938 L 34.632812 28.085938 C 34.144531 28.085938 33.980469 27.925781 33.980469 27.453125 Z M 33.980469 13.5 " fill-opacity="1" fill-rule="nonzero"/><path fill="#0f5d9a" d="M 49.726562 28.414062 C 45.378906 28.25 41.894531 24.734375 41.894531 20.5 C 41.894531 16.234375 45.378906 12.703125 49.726562 12.554688 L 49.726562 15.601562 C 47.398438 15.714844 45.363281 17.734375 45.363281 20.5 C 45.363281 23.15625 47.332031 25.289062 49.726562 25.433594 Z M 50.230469 25.417969 C 52.671875 25.238281 54.59375 23.15625 54.59375 20.484375 C 54.59375 17.832031 52.671875 15.746094 50.230469 15.585938 L 50.230469 12.539062 C 54.640625 12.703125 58.058594 16.285156 58.058594 20.484375 C 58.058594 24.683594 54.65625 28.21875 50.230469 28.398438 Z M 50.230469 25.417969 " fill-opacity="1" fill-rule="nonzero"/><path fill="#0f5d9a" d="M 62.128906 6.644531 C 62.128906 6.175781 62.292969 6.011719 62.78125 6.011719 L 64.980469 6.011719 C 65.484375 6.011719 65.628906 6.175781 65.628906 6.644531 L 65.628906 27.453125 C 65.628906 27.925781 65.46875 28.085938 64.980469 28.085938 L 62.78125 28.085938 C 62.292969 28.085938 62.128906 27.925781 62.128906 27.453125 Z M 62.128906 6.644531 " fill-opacity="1" fill-rule="nonzero"/><path fill="#0f5d9a" d="M 73.21875 20.613281 C 73.21875 23.382812 75.269531 25.5 77.9375 25.5 C 79.046875 25.5 80.542969 25.253906 82.140625 24.359375 C 82.628906 24.148438 82.742188 24.015625 83.082031 24.425781 L 83.960938 25.5 C 84.273438 25.855469 84.335938 26.035156 84.058594 26.34375 C 82.628906 27.679688 80.105469 28.429688 77.839844 28.429688 C 73.21875 28.429688 69.636719 24.863281 69.636719 20.515625 C 69.636719 16.367188 73.003906 12.71875 77.351562 12.574219 L 77.351562 15.339844 C 74.910156 15.503906 73.21875 17.539062 73.21875 20.402344 Z M 73.867188 19.359375 L 81.765625 19.359375 C 81.554688 17.585938 80.347656 15.488281 77.875 15.339844 L 77.875 12.523438 C 82.789062 12.636719 85.3125 16.5625 85.3125 20.925781 C 85.3125 21.394531 85.214844 21.574219 84.710938 21.574219 L 73.867188 21.574219 C 73.722656 20.925781 73.722656 20.046875 73.867188 19.359375 Z M 73.867188 19.359375 " fill-opacity="1" fill-rule="nonzero"/><path fill="#0f5d9a" d="M 95.601562 15.585938 C 93.128906 15.746094 91.238281 17.847656 91.238281 20.484375 C 91.238281 23.136719 93.128906 25.222656 95.601562 25.367188 L 95.601562 28.414062 C 91.078125 28.25 87.773438 24.667969 87.773438 20.5 C 87.773438 16.300781 91.140625 12.703125 95.601562 12.554688 Z M 96.140625 12.554688 C 98.175781 12.621094 100.097656 13.417969 101.527344 14.800781 C 101.804688 15.078125 101.742188 15.210938 101.429688 15.566406 L 100.292969 16.773438 C 99.949219 17.128906 99.738281 17.226562 99.363281 16.886719 C 98.433594 16.023438 97.164062 15.632812 96.125 15.601562 L 96.125 12.554688 Z M 96.140625 25.367188 C 97.425781 25.304688 98.566406 24.863281 99.378906 24.082031 C 99.753906 23.742188 99.964844 23.839844 100.308594 24.195312 L 101.449219 25.402344 C 101.757812 25.757812 101.820312 25.90625 101.546875 26.167969 C 100.113281 27.550781 98.191406 28.347656 96.15625 28.414062 L 96.15625 25.367188 Z M 96.140625 25.367188 " fill-opacity="1" fill-rule="nonzero"/><path fill="#e9a822" d="M 19.671875 13.5 C 21.023438 13.484375 22.03125 12.554688 22 11.320312 C 21.984375 10.097656 20.988281 9.1875 19.703125 9.1875 C 16.886719 9.1875 14.070312 9.1875 11.253906 9.1875 C 10.277344 9.1875 9.367188 9.445312 8.519531 9.902344 C 6.808594 10.847656 5.671875 12.246094 5.28125 14.167969 C 5.035156 14.800781 5.019531 15.46875 5.019531 16.121094 C 5.035156 19.523438 5.050781 22.925781 5.101562 26.34375 C 5.117188 27.597656 5.980469 28.511719 7.167969 28.511719 C 8.371094 28.511719 9.234375 27.632812 9.234375 26.363281 C 9.269531 22.617188 9.300781 18.855469 9.332031 15.128906 C 9.316406 15.144531 9.316406 15.160156 9.300781 15.210938 C 9.300781 15.195312 9.316406 15.144531 9.332031 15.128906 C 9.59375 14.25 10.359375 13.648438 11.304688 13.613281 C 14.085938 13.433594 16.871094 13.53125 19.671875 13.5 Z M 19.671875 13.5 " fill-opacity="1" fill-rule="nonzero"/><path fill="#e9a822" d="M 29.894531 8.144531 C 29.015625 4.105469 24.6875 0.589844 20.371094 0.507812 C 16.007812 0.445312 11.628906 0.492188 7.265625 0.492188 C 6.859375 0.492188 6.484375 0.574219 6.125 0.785156 C 5.28125 1.273438 4.890625 2.28125 5.164062 3.292969 C 5.410156 4.203125 6.191406 4.804688 7.234375 4.804688 C 11.320312 4.824219 15.421875 4.804688 19.507812 4.824219 C 20.242188 4.824219 20.957031 4.886719 21.671875 5.101562 C 23.675781 5.734375 24.960938 7.101562 25.792969 8.925781 C 26.460938 11.007812 26.363281 12.996094 25.207031 14.917969 C 23.824219 16.917969 21.933594 17.945312 19.445312 17.894531 C 18.15625 17.878906 16.886719 17.863281 15.601562 17.894531 C 14.347656 17.929688 13.550781 18.855469 13.566406 20.160156 C 13.582031 21.363281 14.414062 22.160156 15.632812 22.195312 C 17.195312 22.210938 18.742188 22.226562 20.304688 22.195312 C 24.148438 22.0625 26.898438 20.160156 28.851562 17.03125 C 30.464844 14.199219 30.921875 11.253906 29.894531 8.144531 Z M 29.894531 8.144531 " fill-opacity="1" fill-rule="nonzero"/></svg>