<svg xmlns="http://www.w3.org/2000/svg" xmlns:xlink="http://www.w3.org/1999/xlink" width="144" zoomAndPan="magnify" viewBox="0 0 108 36.750001" height="49" preserveAspectRatio="xMidYMid meet" version="1.0"><defs><clipPath id="80075736bc"><path d="M 3.144531 4.472656 L 105.945312 4.472656 L 105.945312 32.035156 L 3.144531 32.035156 Z M 3.144531 4.472656 " clip-rule="nonzero"/></clipPath></defs><g clip-path="url(#80075736bc)"><path fill="#005cb9" d="M 19.390625 32.035156 L 21.757812 24.308594 L 12.976562 24.308594 L 12.976562 21.972656 L 22.480469 21.972656 L 24.738281 14.5625 L 12.976562 14.5625 L 12.976562 12.316406 L 25.390625 12.316406 L 27.78125 4.472656 L 3.5 4.472656 L 3.5 32.035156 Z M 97.265625 21.804688 L 92.136719 4.472656 L 79.007812 4.472656 L 79.007812 32.035156 L 87.207031 32.035156 L 87.207031 14.761719 L 87.269531 14.761719 L 92.351562 32.042969 L 105.59375 32.042969 L 105.59375 4.472656 L 97.316406 4.472656 L 97.316406 21.804688 Z M 70.773438 24.980469 C 73.753906 24.980469 76.144531 22.527344 76.144531 19.4375 C 76.144531 16.363281 73.90625 13.578125 70.878906 13.578125 C 67.84375 13.578125 65.457031 16.363281 65.457031 19.4375 C 65.457031 22.527344 67.699219 24.980469 70.773438 24.980469 M 66.386719 4.472656 L 41.132812 4.472656 L 41.132812 12.320312 L 49.101562 12.320312 L 49.101562 32.035156 L 61.925781 32.035156 C 61.132812 31.554688 55.691406 27.277344 55.691406 19.296875 C 55.691406 12.667969 59.757812 6.175781 66.386719 4.472656 M 32.042969 24.730469 L 29.792969 32.035156 L 42.957031 32.035156 L 40.835938 24.730469 Z M 36.542969 9.753906 L 39.015625 18.5625 L 33.890625 18.5625 Z M 36.542969 9.753906 " fill-opacity="1" fill-rule="nonzero"/></g></svg>