<svg xmlns="http://www.w3.org/2000/svg" xmlns:xlink="http://www.w3.org/1999/xlink" width="144" zoomAndPan="magnify" viewBox="0 0 108 36.750001" height="49" preserveAspectRatio="xMidYMid meet" version="1.0"><defs><clipPath id="626e5a9e15"><path d="M 40 11.230469 L 104 11.230469 L 104 25 L 40 25 Z M 40 11.230469 " clip-rule="nonzero"/></clipPath><clipPath id="fa07e9ad00"><path d="M 1 11.230469 L 40 11.230469 L 40 25 L 1 25 Z M 1 11.230469 " clip-rule="nonzero"/></clipPath><clipPath id="7b41c17d0f"><path d="M 103 11.230469 L 107 11.230469 L 107 15 L 103 15 Z M 103 11.230469 " clip-rule="nonzero"/></clipPath></defs><g clip-path="url(#626e5a9e15)"><path fill="#6c6e71" d="M 83.414062 11.636719 C 80.921875 11.550781 78.222656 13 76.941406 15.726562 C 76.148438 17.265625 75.542969 18.976562 75.140625 20.660156 C 75.101562 20.808594 75.070312 20.957031 75.039062 21.105469 C 74.996094 21.34375 74.996094 21.652344 75.015625 21.964844 C 75.113281 23.289062 76.28125 24.886719 78.203125 24.980469 L 80.480469 24.980469 C 82.976562 25.0625 85.671875 23.613281 86.953125 20.886719 C 87.746094 19.347656 88.351562 17.632812 88.753906 15.953125 C 88.792969 15.804688 88.824219 15.65625 88.855469 15.507812 C 88.898438 15.269531 88.902344 14.960938 88.878906 14.648438 C 88.78125 13.324219 87.613281 11.726562 85.691406 11.636719 Z M 40.628906 11.757812 L 41.648438 24.847656 L 43.695312 24.847656 C 43.691406 24.847656 43.6875 24.847656 43.683594 24.847656 C 43.699219 24.847656 43.710938 24.847656 43.726562 24.847656 L 43.804688 24.847656 C 44.210938 24.835938 44.574219 24.621094 44.789062 24.296875 L 44.792969 24.296875 L 53.132812 11.757812 L 50.976562 11.757812 L 45 20.757812 L 44.300781 11.757812 Z M 54.625 11.757812 L 49.835938 24.847656 L 53.511719 24.847656 L 58.296875 11.757812 Z M 63.246094 11.757812 C 59.945312 11.800781 58.488281 15.503906 60.292969 17.875 C 61.207031 19 62.511719 20.167969 63.25 21.402344 C 63.71875 22.070312 63.21875 23.183594 62.324219 23.191406 L 56.496094 23.191406 L 55.890625 24.847656 L 63.273438 24.847656 C 66.164062 24.839844 68.121094 21.40625 66.179688 18.773438 C 65.285156 17.4375 63.863281 16.527344 63.023438 15.222656 C 62.523438 14.542969 63.027344 13.425781 63.929688 13.414062 L 69.355469 13.414062 L 69.957031 11.757812 Z M 72.5 11.757812 L 67.714844 24.847656 L 71.390625 24.847656 L 76.175781 11.757812 Z M 92.335938 11.757812 L 87.53125 24.847656 L 89.425781 24.847656 L 92.738281 15.828125 L 92.753906 15.988281 L 95.730469 24.09375 C 95.90625 24.519531 96.316406 24.824219 96.796875 24.847656 L 98.527344 24.847656 L 103.335938 11.757812 L 101.445312 11.757812 L 98.195312 20.605469 L 94.734375 11.757812 Z M 84.253906 12.988281 C 84.949219 13.042969 85.496094 13.632812 85.496094 14.34375 C 85.503906 14.519531 85.472656 14.691406 85.410156 14.851562 L 82.980469 21.515625 C 82.492188 22.796875 81.351562 23.582031 80 23.621094 L 79.640625 23.621094 C 78.949219 23.566406 78.398438 22.980469 78.398438 22.265625 C 78.390625 22.089844 78.421875 21.917969 78.488281 21.757812 L 80.914062 15.09375 C 81.40625 13.8125 82.542969 13.03125 83.898438 12.992188 L 84.253906 12.992188 Z M 84.253906 12.988281 " fill-opacity="1" fill-rule="nonzero"/></g><g clip-path="url(#fa07e9ad00)"><path fill="#d71820" d="M 6.574219 11.757812 L 1.785156 24.847656 L 5.6875 24.847656 L 7.976562 18.589844 L 12.625 18.589844 L 10.332031 24.847656 L 13.382812 24.847656 C 13.898438 24.847656 14.339844 24.519531 14.519531 24.0625 C 14.523438 24.058594 14.523438 24.054688 14.527344 24.050781 L 19.023438 11.757812 L 15.121094 11.757812 L 13.277344 16.796875 L 8.632812 16.796875 L 10.476562 11.757812 Z M 21.5 11.757812 L 16.714844 24.847656 L 20.617188 24.847656 L 25.402344 11.757812 Z M 28.054688 11.757812 L 23.269531 24.847656 L 27.171875 24.847656 L 29.003906 19.828125 L 29.980469 19.074219 L 32.566406 24.132812 L 32.570312 24.125 C 32.574219 24.132812 32.574219 24.132812 32.574219 24.136719 C 32.789062 24.582031 33.253906 24.875 33.769531 24.839844 C 33.757812 24.839844 33.75 24.847656 33.738281 24.847656 L 37.050781 24.847656 L 32.929688 16.789062 L 39.429688 11.757812 L 36.515625 11.757812 L 30.15625 16.679688 L 31.957031 11.757812 Z M 28.054688 11.757812 " fill-opacity="1" fill-rule="nonzero"/></g><g clip-path="url(#7b41c17d0f)"><path fill="#6c6e71" d="M 106.210938 12.914062 C 106.210938 13.644531 105.644531 14.21875 104.90625 14.21875 C 104.175781 14.21875 103.59375 13.644531 103.59375 12.914062 C 103.59375 12.203125 104.175781 11.628906 104.90625 11.628906 C 105.644531 11.628906 106.210938 12.203125 106.210938 12.914062 M 103.917969 12.914062 C 103.917969 13.488281 104.339844 13.941406 104.914062 13.941406 C 105.472656 13.941406 105.886719 13.488281 105.886719 12.921875 C 105.886719 12.351562 105.472656 11.890625 104.90625 11.890625 C 104.339844 11.890625 103.917969 12.351562 103.917969 12.914062 M 104.703125 13.589844 L 104.410156 13.589844 L 104.410156 12.304688 C 104.523438 12.28125 104.6875 12.265625 104.898438 12.265625 C 105.140625 12.265625 105.25 12.304688 105.339844 12.359375 C 105.410156 12.414062 105.464844 12.515625 105.464844 12.640625 C 105.464844 12.78125 105.355469 12.890625 105.203125 12.9375 L 105.203125 12.957031 C 105.324219 13.003906 105.394531 13.097656 105.433594 13.269531 C 105.472656 13.464844 105.496094 13.542969 105.527344 13.589844 L 105.210938 13.589844 C 105.171875 13.542969 105.148438 13.425781 105.109375 13.277344 C 105.085938 13.136719 105.007812 13.074219 104.84375 13.074219 L 104.703125 13.074219 Z M 104.710938 12.859375 L 104.851562 12.859375 C 105.015625 12.859375 105.148438 12.808594 105.148438 12.671875 C 105.148438 12.554688 105.0625 12.476562 104.875 12.476562 C 104.796875 12.476562 104.742188 12.484375 104.710938 12.492188 Z M 104.710938 12.859375 " fill-opacity="1" fill-rule="nonzero"/></g></svg>