<svg xmlns="http://www.w3.org/2000/svg" xmlns:xlink="http://www.w3.org/1999/xlink" width="144" zoomAndPan="magnify" viewBox="0 0 108 36.750001" height="49" preserveAspectRatio="xMidYMid meet" version="1.0"><path fill="#000000" d="M 45.136719 26.457031 C 45.136719 27.507812 45.316406 28.203125 45.644531 28.664062 C 46.074219 29.226562 46.730469 29.535156 47.589844 29.535156 C 48.550781 29.535156 49.460938 29.25 50.320312 28.867188 C 50.496094 28.789062 50.675781 28.738281 50.851562 28.738281 C 51.484375 28.738281 52.089844 29.277344 52.089844 29.945312 C 52.089844 30.429688 51.886719 30.867188 51.433594 31.097656 C 50.21875 31.6875 48.929688 31.96875 47.589844 31.96875 C 46.125 31.96875 44.859375 31.480469 43.925781 30.53125 C 43.015625 29.609375 42.535156 28.328125 42.535156 26.816406 L 42.535156 23.585938 C 42.535156 22.101562 43.015625 20.820312 43.925781 19.898438 C 44.859375 18.949219 46.125 18.460938 47.589844 18.460938 C 49.082031 18.460938 50.347656 18.949219 51.253906 19.898438 C 52.164062 20.820312 52.671875 22.101562 52.671875 23.585938 L 52.671875 24.792969 C 52.671875 25.714844 51.9375 26.457031 51.027344 26.457031 Z M 50.066406 24.023438 C 50.066406 21.894531 49.207031 20.894531 47.589844 20.894531 C 45.996094 20.894531 45.136719 21.871094 45.136719 24.023438 Z M 50.066406 24.023438 " fill-opacity="1" fill-rule="nonzero"/><path fill="#000000" d="M 59.261719 27.40625 L 56.582031 31.40625 C 56.328125 31.761719 55.925781 31.96875 55.519531 31.96875 C 54.839844 31.96875 54.207031 31.378906 54.207031 30.636719 C 54.207031 30.378906 54.28125 30.125 54.433594 29.894531 L 57.746094 25.152344 L 54.511719 20.535156 C 54.359375 20.304688 54.28125 20.050781 54.28125 19.792969 C 54.28125 19.101562 54.863281 18.460938 55.597656 18.460938 C 56 18.460938 56.40625 18.664062 56.660156 19.023438 L 59.261719 22.894531 L 61.863281 19.023438 C 62.117188 18.640625 62.546875 18.460938 62.953125 18.460938 C 63.660156 18.460938 64.242188 19.050781 64.242188 19.792969 C 64.242188 20.050781 64.164062 20.304688 64.015625 20.535156 L 60.777344 25.152344 L 64.089844 29.894531 C 64.265625 30.125 64.34375 30.378906 64.34375 30.636719 C 64.34375 31.355469 63.734375 31.96875 63.003906 31.96875 C 62.597656 31.96875 62.195312 31.789062 61.941406 31.40625 Z M 59.261719 27.40625 " fill-opacity="1" fill-rule="nonzero"/><path fill="#000000" d="M 75.785156 29.738281 C 75.785156 30.457031 75.332031 31.070312 74.675781 31.300781 C 73.4375 31.738281 71.996094 31.96875 70.578125 31.96875 C 69.039062 31.96875 67.824219 31.585938 66.964844 30.839844 C 66.105469 30.097656 65.652344 29.046875 65.652344 27.789062 C 65.652344 26.535156 66.105469 25.5625 66.964844 24.84375 C 67.824219 24.101562 69.039062 23.714844 70.578125 23.714844 L 73.183594 23.714844 L 73.183594 22.816406 C 73.183594 21.742188 72.398438 20.894531 71.085938 20.894531 C 69.898438 20.894531 69.238281 21.050781 68.355469 21.589844 C 68.152344 21.714844 67.875 21.820312 67.648438 21.820312 C 66.964844 21.820312 66.410156 21.304688 66.410156 20.664062 C 66.410156 20.203125 66.609375 19.742188 67.042969 19.484375 C 68.40625 18.691406 69.59375 18.460938 71.414062 18.460938 C 74.246094 18.460938 75.785156 20.539062 75.785156 22.816406 Z M 73.183594 26.148438 L 70.578125 26.148438 C 68.378906 26.148438 68.253906 27.355469 68.253906 27.789062 C 68.253906 28.25 68.378906 29.535156 70.578125 29.535156 C 71.4375 29.535156 72.375 29.40625 73.183594 29.199219 Z M 73.183594 26.148438 " fill-opacity="1" fill-rule="nonzero"/><path fill="#000000" d="M 86.21875 23.382812 C 86.21875 21.820312 85.308594 20.894531 83.742188 20.894531 C 82.910156 20.894531 82.074219 21.023438 81.289062 21.230469 L 81.289062 30.636719 C 81.289062 31.378906 80.710938 31.96875 80 31.96875 C 79.269531 31.96875 78.6875 31.378906 78.6875 30.636719 L 78.6875 20.691406 C 78.6875 19.972656 79.117188 19.359375 79.800781 19.128906 C 81.039062 18.691406 82.378906 18.460938 83.742188 18.460938 C 85.234375 18.460938 86.5 18.949219 87.40625 19.898438 C 88.316406 20.820312 88.824219 22.101562 88.824219 23.585938 L 88.824219 30.636719 C 88.824219 31.378906 88.242188 31.96875 87.507812 31.96875 C 86.777344 31.96875 86.21875 31.378906 86.21875 30.636719 Z M 86.21875 23.382812 " fill-opacity="1" fill-rule="nonzero"/><path fill="#000000" d="M 93.621094 25.84375 C 92.253906 25.328125 91.195312 24.253906 91.195312 22.332031 C 91.195312 20.074219 93.039062 18.460938 95.566406 18.460938 C 97.285156 18.460938 98.167969 18.71875 99.003906 19.101562 C 99.507812 19.304688 99.839844 19.769531 99.839844 20.304688 C 99.839844 20.972656 99.308594 21.535156 98.625 21.535156 C 98.449219 21.535156 98.195312 21.484375 98.019531 21.410156 C 97.386719 21.101562 96.347656 20.894531 95.515625 20.894531 C 94.480469 20.894531 93.796875 21.410156 93.796875 22.28125 C 93.796875 22.945312 94.300781 23.355469 94.832031 23.535156 L 97.308594 24.355469 C 98.980469 24.917969 99.988281 26.074219 99.988281 27.945312 C 99.988281 30.199219 98.195312 31.96875 95.488281 31.96875 C 94 31.96875 92.785156 31.6875 91.851562 31.25 C 91.371094 31.019531 91.066406 30.585938 91.066406 30.070312 C 91.066406 29.40625 91.621094 28.789062 92.332031 28.789062 C 92.507812 28.789062 92.734375 28.867188 92.914062 28.945312 C 93.59375 29.304688 94.429688 29.535156 95.542969 29.535156 C 96.753906 29.535156 97.386719 29.070312 97.386719 28.199219 C 97.386719 27.253906 96.628906 26.945312 95.691406 26.613281 Z M 93.621094 25.84375 " fill-opacity="1" fill-rule="nonzero"/><path fill="#ee2426" d="M 48.074219 4.949219 C 48.074219 4.949219 46.621094 4.382812 44.652344 4.382812 C 41.085938 4.382812 39.207031 6.359375 38.296875 7.628906 C 37.4375 8.832031 36.894531 10.082031 36.484375 11.8125 C 36.09375 13.46875 36.03125 15.539062 35.960938 17.1875 C 35.792969 21.332031 36.175781 28.625 34.410156 28.625 C 33.503906 28.625 32.886719 27.210938 32.679688 26.671875 C 32.59375 26.453125 31.902344 24.421875 31.050781 20.585938 C 30.523438 18.195312 29.261719 12.4375 28.894531 11.144531 C 28.726562 10.546875 28.300781 8.964844 27.46875 7.59375 C 26.382812 5.796875 24.527344 4.886719 22.914062 4.886719 C 21.351562 4.886719 19.90625 5.980469 19.375 6.511719 C 17.761719 8.125 17.234375 10.480469 17.0625 11.417969 C 16.878906 12.429688 16.652344 14.539062 16.652344 14.539062 C 16.328125 17.054688 15.789062 21.417969 15.664062 22.332031 C 15.03125 27.035156 13.710938 27.792969 12.441406 28.214844 C 12.140625 28.3125 11.570312 28.359375 11.371094 28.359375 C 10.542969 28.359375 9.886719 28.113281 9.886719 28.113281 C 9.796875 28.078125 9.628906 28.011719 9.433594 28.011719 C 9.320312 28.011719 9.214844 28.03125 9.113281 28.078125 C 8.847656 28.195312 8.722656 28.359375 8.683594 28.433594 C 8.164062 29.242188 8.125 30.109375 8.125 30.355469 C 8.125 30.949219 8.480469 31.148438 8.589844 31.195312 C 8.621094 31.207031 9.355469 31.527344 10.4375 31.695312 C 13.691406 32.207031 15.726562 30.265625 16.277344 29.722656 C 16.792969 29.210938 17.6875 28.152344 18.277344 26.089844 C 18.65625 24.777344 18.875 23.484375 19.039062 22.050781 C 19.164062 20.972656 19.984375 13.808594 20.152344 12.808594 C 20.328125 11.753906 20.59375 10.65625 21.109375 9.65625 C 21.46875 8.949219 22.09375 8.191406 23.011719 8.191406 C 23.367188 8.191406 23.691406 8.300781 23.976562 8.515625 C 24.855469 9.175781 25.382812 10.738281 25.558594 11.414062 C 25.792969 12.320312 27.472656 19.492188 27.738281 20.742188 C 29.53125 29.144531 30.738281 30.605469 32.40625 31.445312 C 33.363281 31.929688 35.238281 32.464844 36.941406 31.105469 C 38.851562 29.578125 38.902344 26.597656 39.03125 24.785156 C 39.164062 22.921875 39.171875 21.429688 39.179688 20.761719 C 39.269531 14.101562 39.324219 12.050781 41.078125 9.484375 C 42.019531 8.101562 43.953125 7.125 47.164062 8.132812 C 47.242188 8.15625 47.414062 8.199219 47.554688 8.199219 C 48.179688 8.199219 48.4375 7.558594 48.597656 6.925781 C 48.707031 6.492188 49.007812 5.253906 48.074219 4.949219 " fill-opacity="1" fill-rule="nonzero"/></svg>