<svg xmlns="http://www.w3.org/2000/svg" xmlns:xlink="http://www.w3.org/1999/xlink" width="144" zoomAndPan="magnify" viewBox="0 0 108 36.750001" height="49" preserveAspectRatio="xMidYMid meet" version="1.0"><defs><clipPath id="f578f9f951"><path d="M 3.511719 9.070312 L 104.820312 9.070312 L 104.820312 27.695312 L 3.511719 27.695312 Z M 3.511719 9.070312 " clip-rule="nonzero"/></clipPath></defs><g clip-path="url(#f578f9f951)"><path fill="#0b5ed7" d="M 98.683594 12.59375 C 100.496094 12.59375 102.394531 13 103.71875 13.523438 L 103.71875 9.945312 C 102.367188 9.507812 100.496094 9.070312 98.050781 9.070312 C 93.417969 9.070312 90.28125 10.816406 90.28125 14.453125 C 90.28125 20.738281 99.230469 19.460938 99.230469 22.371094 C 99.230469 23.503906 98.164062 24.144531 96.066406 24.144531 C 94.164062 24.144531 91.949219 24.085938 90.222656 23.269531 L 90.222656 26.820312 C 91.949219 27.433594 94.453125 27.695312 96.351562 27.695312 C 101.160156 27.695312 104.640625 26.238281 104.640625 21.757812 C 104.640625 15.765625 95.632812 17.507812 95.632812 13.960938 C 95.605469 12.621094 97.042969 12.59375 98.683594 12.59375 Z M 79.777344 22.835938 L 78.167969 22.835938 L 78.167969 27.695312 L 72.554688 27.695312 L 72.554688 9.070312 C 72.667969 9.070312 77.015625 9.160156 78.972656 9.070312 C 84.757812 9.160156 88.613281 11.019531 88.613281 15.558594 C 88.613281 20.855469 84.84375 22.835938 79.777344 22.835938 Z M 79 12.300781 C 78.714844 12.300781 78.511719 12.300781 78.195312 12.300781 L 78.195312 19.574219 L 79 19.574219 C 81.820312 19.574219 83 18.703125 83 15.53125 C 83 13.582031 81.675781 12.332031 79 12.300781 Z M 63.777344 9.070312 L 69.390625 9.070312 L 69.390625 27.695312 L 63.777344 27.695312 Z M 50.167969 27.695312 L 50.167969 9.070312 L 55.777344 9.070312 L 55.777344 23.648438 L 61.390625 23.648438 L 60.582031 27.695312 Z M 41.359375 9.070312 L 46.972656 9.070312 L 46.972656 27.695312 L 41.359375 27.695312 Z M 32.554688 20.417969 L 26.945312 20.417969 L 26.945312 27.695312 L 21.332031 27.695312 L 21.332031 9.070312 L 26.945312 9.070312 L 26.945312 16.347656 L 32.554688 16.347656 L 32.554688 9.070312 L 38.167969 9.070312 L 38.167969 27.695312 L 32.554688 27.695312 Z M 10.914062 22.835938 L 9.304688 22.835938 L 9.304688 27.695312 L 3.722656 27.695312 L 3.722656 9.070312 C 3.835938 9.070312 8.183594 9.160156 10.136719 9.070312 C 15.921875 9.160156 19.75 11.019531 19.75 15.558594 C 19.75 20.855469 15.980469 22.835938 10.914062 22.835938 Z M 10.136719 12.300781 C 9.851562 12.300781 9.648438 12.300781 9.332031 12.300781 L 9.332031 19.574219 L 10.136719 19.574219 C 12.957031 19.574219 14.136719 18.703125 14.136719 15.53125 C 14.136719 13.582031 12.816406 12.332031 10.136719 12.300781 Z M 10.136719 12.300781 " fill-opacity="1" fill-rule="evenodd"/></g></svg>