<svg xmlns="http://www.w3.org/2000/svg" xmlns:xlink="http://www.w3.org/1999/xlink" width="144" zoomAndPan="magnify" viewBox="0 0 108 36.750001" height="49" preserveAspectRatio="xMidYMid meet" version="1.0"><defs><clipPath id="04e58423a9"><path d="M 2.730469 9.769531 L 105.53125 9.769531 L 105.53125 26.902344 L 2.730469 26.902344 Z M 2.730469 9.769531 " clip-rule="nonzero"/></clipPath></defs><g clip-path="url(#04e58423a9)"><path fill="#009999" d="M 9.054688 9.769531 C 10.074219 9.769531 11.570312 9.976562 13.542969 10.386719 L 13.542969 13.539062 C 12.082031 12.921875 10.753906 12.613281 9.496094 12.613281 C 7.730469 12.613281 6.878906 13.128906 6.878906 14.15625 C 6.878906 14.53125 7.050781 14.839844 7.421875 15.082031 C 7.730469 15.285156 8.542969 15.699219 9.871094 16.3125 C 11.773438 17.203125 13.066406 17.992188 13.679688 18.644531 C 14.425781 19.429688 14.800781 20.457031 14.800781 21.691406 C 14.800781 23.472656 14.050781 24.84375 12.589844 25.769531 C 11.398438 26.523438 9.835938 26.898438 7.933594 26.898438 C 6.335938 26.898438 4.703125 26.691406 3.070312 26.28125 L 3.070312 23.027344 C 4.839844 23.609375 6.402344 23.917969 7.730469 23.917969 C 9.597656 23.917969 10.550781 23.40625 10.550781 22.34375 C 10.550781 21.964844 10.414062 21.625 10.140625 21.347656 C 9.871094 21.074219 9.15625 20.664062 8 20.183594 C 5.925781 19.292969 4.601562 18.539062 3.988281 17.890625 C 3.140625 17.101562 2.730469 16.039062 2.730469 14.773438 C 2.730469 13.128906 3.308594 11.894531 4.5 11.039062 C 5.65625 10.183594 7.183594 9.769531 9.054688 9.769531 Z M 99.820312 9.769531 C 100.875 9.769531 102.234375 9.941406 103.902344 10.285156 L 104.273438 10.351562 L 104.273438 13.503906 C 102.8125 12.886719 101.453125 12.578125 100.230469 12.578125 C 98.496094 12.578125 97.613281 13.09375 97.613281 14.121094 C 97.613281 14.5 97.78125 14.808594 98.15625 15.046875 C 98.425781 15.21875 99.242188 15.628906 100.601562 16.28125 C 102.507812 17.171875 103.765625 17.957031 104.410156 18.609375 C 105.160156 19.398438 105.53125 20.425781 105.53125 21.65625 C 105.53125 23.4375 104.785156 24.808594 103.324219 25.734375 C 102.132812 26.488281 100.570312 26.863281 98.664062 26.863281 C 97.066406 26.863281 95.4375 26.660156 93.804688 26.246094 L 93.804688 22.992188 C 95.539062 23.574219 97.101562 23.882812 98.460938 23.882812 C 100.332031 23.882812 101.25 23.371094 101.25 22.308594 C 101.25 21.933594 101.113281 21.589844 100.839844 21.316406 C 100.570312 21.042969 99.855469 20.628906 98.699219 20.152344 C 96.660156 19.261719 95.300781 18.507812 94.652344 17.855469 C 93.839844 17.035156 93.429688 15.972656 93.429688 14.703125 C 93.429688 13.09375 94.007812 11.828125 95.199219 10.96875 C 96.421875 10.183594 97.953125 9.769531 99.820312 9.769531 Z M 45.53125 10.046875 L 49.472656 20.597656 L 53.519531 10.046875 L 58.890625 10.046875 L 58.890625 26.554688 L 54.742188 26.554688 L 54.742188 14.875 L 50.15625 26.726562 L 47.433594 26.726562 L 42.949219 14.875 L 42.949219 26.554688 L 39.855469 26.554688 L 39.855469 10.046875 Z M 21.597656 10.046875 L 21.597656 26.554688 L 17.246094 26.554688 L 17.246094 10.046875 Z M 36.828125 10.046875 L 36.828125 13.023438 L 29.824219 13.023438 L 29.824219 16.757812 L 35.910156 16.757812 L 35.910156 19.5 L 29.824219 19.5 L 29.824219 23.40625 L 37 23.40625 L 37 26.554688 L 25.609375 26.554688 L 25.609375 10.046875 Z M 74.121094 10.046875 L 74.121094 13.023438 L 67.117188 13.023438 L 67.117188 16.757812 L 73.203125 16.757812 L 73.203125 19.5 L 67.117188 19.5 L 67.117188 23.40625 L 74.289062 23.40625 L 74.289062 26.554688 L 62.902344 26.554688 L 62.902344 10.046875 Z M 82.246094 10.046875 L 87.617188 21.109375 L 87.617188 10.046875 L 90.710938 10.046875 L 90.710938 26.554688 L 85.78125 26.554688 L 80.273438 15.355469 L 80.273438 26.554688 L 77.179688 26.554688 L 77.179688 10.046875 Z M 82.246094 10.046875 " fill-opacity="1" fill-rule="evenodd"/></g></svg>