<svg xmlns="http://www.w3.org/2000/svg" xmlns:xlink="http://www.w3.org/1999/xlink" width="144" zoomAndPan="magnify" viewBox="0 0 108 36.750001" height="49" preserveAspectRatio="xMidYMid meet" version="1.0"><defs><clipPath id="53f796b335"><path d="M 63 27 L 68 27 L 68 31.640625 L 63 31.640625 Z M 63 27 " clip-rule="nonzero"/></clipPath><clipPath id="55f3d98321"><path d="M 77 27 L 81 27 L 81 31.640625 L 77 31.640625 Z M 77 27 " clip-rule="nonzero"/></clipPath><clipPath id="4e592183d8"><path d="M 2.710938 4.898438 L 12 4.898438 L 12 20 L 2.710938 20 Z M 2.710938 4.898438 " clip-rule="nonzero"/></clipPath><clipPath id="7e7033fd11"><path d="M 102 12 L 105.351562 12 L 105.351562 16 L 102 16 Z M 102 12 " clip-rule="nonzero"/></clipPath></defs><path fill="#8f8e8e" d="M 5.746094 30.695312 L 7.546875 30.695312 L 7.546875 28.691406 L 8.007812 28.691406 L 8.007812 30.695312 L 9.808594 30.695312 L 9.808594 26.066406 L 8.007812 26.066406 L 8.007812 27.632812 L 7.546875 27.632812 L 7.546875 26.066406 L 5.746094 26.066406 Z M 5.746094 30.695312 " fill-opacity="1" fill-rule="nonzero"/><path fill="#8f8e8e" d="M 11.007812 30.695312 L 12.351562 30.695312 L 12.351562 27.058594 L 11.007812 27.058594 Z M 11.007812 26.800781 L 12.351562 26.800781 L 12.351562 26.0625 L 11.007812 26.0625 Z M 11.007812 26.800781 " fill-opacity="1" fill-rule="nonzero"/><path fill="#8f8e8e" d="M 15.460938 28.234375 L 13.496094 28.234375 L 13.496094 29.449219 L 15.460938 29.449219 Z M 15.460938 28.234375 " fill-opacity="1" fill-rule="nonzero"/><path fill="#8f8e8e" d="M 17.046875 30.695312 L 18.839844 30.695312 L 18.839844 27.125 L 19.765625 27.125 L 19.765625 26.066406 L 16.121094 26.066406 L 16.121094 27.125 L 17.046875 27.125 Z M 17.046875 30.695312 " fill-opacity="1" fill-rule="nonzero"/><path fill="#8f8e8e" d="M 21.703125 28.027344 C 21.703125 27.820312 21.753906 27.71875 21.902344 27.71875 C 22.050781 27.71875 22.109375 27.816406 22.109375 28.027344 L 22.109375 28.316406 L 21.703125 28.316406 Z M 23.453125 29.863281 L 23.453125 29.25 L 22.089844 29.25 L 22.089844 29.714844 C 22.089844 29.902344 22.039062 29.996094 21.902344 29.996094 C 21.769531 29.996094 21.71875 29.902344 21.71875 29.714844 L 21.71875 28.972656 L 23.457031 28.972656 L 23.457031 27.871094 C 23.457031 27.265625 23.238281 27.042969 22.566406 27.042969 L 21.25 27.042969 C 20.574219 27.042969 20.363281 27.265625 20.363281 27.871094 L 20.363281 29.863281 C 20.363281 30.472656 20.570312 30.699219 21.25 30.699219 L 22.566406 30.699219 C 23.238281 30.699219 23.457031 30.476562 23.457031 29.863281 " fill-opacity="1" fill-rule="nonzero"/><path fill="#8f8e8e" d="M 27.648438 29.863281 L 27.648438 29.128906 L 26.285156 29.128906 L 26.285156 29.714844 C 26.285156 29.902344 26.234375 29.996094 26.097656 29.996094 C 25.960938 29.996094 25.910156 29.902344 25.910156 29.714844 L 25.910156 28.027344 C 25.910156 27.839844 25.960938 27.746094 26.097656 27.746094 C 26.234375 27.746094 26.285156 27.835938 26.285156 28.027344 L 26.285156 28.429688 L 27.648438 28.429688 L 27.648438 27.871094 C 27.648438 27.265625 27.425781 27.042969 26.753906 27.042969 L 25.433594 27.042969 C 24.757812 27.042969 24.550781 27.265625 24.550781 27.871094 L 24.550781 29.863281 C 24.550781 30.472656 24.757812 30.699219 25.433594 30.699219 L 26.753906 30.699219 C 27.425781 30.699219 27.648438 30.476562 27.648438 29.863281 Z M 27.648438 29.863281 " fill-opacity="1" fill-rule="nonzero"/><path fill="#8f8e8e" d="M 28.785156 30.695312 L 30.128906 30.695312 L 30.128906 28.15625 C 30.128906 27.96875 30.179688 27.875 30.316406 27.875 C 30.449219 27.875 30.5 27.96875 30.5 28.15625 L 30.5 30.695312 L 31.84375 30.695312 L 31.84375 28.097656 C 31.84375 27.394531 31.507812 27.039062 30.914062 27.039062 C 30.617188 27.039062 30.363281 27.109375 30.128906 27.265625 L 30.128906 26.066406 L 28.785156 26.066406 Z M 28.785156 30.695312 " fill-opacity="1" fill-rule="nonzero"/><path fill="#8f8e8e" d="M 37.753906 30.695312 L 39.613281 30.695312 C 40.382812 30.695312 40.738281 30.390625 40.738281 29.714844 L 40.738281 29.210938 C 40.738281 28.679688 40.636719 28.40625 40.238281 28.234375 L 38.78125 27.625 C 38.578125 27.539062 38.457031 27.488281 38.457031 27.316406 C 38.457031 27.179688 38.542969 27.089844 38.675781 27.089844 C 38.828125 27.089844 38.910156 27.195312 38.910156 27.398438 L 38.910156 27.460938 L 40.738281 27.460938 L 40.738281 26.917969 C 40.738281 26.363281 40.351562 26.0625 39.613281 26.0625 L 37.753906 26.0625 C 37.015625 26.0625 36.628906 26.363281 36.628906 26.917969 L 36.628906 27.410156 C 36.628906 27.933594 36.859375 28.128906 37.363281 28.332031 L 38.613281 28.832031 C 38.867188 28.933594 38.921875 28.988281 38.921875 29.296875 C 38.921875 29.542969 38.855469 29.652344 38.691406 29.652344 C 38.527344 29.652344 38.472656 29.550781 38.472656 29.324219 L 38.472656 29.003906 L 36.628906 29.003906 L 36.628906 29.832031 C 36.628906 30.390625 37.015625 30.691406 37.753906 30.691406 " fill-opacity="1" fill-rule="nonzero"/><path fill="#8f8e8e" d="M 43.195312 28.027344 C 43.195312 27.820312 43.246094 27.71875 43.394531 27.71875 C 43.542969 27.71875 43.597656 27.816406 43.597656 28.027344 L 43.597656 28.316406 L 43.195312 28.316406 Z M 44.945312 29.863281 L 44.945312 29.25 L 43.582031 29.25 L 43.582031 29.714844 C 43.582031 29.902344 43.53125 29.996094 43.394531 29.996094 C 43.257812 29.996094 43.207031 29.902344 43.207031 29.714844 L 43.207031 28.972656 L 44.949219 28.972656 L 44.949219 27.871094 C 44.949219 27.265625 44.726562 27.042969 44.058594 27.042969 L 42.734375 27.042969 C 42.058594 27.042969 41.847656 27.265625 41.847656 27.871094 L 41.847656 29.863281 C 41.847656 30.472656 42.058594 30.699219 42.734375 30.699219 L 44.058594 30.699219 C 44.726562 30.699219 44.949219 30.476562 44.949219 29.863281 " fill-opacity="1" fill-rule="nonzero"/><path fill="#8f8e8e" d="M 49.136719 29.863281 L 49.136719 29.128906 L 47.769531 29.128906 L 47.769531 29.714844 C 47.769531 29.902344 47.71875 29.996094 47.582031 29.996094 C 47.445312 29.996094 47.394531 29.902344 47.394531 29.714844 L 47.394531 28.027344 C 47.394531 27.839844 47.445312 27.746094 47.582031 27.746094 C 47.714844 27.746094 47.769531 27.835938 47.769531 28.027344 L 47.769531 28.429688 L 49.136719 28.429688 L 49.136719 27.871094 C 49.136719 27.265625 48.917969 27.042969 48.246094 27.042969 L 46.925781 27.042969 C 46.25 27.042969 46.035156 27.265625 46.035156 27.871094 L 46.035156 29.863281 C 46.035156 30.472656 46.25 30.699219 46.925781 30.699219 L 48.246094 30.699219 C 48.917969 30.699219 49.136719 30.476562 49.136719 29.863281 Z M 49.136719 29.863281 " fill-opacity="1" fill-rule="nonzero"/><path fill="#8f8e8e" d="M 53.320312 27.058594 L 51.976562 27.058594 L 51.976562 29.597656 C 51.976562 29.785156 51.925781 29.875 51.789062 29.875 C 51.652344 29.875 51.601562 29.785156 51.601562 29.597656 L 51.601562 27.058594 L 50.257812 27.058594 L 50.257812 29.660156 C 50.257812 30.363281 50.59375 30.722656 51.1875 30.722656 C 51.492188 30.722656 51.753906 30.640625 52.023438 30.46875 L 52.023438 30.695312 L 53.320312 30.695312 Z M 53.320312 27.058594 " fill-opacity="1" fill-rule="nonzero"/><path fill="#8f8e8e" d="M 54.507812 30.695312 L 55.847656 30.695312 L 55.847656 28.15625 C 55.847656 27.96875 55.898438 27.875 56.035156 27.875 C 56.171875 27.875 56.222656 27.96875 56.222656 28.15625 L 56.222656 28.5 L 57.496094 28.5 L 57.496094 28.09375 C 57.496094 27.390625 57.175781 27.035156 56.601562 27.035156 C 56.3125 27.035156 56.066406 27.113281 55.8125 27.285156 L 55.8125 27.058594 L 54.507812 27.058594 Z M 54.507812 30.695312 " fill-opacity="1" fill-rule="nonzero"/><path fill="#8f8e8e" d="M 58.5625 30.695312 L 59.90625 30.695312 L 59.90625 27.058594 L 58.5625 27.058594 Z M 58.5625 26.800781 L 59.90625 26.800781 L 59.90625 26.0625 L 58.5625 26.0625 Z M 58.5625 26.800781 " fill-opacity="1" fill-rule="nonzero"/><path fill="#8f8e8e" d="M 61.300781 27.757812 L 61.300781 29.859375 C 61.300781 30.46875 61.507812 30.699219 62.1875 30.699219 L 63.199219 30.699219 L 63.199219 30.003906 L 62.960938 30.003906 C 62.726562 30.003906 62.640625 29.960938 62.640625 29.808594 L 62.640625 27.757812 L 63.199219 27.757812 L 63.199219 27.0625 L 62.640625 27.0625 L 62.640625 26.070312 L 61.300781 26.070312 L 61.300781 27.0625 L 60.945312 27.0625 L 60.945312 27.757812 Z M 61.300781 27.757812 " fill-opacity="1" fill-rule="nonzero"/><g clip-path="url(#53f796b335)"><path fill="#8f8e8e" d="M 66.511719 30.425781 L 67.335938 27.058594 L 65.953125 27.058594 L 65.65625 29.460938 L 65.367188 27.058594 L 63.988281 27.058594 L 64.835938 30.445312 C 64.855469 30.5 64.859375 30.574219 64.859375 30.648438 C 64.859375 30.863281 64.742188 30.945312 64.507812 30.945312 L 64.070312 30.945312 L 64.070312 31.640625 L 65.082031 31.640625 C 65.484375 31.640625 65.789062 31.621094 66.078125 31.371094 C 66.339844 31.140625 66.417969 30.832031 66.515625 30.425781 " fill-opacity="1" fill-rule="nonzero"/></g><path fill="#8f8e8e" d="M 73.113281 30.695312 L 74.972656 30.695312 C 75.742188 30.695312 76.097656 30.390625 76.097656 29.714844 L 76.097656 29.210938 C 76.097656 28.679688 75.996094 28.40625 75.597656 28.234375 L 74.140625 27.625 C 73.9375 27.539062 73.8125 27.488281 73.8125 27.316406 C 73.8125 27.179688 73.898438 27.089844 74.03125 27.089844 C 74.183594 27.089844 74.261719 27.195312 74.261719 27.398438 L 74.261719 27.460938 L 76.09375 27.460938 L 76.09375 26.917969 C 76.09375 26.363281 75.707031 26.0625 74.96875 26.0625 L 73.109375 26.0625 C 72.367188 26.0625 71.984375 26.363281 71.984375 26.917969 L 71.984375 27.410156 C 71.984375 27.933594 72.214844 28.128906 72.714844 28.332031 L 73.964844 28.832031 C 74.21875 28.933594 74.273438 28.988281 74.273438 29.296875 C 74.273438 29.542969 74.207031 29.652344 74.046875 29.652344 C 73.886719 29.652344 73.824219 29.550781 73.824219 29.324219 L 73.824219 29.003906 L 71.984375 29.003906 L 71.984375 29.832031 C 71.984375 30.390625 72.367188 30.691406 73.109375 30.691406 " fill-opacity="1" fill-rule="nonzero"/><g clip-path="url(#55f3d98321)"><path fill="#8f8e8e" d="M 79.550781 30.425781 L 80.375 27.058594 L 78.996094 27.058594 L 78.703125 29.460938 L 78.414062 27.058594 L 77.035156 27.058594 L 77.878906 30.445312 C 77.894531 30.5 77.898438 30.574219 77.898438 30.648438 C 77.898438 30.863281 77.785156 30.945312 77.546875 30.945312 L 77.113281 30.945312 L 77.113281 31.640625 L 78.125 31.640625 C 78.523438 31.640625 78.832031 31.621094 79.125 31.371094 C 79.382812 31.140625 79.464844 30.832031 79.5625 30.425781 " fill-opacity="1" fill-rule="nonzero"/></g><path fill="#8f8e8e" d="M 84.441406 29.863281 L 84.441406 29.425781 C 84.441406 28.886719 84.230469 28.691406 83.671875 28.5 L 83.085938 28.292969 C 82.832031 28.203125 82.71875 28.152344 82.71875 27.953125 C 82.71875 27.835938 82.796875 27.75 82.902344 27.75 C 83.035156 27.75 83.089844 27.839844 83.089844 28.03125 L 83.089844 28.121094 L 84.441406 28.121094 L 84.441406 27.871094 C 84.441406 27.265625 84.21875 27.042969 83.550781 27.042969 L 82.257812 27.042969 C 81.582031 27.042969 81.367188 27.265625 81.367188 27.871094 L 81.367188 28.214844 C 81.367188 28.667969 81.523438 28.835938 81.980469 28.996094 L 82.757812 29.265625 C 82.972656 29.339844 83.074219 29.453125 83.074219 29.621094 L 83.074219 29.714844 C 83.074219 29.902344 83.027344 29.996094 82.886719 29.996094 C 82.746094 29.996094 82.699219 29.902344 82.699219 29.714844 L 82.699219 29.414062 L 81.339844 29.414062 L 81.339844 29.863281 C 81.339844 30.472656 81.546875 30.699219 82.226562 30.699219 L 83.550781 30.699219 C 84.21875 30.699219 84.441406 30.476562 84.441406 29.863281 Z M 84.441406 29.863281 " fill-opacity="1" fill-rule="nonzero"/><path fill="#8f8e8e" d="M 85.777344 27.757812 L 85.777344 29.859375 C 85.777344 30.46875 85.984375 30.699219 86.664062 30.699219 L 87.679688 30.699219 L 87.679688 30.003906 L 87.4375 30.003906 C 87.203125 30.003906 87.117188 29.960938 87.117188 29.808594 L 87.117188 27.757812 L 87.679688 27.757812 L 87.679688 27.0625 L 87.117188 27.0625 L 87.117188 26.070312 L 85.777344 26.070312 L 85.777344 27.0625 L 85.421875 27.0625 L 85.421875 27.757812 Z M 85.777344 27.757812 " fill-opacity="1" fill-rule="nonzero"/><path fill="#8f8e8e" d="M 89.992188 28.027344 C 89.992188 27.820312 90.042969 27.71875 90.191406 27.71875 C 90.332031 27.71875 90.398438 27.816406 90.398438 28.027344 L 90.398438 28.316406 L 89.992188 28.316406 Z M 91.742188 29.863281 L 91.742188 29.25 L 90.378906 29.25 L 90.378906 29.714844 C 90.378906 29.902344 90.328125 29.996094 90.191406 29.996094 C 90.058594 29.996094 90.003906 29.902344 90.003906 29.714844 L 90.003906 28.972656 L 91.742188 28.972656 L 91.742188 27.871094 C 91.742188 27.265625 91.523438 27.042969 90.851562 27.042969 L 89.535156 27.042969 C 88.859375 27.042969 88.648438 27.265625 88.648438 27.871094 L 88.648438 29.863281 C 88.648438 30.472656 88.855469 30.699219 89.535156 30.699219 L 90.851562 30.699219 C 91.523438 30.699219 91.742188 30.476562 91.742188 29.863281 Z M 91.742188 29.863281 " fill-opacity="1" fill-rule="nonzero"/><path fill="#8f8e8e" d="M 92.882812 30.695312 L 94.210938 30.695312 L 94.210938 28.15625 C 94.210938 27.96875 94.261719 27.875 94.398438 27.875 C 94.535156 27.875 94.585938 27.96875 94.585938 28.15625 L 94.585938 30.695312 L 95.898438 30.695312 L 95.898438 28.15625 C 95.898438 27.96875 95.949219 27.875 96.085938 27.875 C 96.222656 27.875 96.273438 27.96875 96.273438 28.15625 L 96.273438 30.695312 L 97.601562 30.695312 L 97.601562 28.097656 C 97.601562 27.402344 97.261719 27.039062 96.679688 27.039062 C 96.308594 27.039062 96 27.152344 95.734375 27.394531 C 95.554688 27.15625 95.304688 27.039062 94.992188 27.039062 C 94.683594 27.039062 94.433594 27.117188 94.164062 27.289062 L 94.164062 27.0625 L 92.882812 27.0625 L 92.882812 30.699219 Z M 92.882812 30.695312 " fill-opacity="1" fill-rule="nonzero"/><path fill="#8f8e8e" d="M 101.832031 29.863281 L 101.832031 29.425781 C 101.832031 28.886719 101.621094 28.691406 101.0625 28.5 L 100.476562 28.292969 C 100.222656 28.203125 100.109375 28.152344 100.109375 27.953125 C 100.109375 27.835938 100.1875 27.75 100.292969 27.75 C 100.425781 27.75 100.480469 27.839844 100.480469 28.03125 L 100.480469 28.121094 L 101.828125 28.121094 L 101.828125 27.871094 C 101.828125 27.265625 101.605469 27.042969 100.9375 27.042969 L 99.644531 27.042969 C 98.96875 27.042969 98.753906 27.265625 98.753906 27.871094 L 98.753906 28.214844 C 98.753906 28.667969 98.914062 28.835938 99.371094 28.996094 L 100.148438 29.265625 C 100.359375 29.339844 100.464844 29.453125 100.464844 29.621094 L 100.464844 29.714844 C 100.464844 29.902344 100.414062 29.996094 100.277344 29.996094 C 100.140625 29.996094 100.085938 29.902344 100.085938 29.714844 L 100.085938 29.414062 L 98.726562 29.414062 L 98.726562 29.863281 C 98.726562 30.472656 98.941406 30.699219 99.613281 30.699219 L 100.933594 30.699219 C 101.601562 30.699219 101.824219 30.476562 101.824219 29.863281 " fill-opacity="1" fill-rule="nonzero"/><g clip-path="url(#4e592183d8)"><path fill="#003671" d="M 11.730469 4.898438 L 2.710938 4.902344 L 2.710938 7.378906 L 5.753906 7.375 L 5.746094 19.472656 L 8.683594 19.472656 L 8.6875 7.375 L 11.730469 7.371094 Z M 11.730469 4.898438 " fill-opacity="1" fill-rule="nonzero"/></g><path fill="#003671" d="M 12.34375 13.5 C 12.480469 12.515625 13.101562 11.585938 14.222656 11.585938 C 15.300781 11.585938 15.945312 12.535156 16.085938 13.5 Z M 18.71875 15.179688 L 18.71875 14.851562 C 18.71875 11.992188 17.28125 9.6875 14.0625 9.691406 C 10.878906 9.691406 9.300781 11.957031 9.300781 14.839844 C 9.300781 17.71875 11.15625 19.804688 14.195312 19.804688 C 16.253906 19.804688 17.921875 18.996094 18.609375 17.097656 L 16.800781 15.996094 C 16.425781 16.753906 15.117188 17.734375 14.195312 17.738281 C 12.738281 17.738281 12.257812 16.382812 12.257812 15.183594 L 18.714844 15.183594 Z M 18.71875 15.179688 " fill-opacity="1" fill-rule="nonzero"/><path fill="#003671" d="M 26.839844 12.894531 C 26.242188 12.3125 25.640625 11.964844 24.78125 11.964844 C 23.199219 11.964844 22.300781 13.398438 22.300781 14.792969 C 22.300781 16.28125 23.277344 17.519531 24.878906 17.515625 C 25.636719 17.515625 26.339844 17.148438 26.835938 16.609375 L 26.835938 19.21875 C 26.074219 19.628906 25.277344 19.796875 24.414062 19.796875 C 21.515625 19.796875 19.457031 17.5 19.460938 14.773438 C 19.460938 11.949219 21.601562 9.683594 24.5625 9.683594 C 25.339844 9.683594 26.164062 9.875 26.839844 10.285156 Z M 26.839844 12.894531 " fill-opacity="1" fill-rule="nonzero"/><path fill="#003671" d="M 30.816406 10.84375 L 30.855469 10.84375 C 31.4375 9.996094 32.421875 9.667969 33.429688 9.667969 C 36.082031 9.667969 36.84375 11.460938 36.84375 13.667969 L 36.84375 19.472656 L 34.027344 19.472656 L 34.027344 14.441406 C 34.027344 13.300781 34.089844 11.832031 32.503906 11.832031 C 30.832031 11.832031 30.8125 13.632812 30.8125 14.769531 L 30.8125 19.46875 L 27.996094 19.46875 L 27.996094 9.976562 L 30.816406 9.976562 Z M 30.816406 10.84375 " fill-opacity="1" fill-rule="nonzero"/><path fill="#003671" d="M 59.714844 19.902344 C 58.273438 19.902344 57.394531 18.511719 57.394531 17.234375 C 57.394531 15.957031 58.273438 14.582031 59.714844 14.582031 C 61.15625 14.582031 62.050781 15.953125 62.050781 17.230469 C 62.050781 18.507812 61.148438 19.898438 59.710938 19.898438 M 64.53125 12.488281 L 61.769531 12.488281 L 61.769531 13.378906 C 61.089844 12.605469 60.050781 12.183594 59.035156 12.183594 C 56.214844 12.183594 54.554688 14.679688 54.550781 17.191406 C 54.550781 19.761719 56.1875 22.296875 59.066406 22.296875 C 60.085938 22.296875 61.125 21.871094 61.722656 21.113281 L 61.765625 21.113281 L 61.765625 21.960938 L 64.523438 21.960938 L 64.523438 12.484375 Z M 64.53125 12.488281 " fill-opacity="1" fill-rule="nonzero"/><path fill="#003671" d="M 68.332031 5.589844 L 65.535156 5.589844 L 65.535156 21.972656 L 68.332031 21.972656 Z M 68.332031 5.589844 " fill-opacity="1" fill-rule="nonzero"/><path fill="#003671" d="M 74.476562 19.894531 C 73.035156 19.894531 72.15625 18.507812 72.15625 17.226562 C 72.15625 15.949219 73.039062 14.574219 74.476562 14.574219 C 75.917969 14.574219 76.816406 15.949219 76.816406 17.222656 C 76.816406 18.5 75.917969 19.890625 74.476562 19.890625 M 79.296875 12.488281 L 76.535156 12.488281 L 76.535156 13.371094 C 75.855469 12.59375 74.816406 12.171875 73.796875 12.171875 C 70.980469 12.171875 69.320312 14.671875 69.316406 17.1875 C 69.316406 19.757812 70.953125 22.292969 73.832031 22.292969 C 74.851562 22.292969 75.890625 21.867188 76.488281 21.113281 L 76.527344 21.113281 L 76.527344 21.96875 L 79.285156 21.96875 L 79.285156 12.492188 Z M 79.296875 12.488281 " fill-opacity="1" fill-rule="nonzero"/><path fill="#003671" d="M 83.535156 13.472656 L 83.574219 13.472656 C 84.136719 12.636719 85.808594 11.738281 86.640625 11.722656 L 86.683594 14.8125 C 83.582031 14.328125 83.53125 16.238281 83.53125 17.707031 L 83.53125 21.972656 L 80.734375 21.972656 L 80.734375 12.496094 L 83.535156 12.496094 Z M 83.535156 13.472656 " fill-opacity="1" fill-rule="nonzero"/><path fill="#003671" d="M 90.59375 13.332031 L 90.628906 13.332031 C 91.171875 12.574219 92.128906 12.167969 93.03125 12.167969 C 94.25 12.167969 95.210938 12.648438 95.851562 13.65625 C 96.449219 12.726562 97.570312 12.164062 98.710938 12.164062 C 101.207031 12.164062 101.828125 13.984375 101.828125 16.050781 L 101.828125 21.96875 L 99.027344 21.96875 L 99.027344 16.980469 C 99.027344 16.050781 99.09375 14.328125 97.710938 14.332031 C 96.191406 14.332031 96.210938 16.324219 96.210938 17.3125 L 96.210938 21.972656 L 93.410156 21.972656 L 93.410156 17.164062 C 93.410156 16.234375 93.53125 14.339844 92.070312 14.339844 C 90.511719 14.339844 90.59375 16.316406 90.59375 17.320312 L 90.59375 21.976562 L 87.789062 21.976562 L 87.789062 12.5 L 90.59375 12.5 L 90.59375 13.335938 Z M 90.59375 13.332031 " fill-opacity="1" fill-rule="nonzero"/><path fill="#003671" d="M 45.894531 6.066406 C 41.371094 6.066406 37.699219 9.765625 37.699219 14.324219 C 37.699219 18.878906 41.359375 22.574219 45.886719 22.574219 C 50.410156 22.574219 54.082031 18.875 54.085938 14.316406 C 54.085938 9.753906 50.425781 6.0625 45.894531 6.066406 Z M 45.894531 6.066406 " fill-opacity="1" fill-rule="nonzero"/><g clip-path="url(#7e7033fd11)"><path fill="#003671" d="M 105.351562 13.652344 C 105.351562 13.914062 105.28125 14.164062 105.148438 14.394531 C 105.019531 14.625 104.835938 14.808594 104.605469 14.941406 C 104.378906 15.074219 104.128906 15.140625 103.863281 15.140625 C 103.59375 15.140625 103.351562 15.074219 103.125 14.941406 C 102.894531 14.808594 102.714844 14.625 102.582031 14.394531 C 102.449219 14.164062 102.378906 13.917969 102.378906 13.652344 C 102.378906 13.382812 102.445312 13.140625 102.582031 12.910156 C 102.710938 12.679688 102.894531 12.496094 103.125 12.363281 C 103.351562 12.234375 103.597656 12.164062 103.863281 12.164062 C 104.125 12.164062 104.378906 12.234375 104.605469 12.363281 C 104.835938 12.496094 105.019531 12.679688 105.148438 12.910156 C 105.28125 13.140625 105.351562 13.386719 105.351562 13.652344 Z M 105.0625 13.652344 C 105.0625 13.320312 104.945312 13.039062 104.710938 12.804688 C 104.480469 12.570312 104.199219 12.449219 103.867188 12.449219 C 103.535156 12.449219 103.253906 12.566406 103.023438 12.804688 C 102.789062 13.039062 102.667969 13.320312 102.667969 13.652344 C 102.667969 13.984375 102.785156 14.261719 103.023438 14.496094 C 103.253906 14.730469 103.539062 14.851562 103.867188 14.851562 C 104.195312 14.851562 104.480469 14.730469 104.710938 14.496094 C 104.945312 14.261719 105.0625 13.984375 105.0625 13.652344 Z M 103.191406 12.855469 L 103.902344 12.855469 C 104.101562 12.855469 104.25 12.898438 104.339844 12.976562 C 104.429688 13.058594 104.476562 13.164062 104.476562 13.304688 C 104.476562 13.414062 104.441406 13.507812 104.371094 13.582031 C 104.304688 13.660156 104.199219 13.71875 104.050781 13.753906 C 104.109375 13.777344 104.15625 13.800781 104.1875 13.824219 C 104.222656 13.859375 104.265625 13.914062 104.3125 13.988281 C 104.3125 13.992188 104.402344 14.144531 104.566406 14.445312 L 104.101562 14.445312 C 103.949219 14.144531 103.847656 13.964844 103.796875 13.90625 C 103.742188 13.847656 103.691406 13.816406 103.636719 13.816406 C 103.625 13.816406 103.609375 13.816406 103.589844 13.820312 L 103.589844 14.445312 L 103.195312 14.445312 L 103.195312 12.859375 Z M 103.585938 13.527344 L 103.757812 13.527344 C 103.871094 13.527344 103.953125 13.511719 104 13.472656 C 104.046875 13.433594 104.070312 13.386719 104.070312 13.328125 C 104.070312 13.265625 104.050781 13.222656 104.003906 13.183594 C 103.957031 13.144531 103.878906 13.128906 103.773438 13.128906 L 103.585938 13.128906 Z M 103.585938 13.527344 " fill-opacity="1" fill-rule="nonzero"/></g><path fill="#009fe3" d="M 38.976562 17.921875 C 38.789062 17.554688 38.628906 17.167969 38.5 16.765625 L 47.324219 12.804688 L 42.992188 21.597656 C 42.601562 21.441406 42.222656 21.253906 41.863281 21.035156 L 44.683594 15.375 Z M 38.976562 17.921875 " fill-opacity="1" fill-rule="nonzero"/><path fill="#009fe3" d="M 44.820312 22.082031 C 44.386719 22.023438 43.96875 21.925781 43.558594 21.800781 L 48.699219 11.488281 L 38.332031 16.175781 C 38.234375 15.757812 38.160156 15.332031 38.132812 14.890625 L 51.328125 8.921875 L 44.824219 22.082031 Z M 44.820312 22.082031 " fill-opacity="1" fill-rule="nonzero"/></svg>