<svg xmlns="http://www.w3.org/2000/svg" xmlns:xlink="http://www.w3.org/1999/xlink" width="144" zoomAndPan="magnify" viewBox="0 0 108 36.750001" height="49" preserveAspectRatio="xMidYMid meet" version="1.0"><defs><clipPath id="3f09206876"><path d="M 4.015625 9 L 11 9 L 11 20 L 4.015625 20 Z M 4.015625 9 " clip-rule="nonzero"/></clipPath><clipPath id="06cc1d10a3"><path d="M 27 17 L 35 17 L 35 28.078125 L 27 28.078125 Z M 27 17 " clip-rule="nonzero"/></clipPath><clipPath id="672a6fe83c"><path d="M 24 17 L 31 17 L 31 28.078125 L 24 28.078125 Z M 24 17 " clip-rule="nonzero"/></clipPath><clipPath id="ecf51c37a4"><path d="M 20 17 L 28 17 L 28 28.078125 L 20 28.078125 Z M 20 17 " clip-rule="nonzero"/></clipPath><clipPath id="106297d40b"><path d="M 13 14 L 24 14 L 24 28.078125 L 13 28.078125 Z M 13 14 " clip-rule="nonzero"/></clipPath><clipPath id="ef18516e15"><path d="M 40 8.707031 L 42 8.707031 L 42 18 L 40 18 Z M 40 8.707031 " clip-rule="nonzero"/></clipPath><clipPath id="0c06fcd7d3"><path d="M 98 11 L 103.835938 11 L 103.835938 20 L 98 20 Z M 98 11 " clip-rule="nonzero"/></clipPath></defs><g clip-path="url(#3f09206876)"><path fill="#0066b3" d="M 10.59375 9.683594 C 10.59375 9.683594 8.726562 8.9375 6.835938 10.480469 C 6.835938 10.480469 4.589844 12.015625 4.175781 18.472656 C 4.175781 18.472656 4.050781 19.546875 4.984375 19.707031 C 4.984375 19.707031 5.925781 19.894531 6.050781 19.085938 C 6.171875 18.28125 6.148438 14.207031 7.929688 12.113281 C 7.929688 12.113281 8.101562 11.851562 8.574219 11.644531 C 8.964844 11.398438 9.28125 10.945312 9.511719 10.589844 C 9.511719 10.589844 9.859375 10.121094 10.597656 9.6875 " fill-opacity="1" fill-rule="nonzero"/></g><path fill="#0066b3" d="M 13.960938 9.53125 C 13.960938 9.53125 12.300781 8.996094 10.515625 10.378906 C 10.515625 10.378906 8.394531 11.699219 7.902344 16.933594 C 7.902344 16.933594 7.71875 18.226562 7.816406 18.882812 C 7.816406 18.882812 7.898438 19.644531 8.675781 19.714844 C 8.675781 19.714844 9.613281 19.789062 9.667969 18.898438 C 9.726562 18.007812 9.75 17.644531 9.75 17.644531 C 9.75 17.644531 9.898438 14.164062 11.285156 12.398438 L 11.621094 12.652344 C 11.621094 12.652344 12.097656 10.828125 13.960938 9.527344 Z M 13.960938 9.53125 " fill-opacity="1" fill-rule="nonzero"/><path fill="#0066b3" d="M 17.328125 9.53125 C 17.328125 9.53125 15.105469 9.003906 13.5 10.78125 C 13.5 10.78125 11.90625 12.226562 11.4375 15.820312 C 11.4375 15.820312 11.238281 17.753906 11.203125 18.691406 C 11.203125 18.691406 11.1875 19.601562 12.046875 19.71875 C 12.046875 19.71875 12.933594 19.773438 12.992188 18.820312 C 12.992188 18.820312 13.050781 14.417969 14.652344 12.40625 L 15.050781 12.65625 C 15.050781 12.65625 15.746094 10.625 17.328125 9.535156 Z M 17.328125 9.53125 " fill-opacity="1" fill-rule="nonzero"/><path fill="#0066b3" d="M 19.886719 9.484375 C 19.886719 9.484375 17.648438 9.390625 16.335938 11.683594 C 16.335938 11.683594 14.820312 13.929688 14.824219 18.53125 C 14.824219 18.53125 14.734375 19.621094 15.574219 19.722656 C 15.574219 19.722656 16.570312 19.785156 16.570312 18.628906 C 16.570312 18.628906 16.613281 14.089844 18.316406 12.253906 C 18.316406 12.253906 19.824219 14.09375 19.949219 18.425781 C 19.949219 18.425781 20.003906 21.394531 20.546875 23.03125 C 20.546875 23.03125 21.039062 21.199219 21.136719 18.652344 C 21.136719 18.652344 21.09375 18.1875 21.492188 17.859375 C 21.492188 17.859375 21.75 17.730469 21.703125 17.265625 C 21.703125 17.265625 21.335938 13.488281 20.097656 11.347656 C 20.097656 11.347656 22.722656 11.171875 23.242188 16.511719 C 23.242188 16.511719 23.246094 17.289062 23.675781 17.777344 C 23.675781 17.777344 23.988281 18 24.019531 18.546875 C 24.019531 18.546875 24.09375 19.304688 23.871094 21.746094 C 23.871094 21.746094 23.820312 22.28125 24.050781 23.039062 C 24.050781 23.039062 24.699219 21.21875 24.527344 19.429688 C 24.527344 19.429688 24.445312 17.976562 25.15625 17.488281 C 25.15625 17.488281 25.09375 13.4375 23.511719 11.222656 C 23.511719 11.222656 22.253906 9.382812 19.886719 9.484375 Z M 19.886719 9.484375 " fill-opacity="1" fill-rule="nonzero"/><g clip-path="url(#06cc1d10a3)"><path fill="#0066b3" d="M 27.703125 27.824219 C 27.703125 27.824219 29.570312 28.570312 31.460938 27.023438 C 31.460938 27.023438 33.703125 25.492188 34.117188 19.03125 C 34.117188 19.03125 34.242188 17.957031 33.304688 17.796875 C 33.304688 17.796875 32.367188 17.613281 32.242188 18.417969 C 32.121094 19.226562 32.140625 23.300781 30.363281 25.386719 C 30.363281 25.386719 30.191406 25.652344 29.71875 25.855469 C 29.324219 26.105469 29.011719 26.554688 28.78125 26.914062 C 28.78125 26.914062 28.433594 27.382812 27.695312 27.816406 " fill-opacity="1" fill-rule="nonzero"/></g><g clip-path="url(#672a6fe83c)"><path fill="#0066b3" d="M 24.335938 27.976562 C 24.335938 27.976562 25.996094 28.511719 27.78125 27.121094 C 27.78125 27.121094 29.902344 25.804688 30.394531 20.570312 C 30.394531 20.570312 30.578125 19.277344 30.480469 18.621094 C 30.480469 18.621094 30.398438 17.855469 29.621094 17.789062 C 29.621094 17.789062 28.683594 17.714844 28.628906 18.601562 C 28.570312 19.492188 28.546875 19.855469 28.546875 19.855469 C 28.546875 19.855469 28.398438 23.335938 27.007812 25.101562 L 26.675781 24.84375 C 26.675781 24.84375 26.199219 26.671875 24.335938 27.972656 Z M 24.335938 27.976562 " fill-opacity="1" fill-rule="nonzero"/></g><g clip-path="url(#ecf51c37a4)"><path fill="#0066b3" d="M 20.964844 27.976562 C 20.964844 27.976562 23.1875 28.503906 24.792969 26.726562 C 24.792969 26.726562 26.386719 25.277344 26.855469 21.6875 C 26.855469 21.6875 27.054688 19.753906 27.089844 18.816406 C 27.089844 18.816406 27.105469 17.902344 26.246094 17.789062 C 26.246094 17.789062 25.355469 17.734375 25.300781 18.6875 C 25.300781 18.6875 25.242188 23.085938 23.640625 25.101562 L 23.242188 24.847656 C 23.242188 24.847656 22.546875 26.882812 20.964844 27.972656 Z M 20.964844 27.976562 " fill-opacity="1" fill-rule="nonzero"/></g><g clip-path="url(#106297d40b)"><path fill="#0066b3" d="M 18.410156 28.027344 C 18.410156 28.027344 20.648438 28.121094 21.960938 25.828125 C 21.960938 25.828125 23.476562 23.578125 23.472656 18.976562 C 23.472656 18.976562 23.5625 17.886719 22.722656 17.789062 C 22.722656 17.789062 21.726562 17.726562 21.726562 18.882812 C 21.726562 18.882812 21.683594 23.421875 19.980469 25.253906 C 19.980469 25.253906 18.472656 23.417969 18.347656 19.082031 C 18.347656 19.082031 18.292969 16.113281 17.75 14.476562 C 17.75 14.476562 17.257812 16.3125 17.160156 18.859375 C 17.160156 18.859375 17.203125 19.324219 16.804688 19.648438 C 16.804688 19.648438 16.542969 19.78125 16.59375 20.242188 C 16.59375 20.242188 16.960938 24.023438 18.199219 26.164062 C 18.199219 26.164062 15.574219 26.339844 15.054688 21 C 15.054688 21 15.050781 20.21875 14.621094 19.734375 C 14.621094 19.734375 14.308594 19.511719 14.277344 18.960938 C 14.277344 18.960938 14.203125 18.207031 14.421875 15.765625 C 14.421875 15.765625 14.476562 15.230469 14.246094 14.46875 C 14.246094 14.46875 13.59375 16.292969 13.765625 18.082031 C 13.765625 18.082031 13.851562 19.53125 13.140625 20.023438 C 13.140625 20.023438 13.203125 24.074219 14.785156 26.292969 C 14.785156 26.292969 16.042969 28.128906 18.410156 28.03125 Z M 18.410156 28.027344 " fill-opacity="1" fill-rule="nonzero"/></g><path fill="#231f20" d="M 37.179688 14.722656 L 38.128906 11.757812 C 38.289062 11.246094 38.824219 11.019531 39.28125 11.257812 C 39.6875 11.453125 39.859375 11.910156 39.679688 12.367188 L 38.066406 16.484375 C 37.820312 17.09375 37.414062 17.320312 36.847656 17.113281 C 36.59375 17.027344 36.421875 16.839844 36.28125 16.484375 L 34.667969 12.367188 C 34.484375 11.910156 34.65625 11.457031 35.066406 11.257812 C 35.523438 11.015625 36.058594 11.257812 36.21875 11.757812 Z M 37.179688 14.722656 " fill-opacity="1" fill-rule="nonzero"/><g clip-path="url(#ef18516e15)"><path fill="#231f20" d="M 40.183594 12.007812 C 40.183594 11.777344 40.265625 11.558594 40.425781 11.410156 C 40.75 11.070312 41.269531 11.082031 41.589844 11.410156 C 41.742188 11.570312 41.828125 11.789062 41.828125 12.007812 L 41.828125 16.351562 C 41.839844 16.816406 41.476562 17.191406 41.015625 17.199219 C 40.558594 17.199219 40.183594 16.816406 40.183594 16.359375 L 40.183594 12.003906 Z M 40.332031 8.988281 C 40.707031 8.605469 41.304688 8.617188 41.679688 9 C 42.042969 9.378906 42.042969 9.976562 41.679688 10.355469 C 41.304688 10.738281 40.707031 10.738281 40.34375 10.367188 C 40.160156 10.183594 40.054688 9.933594 40.054688 9.675781 C 40.054688 9.414062 40.160156 9.175781 40.332031 8.992188 Z M 40.332031 8.988281 " fill-opacity="1" fill-rule="nonzero"/></g><path fill="#231f20" d="M 45.832031 11.171875 C 47.058594 11.3125 47.464844 11.855469 47.328125 12.410156 C 47.242188 12.777344 46.976562 12.996094 46.65625 12.984375 C 46.601562 12.972656 46.546875 12.972656 46.496094 12.960938 L 46.410156 12.929688 L 46.261719 12.875 L 46.15625 12.84375 L 46.007812 12.789062 C 45.015625 12.464844 44.214844 13.0625 44.222656 14.203125 C 44.242188 15.34375 45.054688 15.898438 46.113281 15.535156 L 46.296875 15.472656 L 46.375 15.441406 C 46.855469 15.265625 47.28125 15.503906 47.359375 16.015625 C 47.421875 16.4375 47.144531 16.828125 46.375 17.078125 C 46.183594 17.144531 45.976562 17.1875 45.761719 17.210938 C 43.921875 17.382812 42.535156 16.078125 42.558594 14.15625 C 42.578125 12.222656 44 10.960938 45.839844 11.167969 Z M 45.832031 11.171875 " fill-opacity="1" fill-rule="nonzero"/><path fill="#231f20" d="M 48.554688 11.238281 L 48.542969 10.273438 C 48.542969 9.8125 48.90625 9.433594 49.367188 9.433594 C 49.832031 9.433594 50.191406 9.8125 50.183594 10.273438 L 50.183594 11.238281 L 50.675781 11.238281 C 50.863281 11.238281 51.058594 11.316406 51.195312 11.46875 C 51.488281 11.75 51.488281 12.226562 51.195312 12.523438 C 51.046875 12.660156 50.863281 12.738281 50.664062 12.738281 L 50.183594 12.738281 L 50.183594 16.347656 C 50.183594 16.566406 50.097656 16.78125 49.945312 16.945312 C 49.625 17.269531 49.113281 17.269531 48.800781 16.945312 C 48.640625 16.78125 48.554688 16.566406 48.554688 16.347656 L 48.566406 12.730469 L 48.277344 12.730469 C 48.074219 12.730469 47.878906 12.652344 47.730469 12.503906 C 47.441406 12.21875 47.441406 11.753906 47.742188 11.460938 C 47.878906 11.320312 48.074219 11.242188 48.277344 11.242188 L 48.554688 11.242188 Z M 48.554688 11.238281 " fill-opacity="1" fill-rule="nonzero"/><path fill="#231f20" d="M 51.726562 11.976562 C 51.726562 11.570312 52.058594 11.203125 52.558594 11.171875 C 53.070312 11.128906 53.382812 11.457031 53.359375 11.769531 L 53.347656 11.855469 C 53.390625 11.800781 53.433594 11.746094 53.488281 11.703125 C 54.117188 11.007812 54.832031 11.019531 55.164062 11.515625 C 55.457031 11.953125 55.304688 12.453125 54.875 12.632812 L 54.792969 12.675781 L 54.566406 12.753906 C 54.351562 12.832031 54.203125 12.90625 54.074219 12.984375 C 53.550781 13.296875 53.367188 13.582031 53.367188 13.851562 L 53.367188 16.351562 C 53.367188 16.808594 53.003906 17.191406 52.542969 17.191406 C 52.082031 17.191406 51.71875 16.820312 51.71875 16.363281 L 51.71875 11.976562 Z M 51.726562 11.976562 " fill-opacity="1" fill-rule="nonzero"/><path fill="#231f20" d="M 55.664062 12.550781 C 56.199219 11.648438 57.109375 11.125 58.082031 11.125 C 59.628906 11.125 60.902344 12.429688 60.914062 14.167969 C 60.914062 15.917969 59.640625 17.21875 58.082031 17.21875 C 56.519531 17.21875 55.25 15.917969 55.25 14.167969 C 55.25 13.539062 55.386719 13.003906 55.664062 12.550781 Z M 56.90625 14.425781 C 57.042969 15.429688 57.621094 15.871094 58.324219 15.707031 C 58.796875 15.609375 59.148438 15.175781 59.234375 14.433594 C 59.253906 14.261719 59.253906 14.085938 59.234375 13.914062 C 59.136719 13.195312 58.777344 12.773438 58.324219 12.675781 C 57.640625 12.527344 57.03125 12.960938 56.90625 13.925781 C 56.894531 14.011719 56.894531 14.101562 56.894531 14.1875 C 56.894531 14.273438 56.894531 14.347656 56.90625 14.425781 Z M 56.90625 14.425781 " fill-opacity="1" fill-rule="nonzero"/><path fill="#231f20" d="M 61.613281 12.019531 C 61.613281 11.605469 61.957031 11.214844 62.441406 11.171875 C 62.878906 11.128906 63.175781 11.414062 63.175781 11.714844 L 63.175781 11.78125 C 63.433594 11.46875 63.785156 11.261719 64.285156 11.171875 C 64.554688 11.117188 64.820312 11.117188 65.078125 11.160156 C 66.210938 11.347656 66.828125 12.105469 66.828125 13.246094 L 66.828125 16.367188 C 66.828125 16.832031 66.464844 17.207031 66.015625 17.214844 C 65.558594 17.214844 65.183594 16.84375 65.183594 16.375 L 65.183594 13.527344 C 65.183594 13.265625 65.078125 13.015625 64.894531 12.832031 C 64.519531 12.441406 63.910156 12.441406 63.535156 12.820312 C 63.355469 13.015625 63.257812 13.253906 63.257812 13.515625 L 63.257812 16.363281 C 63.257812 16.820312 62.882812 17.203125 62.421875 17.191406 C 61.96875 17.191406 61.609375 16.808594 61.609375 16.351562 L 61.609375 12.019531 Z M 61.613281 12.019531 " fill-opacity="1" fill-rule="nonzero"/><path fill="#231f20" d="M 72.195312 14.703125 C 72.234375 14.910156 72.332031 15.113281 72.472656 15.289062 C 72.910156 15.820312 73.710938 15.953125 74.621094 15.464844 C 75.144531 15.167969 75.292969 15.148438 75.570312 15.257812 C 75.730469 15.324219 75.859375 15.453125 75.921875 15.613281 C 76.160156 16.199219 75.441406 17.214844 73.433594 17.21875 C 71.390625 17.21875 70.039062 15.503906 70.507812 13.441406 C 70.773438 12.246094 71.660156 11.390625 72.773438 11.183594 C 74.054688 10.941406 75.273438 11.605469 75.808594 12.84375 C 75.949219 13.183594 76.03125 13.527344 76.050781 13.789062 C 76.117188 14.464844 75.902344 14.703125 75.359375 14.703125 Z M 74.425781 13.628906 C 74.414062 13.597656 74.414062 13.550781 74.402344 13.519531 C 74.230469 12.726562 73.679688 12.355469 73.046875 12.511719 C 72.652344 12.609375 72.3125 12.957031 72.171875 13.5 C 72.160156 13.542969 72.160156 13.585938 72.152344 13.632812 L 74.425781 13.632812 Z M 74.425781 13.628906 " fill-opacity="1" fill-rule="nonzero"/><path fill="#231f20" d="M 76.660156 12.019531 C 76.660156 11.605469 77.003906 11.214844 77.484375 11.171875 C 77.921875 11.128906 78.21875 11.414062 78.21875 11.714844 L 78.21875 11.78125 C 78.476562 11.46875 78.832031 11.261719 79.332031 11.171875 C 79.597656 11.117188 79.863281 11.117188 80.121094 11.160156 C 81.253906 11.347656 81.871094 12.105469 81.871094 13.246094 L 81.871094 16.367188 C 81.871094 16.832031 81.507812 17.207031 81.058594 17.214844 C 80.601562 17.214844 80.226562 16.84375 80.226562 16.375 L 80.226562 13.527344 C 80.226562 13.265625 80.121094 13.015625 79.9375 12.832031 C 79.5625 12.441406 78.953125 12.441406 78.578125 12.820312 C 78.398438 13.015625 78.300781 13.253906 78.300781 13.515625 L 78.300781 16.363281 C 78.300781 16.820312 77.925781 17.203125 77.46875 17.191406 C 77.015625 17.191406 76.65625 16.808594 76.65625 16.351562 L 76.65625 12.019531 Z M 76.660156 12.019531 " fill-opacity="1" fill-rule="nonzero"/><path fill="#231f20" d="M 84.351562 14.703125 C 84.394531 14.910156 84.492188 15.113281 84.628906 15.289062 C 85.070312 15.820312 85.871094 15.953125 86.78125 15.464844 C 87.300781 15.167969 87.453125 15.148438 87.730469 15.257812 C 87.890625 15.324219 88.019531 15.453125 88.082031 15.613281 C 88.316406 16.199219 87.601562 17.214844 85.59375 17.21875 C 83.550781 17.21875 82.195312 15.503906 82.664062 13.441406 C 82.933594 12.246094 83.816406 11.390625 84.933594 11.183594 C 86.214844 10.941406 87.433594 11.605469 87.964844 12.84375 C 88.105469 13.183594 88.191406 13.527344 88.210938 13.789062 C 88.273438 14.464844 88.0625 14.703125 87.515625 14.703125 Z M 86.585938 13.628906 C 86.574219 13.597656 86.574219 13.550781 86.566406 13.519531 C 86.394531 12.726562 85.839844 12.355469 85.207031 12.511719 C 84.808594 12.609375 84.46875 12.957031 84.332031 13.5 C 84.320312 13.542969 84.320312 13.585938 84.308594 13.632812 L 86.585938 13.632812 Z M 86.585938 13.628906 " fill-opacity="1" fill-rule="nonzero"/><path fill="#231f20" d="M 88.816406 11.976562 C 88.816406 11.570312 89.148438 11.203125 89.648438 11.171875 C 90.164062 11.128906 90.472656 11.457031 90.449219 11.769531 L 90.4375 11.855469 C 90.480469 11.800781 90.523438 11.746094 90.582031 11.703125 C 91.210938 11.007812 91.925781 11.019531 92.253906 11.515625 C 92.546875 11.953125 92.398438 12.453125 91.964844 12.632812 L 91.882812 12.675781 L 91.65625 12.753906 C 91.441406 12.832031 91.292969 12.90625 91.164062 12.984375 C 90.640625 13.296875 90.457031 13.582031 90.457031 13.851562 L 90.457031 16.351562 C 90.457031 16.808594 90.09375 17.191406 89.632812 17.191406 C 89.171875 17.191406 88.808594 16.820312 88.808594 16.363281 L 88.808594 11.976562 Z M 88.816406 11.976562 " fill-opacity="1" fill-rule="nonzero"/><path fill="#231f20" d="M 96.386719 11.734375 C 96.398438 11.421875 96.699219 11.136719 97.136719 11.179688 C 97.617188 11.222656 97.960938 11.613281 97.960938 12.039062 L 97.960938 16.394531 C 97.960938 18.566406 96.703125 19.75 94.476562 19.511719 C 94.027344 19.460938 93.621094 19.351562 93.238281 19.175781 C 92.445312 18.808594 92.304688 18.242188 92.691406 17.828125 C 92.90625 17.589844 93.171875 17.535156 93.535156 17.65625 L 93.546875 17.667969 L 93.878906 17.816406 C 93.953125 17.847656 94.027344 17.882812 94.101562 17.902344 C 95.503906 18.414062 96.304688 17.824219 96.335938 16.738281 C 96.347656 16.660156 96.335938 16.589844 96.335938 16.511719 C 95.726562 17.390625 94.222656 17.542969 93.183594 16.5 C 92.519531 15.824219 92.191406 14.71875 92.40625 13.511719 C 92.480469 13.078125 92.617188 12.707031 92.808594 12.394531 C 93.71875 10.902344 95.558594 10.765625 96.386719 11.808594 L 96.386719 11.730469 Z M 94.316406 15.289062 C 94.777344 15.855469 95.621094 15.84375 96.050781 15.257812 C 96.238281 14.996094 96.339844 14.683594 96.347656 14.226562 C 96.347656 13.488281 96.078125 13.019531 95.652344 12.800781 C 94.9375 12.445312 94.136719 12.921875 94.007812 13.910156 C 93.996094 14.007812 93.984375 14.117188 93.984375 14.214844 C 93.984375 14.671875 94.113281 15.027344 94.316406 15.289062 Z M 94.316406 15.289062 " fill-opacity="1" fill-rule="nonzero"/><g clip-path="url(#0c06fcd7d3)"><path fill="#231f20" d="M 98.875 11.246094 C 99.335938 11.050781 99.808594 11.269531 100 11.800781 L 101.023438 14.59375 L 102.070312 11.792969 C 102.273438 11.261719 102.753906 11.042969 103.203125 11.261719 C 103.609375 11.457031 103.78125 11.925781 103.609375 12.347656 L 100.949219 18.972656 C 100.722656 19.527344 100.277344 19.734375 99.828125 19.546875 C 99.398438 19.363281 99.214844 18.898438 99.398438 18.449219 L 100.171875 16.644531 L 98.429688 12.3125 C 98.269531 11.902344 98.460938 11.421875 98.878906 11.25 Z M 98.875 11.246094 " fill-opacity="1" fill-rule="nonzero"/></g><path fill="#231f20" d="M 46.078125 19.761719 C 46.328125 19.761719 46.449219 19.859375 46.449219 20.058594 C 46.449219 20.277344 46.316406 20.390625 46.046875 20.390625 C 45.957031 20.390625 45.882812 20.390625 45.824219 20.382812 L 45.824219 19.773438 C 45.898438 19.765625 45.984375 19.761719 46.078125 19.761719 Z M 46.660156 21.492188 C 46.792969 21.378906 46.863281 21.234375 46.863281 21.046875 C 46.863281 20.886719 46.824219 20.757812 46.746094 20.664062 C 46.671875 20.574219 46.550781 20.507812 46.382812 20.464844 C 46.472656 20.445312 46.550781 20.394531 46.625 20.3125 C 46.699219 20.230469 46.730469 20.140625 46.730469 20.046875 C 46.730469 19.878906 46.675781 19.746094 46.5625 19.65625 C 46.453125 19.566406 46.292969 19.519531 46.085938 19.519531 C 45.976562 19.519531 45.792969 19.527344 45.539062 19.539062 L 45.539062 21.660156 L 46.132812 21.660156 C 46.351562 21.660156 46.527344 21.605469 46.660156 21.492188 Z M 46.445312 20.695312 C 46.523438 20.761719 46.5625 20.863281 46.5625 21.003906 C 46.5625 21.152344 46.523438 21.257812 46.441406 21.328125 C 46.359375 21.398438 46.226562 21.429688 46.050781 21.429688 C 46 21.429688 45.925781 21.425781 45.828125 21.414062 L 45.828125 20.609375 L 46.054688 20.601562 C 46.238281 20.601562 46.371094 20.632812 46.449219 20.695312 Z M 46.445312 20.695312 " fill-opacity="1" fill-rule="nonzero"/><path fill="#231f20" d="M 51.035156 21.660156 L 49.8125 21.660156 L 49.8125 19.539062 L 50.09375 19.539062 L 50.09375 21.398438 L 51.035156 21.398438 Z M 51.035156 21.660156 " fill-opacity="1" fill-rule="nonzero"/><path fill="#231f20" d="M 53.910156 21.015625 L 53.910156 19.539062 L 54.191406 19.539062 L 54.191406 20.992188 C 54.191406 21.121094 54.234375 21.230469 54.316406 21.308594 C 54.394531 21.390625 54.5 21.433594 54.636719 21.433594 C 54.777344 21.433594 54.886719 21.394531 54.96875 21.3125 C 55.046875 21.234375 55.089844 21.125 55.089844 20.984375 L 55.089844 19.539062 L 55.371094 19.539062 L 55.371094 21.015625 C 55.371094 21.230469 55.308594 21.394531 55.171875 21.515625 C 55.042969 21.636719 54.863281 21.695312 54.636719 21.695312 C 54.40625 21.695312 54.222656 21.636719 54.097656 21.515625 C 53.972656 21.398438 53.910156 21.230469 53.910156 21.007812 Z M 53.910156 21.015625 " fill-opacity="1" fill-rule="nonzero"/><path fill="#231f20" d="M 60.152344 19.800781 L 59.191406 19.800781 L 59.191406 20.390625 L 59.882812 20.390625 L 59.882812 20.636719 L 59.191406 20.636719 L 59.191406 21.398438 L 60.136719 21.398438 L 60.136719 21.660156 L 58.910156 21.660156 L 58.910156 19.539062 L 60.152344 19.539062 Z M 60.152344 19.800781 " fill-opacity="1" fill-rule="nonzero"/><path fill="#231f20" d="M 67.035156 19.785156 C 67.410156 19.785156 67.597656 19.914062 67.597656 20.171875 C 67.597656 20.457031 67.421875 20.597656 67.070312 20.597656 C 67.0625 20.597656 66.996094 20.59375 66.878906 20.582031 L 66.878906 19.796875 C 66.941406 19.789062 66.996094 19.78125 67.035156 19.78125 Z M 67.085938 20.855469 C 67.621094 20.855469 67.890625 20.621094 67.890625 20.140625 C 67.890625 19.730469 67.585938 19.523438 66.980469 19.523438 C 66.933594 19.523438 66.804688 19.527344 66.589844 19.539062 L 66.589844 21.660156 L 66.878906 21.660156 L 66.878906 20.84375 C 66.984375 20.851562 67.058594 20.859375 67.085938 20.859375 Z M 67.085938 20.855469 " fill-opacity="1" fill-rule="nonzero"/><path fill="#231f20" d="M 71.179688 19.984375 C 71.269531 19.835938 71.402344 19.761719 71.582031 19.761719 C 71.980469 19.761719 72.183594 20.035156 72.183594 20.582031 C 72.183594 20.851562 72.132812 21.0625 72.03125 21.210938 C 71.925781 21.355469 71.78125 21.433594 71.585938 21.433594 C 71.414062 21.433594 71.28125 21.351562 71.1875 21.191406 C 71.089844 21.027344 71.046875 20.824219 71.046875 20.582031 C 71.046875 20.335938 71.089844 20.125 71.183594 19.984375 Z M 70.964844 21.382812 C 71.113281 21.59375 71.320312 21.699219 71.582031 21.699219 C 71.875 21.699219 72.09375 21.601562 72.246094 21.402344 C 72.402344 21.207031 72.480469 20.933594 72.480469 20.585938 C 72.480469 20.234375 72.402344 19.980469 72.246094 19.789062 C 72.09375 19.597656 71.875 19.503906 71.582031 19.503906 C 71.328125 19.503906 71.121094 19.605469 70.96875 19.8125 C 70.816406 20.019531 70.738281 20.273438 70.738281 20.582031 C 70.738281 20.90625 70.816406 21.175781 70.960938 21.382812 Z M 70.964844 21.382812 " fill-opacity="1" fill-rule="nonzero"/><path fill="#231f20" d="M 77.679688 19.539062 L 77.03125 21.691406 L 76.945312 21.691406 L 76.449219 20.226562 L 75.984375 21.691406 L 75.890625 21.691406 L 75.234375 19.539062 L 75.53125 19.539062 L 75.949219 21.019531 L 76.40625 19.539062 L 76.511719 19.539062 L 76.960938 21.019531 L 77.386719 19.539062 Z M 77.679688 19.539062 " fill-opacity="1" fill-rule="nonzero"/><path fill="#231f20" d="M 81.785156 19.800781 L 80.820312 19.800781 L 80.820312 20.390625 L 81.511719 20.390625 L 81.511719 20.636719 L 80.820312 20.636719 L 80.820312 21.398438 L 81.769531 21.398438 L 81.769531 21.660156 L 80.535156 21.660156 L 80.535156 19.539062 L 81.785156 19.539062 Z M 81.785156 19.800781 " fill-opacity="1" fill-rule="nonzero"/><path fill="#231f20" d="M 85.1875 19.785156 C 85.367188 19.785156 85.5 19.8125 85.585938 19.863281 C 85.667969 19.914062 85.710938 20 85.710938 20.117188 C 85.710938 20.261719 85.671875 20.363281 85.59375 20.417969 C 85.515625 20.472656 85.390625 20.503906 85.21875 20.503906 C 85.152344 20.503906 85.089844 20.5 85.019531 20.488281 L 85.019531 19.796875 C 85.105469 19.789062 85.160156 19.78125 85.1875 19.78125 Z M 85.601562 20.683594 C 85.710938 20.660156 85.804688 20.59375 85.886719 20.488281 C 85.964844 20.382812 86.007812 20.261719 86.007812 20.125 C 86.007812 19.722656 85.757812 19.515625 85.257812 19.515625 C 85.195312 19.515625 85.09375 19.515625 84.957031 19.527344 C 84.816406 19.535156 84.746094 19.539062 84.734375 19.539062 L 84.734375 21.660156 L 85.019531 21.660156 L 85.019531 20.734375 C 85.15625 20.746094 85.257812 20.75 85.320312 20.75 L 85.878906 21.664062 L 86.203125 21.664062 L 85.601562 20.6875 Z M 85.601562 20.683594 " fill-opacity="1" fill-rule="nonzero"/></svg>