<svg id="Layer_1" enable-background="new 0 0 69 69" viewBox="0 0 69 69"
    xmlns="http://www.w3.org/2000/svg">
    <g>
        <g>
            <g>
                <g>
                    <g>
                        <path
                            d="m60.5341759 41.4511108c-.1279297 0-.2558594-.0488281-.3535156-.1464844-.1953125-.1953125-.1953125-.5117188 0-.7070312l1.4306641-1.4296875c.1953125-.1953125.5117188-.1953125.7070312 0s.1953125.5117188 0 .7070312l-1.4306641 1.4296875c-.0976563.0976563-.2255859.1464844-.3535156.1464844z" />
                    </g>
                    <g>
                        <path
                            d="m48.9201622 53.0758667c-.1279297 0-.2558594-.0488281-.3535156-.1464844-.1953125-.1953125-.1953125-.5117188 0-.7070312l10.359375-10.3701172c.1953125-.1953125.5117188-.1953125.7070312 0s.1953125.5117188 0 .7070312l-10.359375 10.3701172c-.0976562.0976563-.2255859.1464844-.3535156.1464844z" />
                    </g>
                </g>
            </g>
        </g>
        <g>
            <g>
                <path
                    d="m39.5905838 32.5430603-.3087196 1.0232468c-.1084557.3605232-.0088501.7477112.2569427 1.0151596s.6523514.3694572 1.0135422.2632446l1.0251465-.3023529z" />
            </g>
        </g>
        <g>
            <path
                d="m60.8591499 41.1935158c-.1328125 0-.2597656-.0527344-.3535156-.1464844s-.1464844-.2216797-.1464844-.3544922l.0019531-1.2568359-1.4599609 1.4609375-.0039062 1.7587891 1.7587891-.0029297 1.4609375-1.4609375-1.2568359.0019531z" />
        </g>
        <g>
            <path
                d="m59.081295 15.9229736-14.0738525 13.9353028c1.3616943.2945557 2.2219238 1.1752319 2.5338135 2.6013794l14.0997314-13.9610596z" />
            <path
                d="m55.0197716 48.5958252-2.6400146 2.6400146c.1600342.4100342.25.8699951.25 1.3400269 0 2.039978-1.6700439 3.7099609-3.710083 3.7099609-2.0499268 0-3.7199707-1.6699829-3.7199707-3.7099609 0-2.0499878 1.6700439-3.710022 3.7199707-3.710022.4699707 0 .9200439.0900269 1.3300781.25l2.6499023-2.6499634c-1.1398926-.75-2.5100098-1.1900024-3.9799805-1.1900024-4.0300293 0-7.2999268 3.2699585-7.2999268 7.2999878 0 4.0199585 3.2698975 7.289978 7.2999268 7.289978 4.0200195 0 7.2900391-3.2700195 7.2900391-7.289978 0-1.4700317-.4399414-2.8400269-1.1899414-3.9800415z" />
            <path
                d="m51.6297569 52.5758667c0 1.4899902-1.2200928 2.7099609-2.710083 2.7099609-1.5 0-2.7199707-1.2199707-2.7199707-2.7099609 0-1.5 1.2199707-2.710022 2.7199707-2.710022.1800537 0 .3701172.0200195.5400391.0499878l-1.5999756 1.6000366c-.2800293.2799683-.4400635.6599731-.4400635 1.0599976 0 .3999634.1600342.7799683.4400635 1.0599976.2799072.2799683.6600342.4400024 1.0599365.4400024.4001465 0 .7800293-.1600342 1.0600586-.4400024l1.5900879-1.5900269c.039917.1700439.0599365.3500366.0599365.5300293z" />
            <path
                d="m64.3537521 12.6622925-2.6826134-2.699707c-.8671875-.871582-2.28125-.8759766-3.1523438-.0102539l-1.9923096 1.9801025 5.8254395 5.861084 1.9920616-1.9793701c.8720704-.866211.8759767-2.2802735.0097657-3.1518555z" />
            <path
                d="m58.3098106 45.2958374-2.5700684 2.5700073c.9299316 1.3400269 1.4699707 2.960022 1.4699707 4.710022 0 4.5700073-3.7199707 8.289978-8.2900391 8.289978-4.5799561 0-8.2999268-3.7199707-8.2999268-8.289978 0-4.5800171 3.7199707-8.2999878 8.2999268-8.2999878 1.7399902 0 3.3601074.539978 4.7000732 1.4699707l2.5599365-2.5599976c-2.0100098-1.5800171-4.5200195-2.5-7.2600098-2.5-6.5599365 0-11.8898926 5.3300171-11.8898926 11.8900146 0 6.5499878 5.3299561 11.8800049 11.8898926 11.8800049 6.5500488 0 11.880127-5.3300171 11.880127-11.8800049.0000002-2.7399901-.9300535-5.2700194-2.4899901-7.2800292z" />
            <path
                d="m14.5715284 40.9411011c1.9462881 0 3.5292959-1.5830078 3.5292959-3.5292969 0-1.9453125-1.5830078-3.5283203-3.5292959-3.5283203-1.9453125 0-3.5283203 1.5830078-3.5283203 3.5283203 0 1.9462891 1.5830078 3.5292969 3.5283203 3.5292969z" />
            <path
                d="m36.4896202 55.9254761c-.2895508-1.0712891-.4581299-2.1918945-.4581299-3.3535156 0-5.2315674 3.138916-9.7354126 7.6279297-11.7512817v-5.7295532l-2.3583984.6947021c-.2041016.0595703-.4287109.0898438-.6708984.0898438-.640625 0-1.2558594-.2558594-1.6884766-.7011719-.6142578-.6142578-.8427734-1.5185547-.5908203-2.3535156l1.8105469-5.9990234c.0224609-.0751953.0637207-.1376343.1135254-.1915283.0063477-.0070801.0056152-.0175171.0124512-.024292l3.3720703-3.3388672v-10.4912111c0-1.8637695-1.5166016-3.3803711-3.3798828-3.3803711h-5.4720459c.2225342.5788574.1999512 1.2258301-.0963135 1.7851562-.3798828.7143555-1.0908203 1.1411133-1.9023438 1.1411133h-17.9541025c-.8115234 0-1.5224609-.4262695-1.9013672-1.1401367-.2973633-.5600586-.3198242-1.2079468-.097168-1.7861328h-5.4663091c-1.8691406 0-3.3906248 1.5166016-3.3906248 3.3803711v39.7695312c0 1.8632812 1.5214841 3.3798828 3.3906248 3.3798828h29.0997329zm-8.2979755-5.1152344h-4.359375c-.2763672 0-.5-.2236328-.5-.5s.2236328-.5.5-.5h4.359375c.2763672 0 .5.2236328.5.5s-.2236328.5-.5.5zm4.8935566-4.4345703h-13.39258c-.2763672 0-.5-.2236328-.5-.5s.2236328-.5.5-.5h13.39258c.2763672 0 .5.2236328.5.5s-.2236328.5-.5.5zm0-4.4345703c-2.4970722 0-4.5283222-2.0322266-4.5283222-4.5292969s2.03125-4.5283203 4.5283222-4.5283203 4.5283203 2.03125 4.5283203 4.5283203-2.03125 4.5292969-4.5283203 4.5292969zm1.4404297-12.225586c.1953125-.1953125.5117188-.1953125.7070312 0s.1953125.5117188 0 .7070312l-1.793335 1.793335c-.0462646.0463867-.1016846.0831909-.163208.1086426-.0610352.0252686-.1258545.0384521-.190918.0384521s-.1298828-.0131836-.190918-.0384521c-.0615234-.0254517-.1169434-.0622559-.163208-.1086426l-1.7933369-1.793335c-.1953125-.1953125-.1953125-.5117188 0-.7070312s.5117188-.1953125.7070312 0l.9404316.9404297v-5.3808594c0-.2763672.2236328-.5.5-.5s.5.2236328.5.5v5.3808594zm-5.9755879-13.5048828c0-.9355469.7607422-1.6967773 1.6962891-1.6967773h5.6777363c.9355469 0 1.6962891.7612305 1.6962891 1.6967773v5.6767578c0 .9287109-.7607422 1.6835938-1.6962891 1.6835938h-5.6777363c-.9355469 0-1.6962891-.7548828-1.6962891-1.6835938zm-1.0371094 21.2011719c0 .0668335-.0136719.1320801-.0388184.1924438-.0253906.0609741-.0622559.1157837-.1082764.1616821l-1.793335 1.793335c-.0976562.0976562-.2255859.1464844-.3535156.1464844s-.2558594-.0488281-.3535156-.1464844c-.1953125-.1953125-.1953125-.5117188 0-.7070312l.9404297-.9404297h-5.3808594c-.2763672 0-.5-.2236328-.5-.5s.2236328-.5.5-.5h5.3804932l-.9400635-.9394531c-.1953125-.1953125-.1953125-.5117188 0-.7070312s.5117188-.1953125.7070312 0l1.793335 1.7923584c.0460205.0458984.0828857.100708.1082764.1616821.0251466.0603637.0388184.1256103.0388184.1924438zm-14.187499-9.2246094c.2236328-.1621094.5361328-.1113281.6982422.1142578l.7182617.9996948c.5397949-3.9839478 1.9973135-6.9072266 4.3618155-8.6754761 3.3662109-2.5175781 7.2783203-1.7558594 7.4433594-1.7226562.2705078.0556641.4443359.3193359.3896484.5898438-.0546875.2695312-.3242188.4462891-.5888672.390625-.0361328-.0068359-3.6542969-.7011719-6.6552734 1.5507812-2.166748 1.6257324-3.4958496 4.3775635-3.9807119 8.1621704l1.1545401-.8301392c.2246094-.1621094.5361328-.1103516.6982422.1142578.1611328.2246094.109375.5371094-.1142578.6982422l-2.0605459 1.4804688c-.0888672.0634766-.1904297.09375-.2919922.09375-.1552734 0-.3085938-.0722656-.40625-.2080078l-1.4804688-2.0595703c-.1611329-.2246094-.1093751-.5371094.1142577-.6982422zm1.2460937 4.6962891c2.4970694 0 4.5292959 2.03125 4.5292959 4.5283203s-2.0322266 4.5292969-4.5292959 4.5292969-4.5283203-2.0322266-4.5283203-4.5292969 2.03125-4.5283203 4.5283203-4.5283203zm-4.9501953 12.4921875h6.8417959c.2763672 0 .5.2236328.5.5s-.2236328.5-.5.5h-6.8417959c-.2763672 0-.5-.2236328-.5-.5s.2236328-.5.5-.5zm0 4.4345703h11.1513662c.2763672 0 .5.2236328.5.5s-.2236328.5-.5.5h-11.1513662c-.2763672 0-.5-.2236328-.5-.5s.2236328-.5.5-.5z" />
            <path
                d="m16.385004 5.9152222-2.484374 3.6005859c-.2441406.3618164-.2695312.8105469-.0644531 1.1967773.203125.3813477.5839844.609375 1.0185547.609375h17.9541016c.4355469 0 .8164062-.2280273 1.0185547-.6098633.2050781-.3857422.1796875-.8344727-.0673828-1.199707l-2.4794941-3.6049805c-.1630859-.2333984-.3916016-.3984375-.65625-.4741211-2.1933594-.5927734-4.4277344-.8891602-6.6865234-.8891602-2.2763672 0-4.578125.3007812-6.8876953.902832-.2714836.0678712-.5068351.2338869-.6650383.4682619zm3.8623047 1.9907226h6.6259766c.2763672 0 .5.2236328.5.5s-.2236328.5-.5.5h-6.6259766c-.2763672 0-.5-.2236328-.5-.5s.2236328-.5.5-.5z" />
            <path
                d="m33.0852013 33.8834839c-1.9453144 0-3.5283222 1.5830078-3.5283222 3.5283203 0 1.9462891 1.5830078 3.5292969 3.5283222 3.5292969s3.5283203-1.5830078 3.5283203-3.5292969c0-1.9453125-1.5830078-3.5283203-3.5283203-3.5283203z" />
            <path
                d="m30.2463322 22.5709839h5.6777363c.3837891 0 .6962891-.3066406.6962891-.6835938v-5.6767578c0-.3842773-.3125-.6967773-.6962891-.6967773h-5.6777363c-.3837891 0-.6962891.3125-.6962891.6967773v5.6767578c0 .3769532.3125.6835938.6962891.6835938z" />
            <path
                d="m43.9045372 30.7467651c-.0664062 0-.1323242-.0142212-.1943359-.0404663-.0223389-.0094604-.0395508-.0276489-.0603027-.0404053-.0345459-.0209351-.071167-.0375977-.1008301-.0675659-.0019531-.0019531-.0024414-.0046387-.0043945-.0066528-.0012207-.0013428-.0031738-.00177-.0043945-.0031128-.0163574-.0172119-.0231934-.0403442-.0367432-.0595703-.0241699-.0344849-.0506592-.0674438-.0650635-.1056519-.0087891-.0228882-.0083008-.0474854-.0135498-.0714111-.0089111-.0408325-.0189209-.0809326-.0174561-.1225586.0002441-.0047607-.0021973-.0090942-.0019531-.013855.0791016-1.2636719-.1103516-2.078125-.5791016-2.4912109-.3710938-.3267212-.982666-.4215088-1.800293-.3091431l-1.2305908 4.0791626 2.8388672 2.8565674 3.9991455-1.1782227c-.1685791-1.6648559-1.0166016-2.4249877-2.7290039-2.4259033z" />
            <path
                d="m44.5117149 23.8307495-2.5681152 2.5429688c.6308594.0498047 1.1474609.2509766 1.5439453.6005859.5148926.4533691.8039551 1.1531982.8945312 2.0960693l13.9943848-13.8566284-2.5604248-2.5762329-11.302124 11.1911621c-.0007324.0006714-.0014648.0014038-.0021973.0020752z" />
        </g>
    </g>
</svg>