<?xml version="1.0"?>
<svg xmlns="http://www.w3.org/2000/svg" viewBox="0 0 64 64"><g id="seo"><path d="M10,55v6a.9994.9994,0,0,1-1,1H3a.9994.9994,0,0,1-1-1V55a.9994.9994,0,0,1,1-1H9A.9994.9994,0,0,1,10,55Zm9-5H13a.9994.9994,0,0,0-1,1V61a.9994.9994,0,0,0,1,1h6a.9994.9994,0,0,0,1-1V51A.9994.9994,0,0,0,19,50Zm10-4H23a.9994.9994,0,0,0-1,1V61a.9994.9994,0,0,0,1,1h6a.9994.9994,0,0,0,1-1V47A.9994.9994,0,0,0,29,46Zm30.8584,3.3955L46.708,36.22a1,1,0,0,0-1.415-.001l-1.2921,1.2921L42.15,35.66a23.1812,23.1812,0,0,1-6.42,6.41l1.8559,1.8558L36.293,45.2188a1,1,0,0,0,.001,1.415l14.1553,14.13c2.2932,2.31,7.0969,1.3117,9.3994-.9893A7.3574,7.3574,0,0,0,59.8584,49.3955ZM26,16a1,1,0,1,0,1,1A1.0007,1.0007,0,0,0,26,16ZM15,22a1,1,0,1,0,1,1A1.0007,1.0007,0,0,0,15,22Zm5,6a1,1,0,1,0,1,1A1.0007,1.0007,0,0,0,20,28Zm11-6a1,1,0,1,0,1,1A1.0007,1.0007,0,0,0,31,22Zm13,1A21,21,0,1,1,23,2,21.0242,21.0242,0,0,1,44,23Zm-6,0A15,15,0,1,0,23,38,15.0164,15.0164,0,0,0,38,23Zm-2-.0742a13,13,0,1,1-13-13A13.0151,13.0151,0,0,1,36,22.9258ZM34,23a3.0033,3.0033,0,0,0-3-3,2.9676,2.9676,0,0,0-1.0378.196L28.5717,18.52A2.9671,2.9671,0,0,0,29,17a3,3,0,1,0-5.1534,2.08L20.36,26.0364a2.4807,2.4807,0,0,0-1.3975.16L17.5717,24.52A2.9671,2.9671,0,0,0,18,23a3,3,0,1,0-3,3,2.9676,2.9676,0,0,0,1.0378-.196L17.4283,27.48A2.9669,2.9669,0,0,0,17,29a3,3,0,1,0,5.1534-2.08L25.64,19.9636a2.48,2.48,0,0,0,1.3975-.16L28.4283,21.48A2.9669,2.9669,0,0,0,28,23a3,3,0,0,0,6,0Zm27.22-5.95a.9886.9886,0,0,1,.18,1.22l-2,3.46a.9905.9905,0,0,1-1.14.46l-3.04-.86a9.1807,9.1807,0,0,1-1.48.86l-.77,3.05A.9947.9947,0,0,1,52,26H48a.9947.9947,0,0,1-.97-.76l-.77-3.05c-.09-.04-.19-.09-.28-.14A22.881,22.881,0,0,0,39.92,7.44l.68-1.17a1.0035,1.0035,0,0,1,1.14-.46l3.04.86a9.18,9.18,0,0,1,1.48-.86l.77-3.05A.9947.9947,0,0,1,48,2h4a.9947.9947,0,0,1,.97.76l.77,3.05a9.18,9.18,0,0,1,1.48.86l3.04-.86a1.0035,1.0035,0,0,1,1.14.46l2,3.46a.9887.9887,0,0,1-.18,1.22l-2.26,2.18a9.409,9.409,0,0,1,0,1.74ZM53,14a3,3,0,1,0-3,3A2.996,2.996,0,0,0,53,14Z"/></g></svg>
