<svg xmlns="http://www.w3.org/2000/svg" xmlns:xlink="http://www.w3.org/1999/xlink" width="50" zoomAndPan="magnify" viewBox="0 0 37.5 37.499999" height="50" preserveAspectRatio="xMidYMid meet" version="1.0"><path fill="#000000" d="M 14.308594 13.207031 C 14.308594 16.730469 17.164062 19.589844 20.6875 19.589844 C 24.214844 19.589844 27.070312 16.730469 27.070312 13.207031 L 34.210938 13.207031 L 34.210938 15.035156 L 31.96875 15.898438 C 31.683594 17.09375 31.210938 18.230469 30.566406 19.277344 L 31.542969 21.472656 L 30.375 22.640625 L 28.378906 23.804688 L 26.761719 23.085938 C 25.734375 23.71875 24.617188 24.183594 23.445312 24.472656 C 23.203125 23.753906 22.414062 22.917969 21.660156 22.8125 C 19.726562 22.460938 17.796875 21.765625 16.28125 21.214844 C 13.6875 20.277344 12.757812 20.121094 10.230469 21.585938 L 10.050781 21.6875 L 9.835938 21.472656 L 10.808594 19.277344 C 10.164062 18.234375 9.691406 17.09375 9.410156 15.898438 L 7.167969 15.035156 L 7.167969 13.207031 Z M 4.777344 24.058594 C 4.519531 23.601562 3.929688 23.4375 3.472656 23.699219 L 1.640625 24.734375 C 1.183594 24.992188 1.019531 25.582031 1.28125 26.039062 L 6.65625 35.539062 C 6.914062 35.996094 7.503906 36.160156 7.960938 35.898438 L 9.792969 34.867188 C 10.25 34.605469 10.414062 34.015625 10.152344 33.558594 Z M 3.546875 25.484375 C 3.902344 25.433594 4.234375 25.679688 4.285156 26.035156 C 4.339844 26.390625 4.089844 26.722656 3.734375 26.777344 C 3.378906 26.828125 3.046875 26.582031 2.996094 26.222656 C 2.941406 25.867188 3.1875 25.535156 3.546875 25.484375 Z M 20.769531 26.515625 C 21.53125 26.609375 22.164062 26.367188 22.375 25.574219 C 22.566406 24.855469 22.113281 24.179688 21.433594 23.945312 C 19.40625 23.570312 17.4375 22.859375 15.886719 22.300781 C 13.632812 21.484375 13.027344 21.296875 10.808594 22.582031 L 6.636719 25 L 10.007812 30.953125 L 10.492188 30.671875 C 10.628906 30.59375 10.785156 30.578125 10.925781 30.613281 L 19.824219 32.996094 C 21.140625 33.351562 21.894531 33.121094 23.058594 32.527344 L 35.285156 24.996094 C 35.917969 24.609375 36 23.550781 35.625 22.945312 C 34.804688 21.621094 32.546875 22.710938 31.597656 23.261719 L 24.835938 27.199219 C 23.507812 27.976562 22.03125 28.007812 20.558594 27.648438 C 19.039062 27.339844 17.570312 26.863281 16.074219 26.460938 C 15.765625 26.378906 15.582031 26.0625 15.664062 25.753906 C 15.746094 25.449219 16.0625 25.265625 16.371094 25.347656 C 17.835938 25.738281 19.285156 26.210938 20.769531 26.515625 Z M 20.6875 0.984375 C 22.078125 0.984375 23.207031 2.109375 23.207031 3.5 C 23.207031 4.894531 22.082031 6.019531 20.6875 6.019531 C 19.296875 6.019531 18.171875 4.894531 18.171875 3.5 C 18.171875 2.109375 19.296875 0.984375 20.6875 0.984375 Z M 16.335938 11.1875 L 25.042969 11.1875 C 25.371094 11.1875 25.609375 10.886719 25.535156 10.566406 C 25.011719 8.375 23.042969 6.742188 20.6875 6.742188 C 18.335938 6.742188 16.367188 8.375 15.84375 10.566406 C 15.765625 10.886719 16.007812 11.1875 16.335938 11.1875 Z M 28.511719 0.984375 C 29.902344 0.984375 31.03125 2.109375 31.03125 3.5 C 31.03125 4.894531 29.902344 6.019531 28.511719 6.019531 C 27.121094 6.019531 25.992188 4.894531 25.992188 3.5 C 25.992188 2.109375 27.121094 0.984375 28.511719 0.984375 Z M 26.625 11.1875 C 26.714844 10.910156 26.734375 10.605469 26.660156 10.296875 C 26.4375 9.363281 26.003906 8.519531 25.421875 7.816406 C 26.269531 7.144531 27.34375 6.742188 28.511719 6.742188 C 30.863281 6.742188 32.835938 8.375 33.355469 10.566406 C 33.433594 10.886719 33.191406 11.1875 32.863281 11.1875 Z M 8.511719 11.1875 C 8.183594 11.1875 7.945312 10.886719 8.019531 10.566406 C 8.542969 8.375 10.515625 6.742188 12.867188 6.742188 C 14.035156 6.742188 15.105469 7.144531 15.957031 7.816406 C 15.371094 8.519531 14.941406 9.363281 14.71875 10.296875 C 14.644531 10.605469 14.660156 10.914062 14.75 11.1875 Z M 12.867188 0.984375 C 14.257812 0.984375 15.386719 2.109375 15.386719 3.5 C 15.386719 4.894531 14.257812 6.019531 12.867188 6.019531 C 11.476562 6.019531 10.347656 4.894531 10.347656 3.5 C 10.347656 2.109375 11.476562 0.984375 12.867188 0.984375 Z M 24.257812 13.207031 L 17.117188 13.207031 C 17.117188 15.179688 18.71875 16.777344 20.6875 16.777344 C 22.660156 16.777344 24.257812 15.179688 24.257812 13.207031 Z M 24.257812 13.207031 " fill-opacity="1" fill-rule="evenodd"/></svg>