<svg xmlns="http://www.w3.org/2000/svg" xmlns:xlink="http://www.w3.org/1999/xlink" width="50" zoomAndPan="magnify" viewBox="0 0 37.5 37.499999" height="50" preserveAspectRatio="xMidYMid meet" version="1.0"><defs><clipPath id="c1a69838b8"><path d="M 23 16 L 37.007812 16 L 37.007812 35 L 23 35 Z M 23 16 " clip-rule="nonzero"/></clipPath></defs><path fill="#000000" d="M 13.789062 12.40625 C 13.554688 12.265625 13.464844 11.964844 13.382812 11.6875 C 13.160156 10.949219 12.824219 9.828125 10.070312 9.828125 C 9.515625 9.828125 9 9.761719 8.53125 9.636719 C 7.648438 9.753906 7.46875 10.410156 7.273438 11.105469 C 7.128906 11.632812 6.949219 12.273438 6.351562 12.441406 C 6.347656 12.558594 6.34375 12.671875 6.34375 12.785156 C 6.34375 16.175781 8.679688 16.683594 10.070312 16.683594 C 11.460938 16.683594 13.796875 16.175781 13.796875 12.785156 C 13.796875 12.660156 13.792969 12.535156 13.789062 12.40625 Z M 13.789062 12.40625 " fill-opacity="1" fill-rule="nonzero"/><path fill="#000000" d="M 5.28125 10.796875 C 5.332031 11.050781 5.542969 11.886719 6.023438 11.886719 C 6.402344 11.886719 6.511719 11.628906 6.699219 10.945312 C 6.851562 10.394531 7.046875 9.695312 7.671875 9.308594 C 6.847656 8.890625 6.246094 8.234375 5.960938 7.386719 C 5.289062 8.019531 5.035156 9.605469 5.28125 10.796875 Z M 5.28125 10.796875 " fill-opacity="1" fill-rule="nonzero"/><path fill="#000000" d="M 6.527344 7.195312 C 6.734375 7.808594 7.492188 9.230469 10.070312 9.230469 C 13.269531 9.230469 13.714844 10.71875 13.953125 11.519531 C 13.992188 11.652344 14.050781 11.839844 14.089844 11.890625 C 14.101562 11.890625 14.113281 11.890625 14.121094 11.890625 C 14.710938 11.890625 15.226562 10.707031 15.226562 9.355469 C 15.226562 7.5625 14.386719 5.644531 12.035156 5.644531 C 11.851562 5.644531 11.660156 5.65625 11.464844 5.679688 C 11.042969 5.730469 10.609375 5.757812 10.175781 5.757812 C 8.808594 5.757812 7.410156 5.503906 6.878906 4.953125 C 6.398438 5.507812 6.253906 6.378906 6.527344 7.195312 Z M 6.527344 7.195312 " fill-opacity="1" fill-rule="nonzero"/><path fill="#000000" d="M 0 31.253906 C 1.207031 32.117188 2.496094 32.816406 3.851562 33.34375 L 5.097656 25.292969 C 5.125 25.128906 5.277344 25.019531 5.441406 25.042969 C 5.601562 25.070312 5.714844 25.222656 5.691406 25.386719 L 4.425781 33.554688 C 6.265625 34.199219 8.210938 34.53125 10.207031 34.53125 C 12.203125 34.53125 14.148438 34.199219 15.988281 33.554688 L 14.726562 25.386719 C 14.699219 25.222656 14.8125 25.070312 14.972656 25.042969 C 15.136719 25.019531 15.289062 25.128906 15.316406 25.292969 L 16.5625 33.34375 C 17.917969 32.816406 19.210938 32.117188 20.414062 31.253906 L 18.164062 22.382812 C 17.625 20.261719 15.4375 18.527344 13.246094 18.460938 L 12.6875 21.375 C 12.664062 21.480469 12.585938 21.570312 12.480469 21.601562 C 12.453125 21.613281 12.421875 21.617188 12.390625 21.617188 C 12.316406 21.617188 12.242188 21.585938 12.183594 21.53125 L 11.460938 20.828125 L 11.039062 21.675781 L 11.992188 29.40625 C 12 29.46875 11.988281 29.53125 11.957031 29.585938 L 10.46875 32.300781 C 10.417969 32.394531 10.316406 32.457031 10.207031 32.457031 C 10.097656 32.457031 9.996094 32.394531 9.945312 32.300781 L 8.457031 29.585938 C 8.425781 29.53125 8.414062 29.46875 8.421875 29.40625 L 9.375 21.675781 L 8.953125 20.828125 L 8.230469 21.53125 C 8.171875 21.585938 8.097656 21.617188 8.019531 21.617188 C 7.992188 21.617188 7.960938 21.613281 7.929688 21.601562 C 7.828125 21.570312 7.75 21.480469 7.726562 21.375 L 7.167969 18.460938 C 4.976562 18.527344 2.789062 20.261719 2.25 22.382812 Z M 0 31.253906 " fill-opacity="1" fill-rule="nonzero"/><path fill="#000000" d="M 7.753906 18.347656 L 8.210938 20.71875 L 9.761719 19.21875 L 8.4375 18.089844 Z M 7.753906 18.347656 " fill-opacity="1" fill-rule="nonzero"/><path fill="#000000" d="M 12.203125 20.71875 L 12.660156 18.347656 L 11.976562 18.089844 L 10.652344 19.21875 Z M 12.203125 20.71875 " fill-opacity="1" fill-rule="nonzero"/><path fill="#000000" d="M 20.539062 13.664062 C 21.382812 14.101562 22.296875 14.324219 23.253906 14.324219 C 26.519531 14.324219 29.175781 11.664062 29.175781 8.398438 C 29.175781 5.132812 26.519531 2.476562 23.253906 2.476562 C 19.988281 2.476562 17.332031 5.132812 17.332031 8.398438 C 17.332031 9.851562 17.863281 11.246094 18.824219 12.332031 C 18.90625 12.425781 18.925781 12.5625 18.863281 12.671875 L 17.710938 14.824219 L 20.277344 13.660156 C 20.359375 13.621094 20.457031 13.621094 20.539062 13.664062 Z M 19.140625 8.023438 C 19.328125 7.835938 19.574219 7.734375 19.835938 7.734375 C 20.101562 7.734375 20.347656 7.835938 20.535156 8.023438 L 22.015625 9.503906 L 25.054688 5.25 C 25.238281 4.992188 25.539062 4.839844 25.855469 4.839844 C 26.0625 4.839844 26.261719 4.902344 26.429688 5.023438 C 26.871094 5.335938 26.972656 5.953125 26.660156 6.398438 L 22.945312 11.597656 C 22.777344 11.832031 22.515625 11.984375 22.222656 12.007812 C 22.195312 12.007812 22.167969 12.011719 22.144531 12.011719 C 21.878906 12.011719 21.632812 11.90625 21.445312 11.722656 L 19.140625 9.417969 C 18.757812 9.03125 18.757812 8.40625 19.140625 8.023438 Z M 19.140625 8.023438 " fill-opacity="1" fill-rule="nonzero"/><g clip-path="url(#c1a69838b8)"><path fill="#000000" d="M 36.328125 16.214844 L 32.691406 16.214844 L 32.691406 16.808594 L 36.296875 16.808594 C 36.464844 16.808594 36.597656 16.941406 36.597656 17.105469 L 36.597656 33.636719 C 36.597656 33.804688 36.464844 33.9375 36.296875 33.9375 L 23.855469 33.9375 C 23.6875 33.9375 23.554688 33.804688 23.554688 33.636719 L 23.554688 17.105469 C 23.554688 16.941406 23.6875 16.808594 23.855469 16.808594 L 27.460938 16.808594 L 27.460938 16.214844 L 23.824219 16.214844 C 23.449219 16.214844 23.144531 16.519531 23.144531 16.890625 L 23.144531 33.851562 C 23.144531 34.226562 23.449219 34.527344 23.824219 34.527344 L 36.328125 34.527344 C 36.703125 34.527344 37.007812 34.226562 37.007812 33.851562 L 37.007812 16.890625 C 37.007812 16.519531 36.703125 16.214844 36.328125 16.214844 Z M 36.328125 16.214844 " fill-opacity="1" fill-rule="nonzero"/></g><path fill="#000000" d="M 24.152344 17.40625 L 24.152344 33.339844 L 36 33.339844 L 36 17.40625 L 32.691406 17.40625 L 32.691406 17.613281 C 32.691406 17.777344 32.558594 17.914062 32.394531 17.914062 L 27.757812 17.914062 C 27.59375 17.914062 27.460938 17.777344 27.460938 17.613281 L 27.460938 17.40625 Z M 28.480469 20.148438 L 34.75 20.148438 C 34.914062 20.148438 35.050781 20.285156 35.050781 20.449219 C 35.050781 20.613281 34.914062 20.746094 34.75 20.746094 L 28.480469 20.746094 C 28.3125 20.746094 28.179688 20.613281 28.179688 20.449219 C 28.179688 20.285156 28.3125 20.148438 28.480469 20.148438 Z M 28.316406 24.578125 L 34.585938 24.578125 C 34.75 24.578125 34.886719 24.710938 34.886719 24.875 C 34.886719 25.042969 34.75 25.175781 34.585938 25.175781 L 28.316406 25.175781 C 28.148438 25.175781 28.015625 25.042969 28.015625 24.875 C 28.015625 24.710938 28.148438 24.578125 28.316406 24.578125 Z M 28.316406 29.5 L 34.585938 29.5 C 34.75 29.5 34.886719 29.636719 34.886719 29.800781 C 34.886719 29.964844 34.75 30.097656 34.585938 30.097656 L 28.316406 30.097656 C 28.148438 30.097656 28.015625 29.964844 28.015625 29.800781 C 28.015625 29.636719 28.148438 29.5 28.316406 29.5 Z M 27.242188 30.589844 C 27.242188 30.753906 27.105469 30.890625 26.941406 30.890625 L 25.359375 30.890625 C 25.195312 30.890625 25.0625 30.753906 25.0625 30.589844 L 25.0625 29.011719 C 25.0625 28.84375 25.195312 28.710938 25.359375 28.710938 L 26.941406 28.710938 C 27.105469 28.710938 27.242188 28.84375 27.242188 29.011719 Z M 27.242188 25.667969 C 27.242188 25.832031 27.105469 25.964844 26.941406 25.964844 L 25.359375 25.964844 C 25.195312 25.964844 25.0625 25.832031 25.0625 25.667969 L 25.0625 24.085938 C 25.0625 23.921875 25.195312 23.789062 25.359375 23.789062 L 26.941406 23.789062 C 27.105469 23.789062 27.242188 23.921875 27.242188 24.085938 Z M 27.402344 21.238281 C 27.402344 21.402344 27.269531 21.539062 27.105469 21.539062 L 25.523438 21.539062 C 25.359375 21.539062 25.226562 21.402344 25.226562 21.238281 L 25.226562 19.660156 C 25.226562 19.492188 25.359375 19.359375 25.523438 19.359375 L 27.105469 19.359375 C 27.269531 19.359375 27.402344 19.492188 27.402344 19.660156 Z M 27.402344 21.238281 " fill-opacity="1" fill-rule="nonzero"/><path fill="#000000" d="M 28.058594 17.316406 L 32.09375 17.316406 L 32.09375 15.675781 L 31.042969 15.675781 C 30.878906 15.675781 30.742188 15.542969 30.742188 15.378906 C 30.742188 15.007812 30.445312 14.710938 30.078125 14.710938 C 29.707031 14.710938 29.410156 15.007812 29.410156 15.378906 C 29.410156 15.542969 29.273438 15.675781 29.109375 15.675781 L 28.058594 15.675781 Z M 28.058594 17.316406 " fill-opacity="1" fill-rule="nonzero"/><path fill="#000000" d="M 25.824219 19.957031 L 26.804688 19.957031 L 26.804688 20.941406 L 25.824219 20.941406 Z M 25.824219 19.957031 " fill-opacity="1" fill-rule="nonzero"/><path fill="#000000" d="M 25.660156 24.386719 L 26.644531 24.386719 L 26.644531 25.367188 L 25.660156 25.367188 Z M 25.660156 24.386719 " fill-opacity="1" fill-rule="nonzero"/><path fill="#000000" d="M 25.660156 29.308594 L 26.644531 29.308594 L 26.644531 30.292969 L 25.660156 30.292969 Z M 25.660156 29.308594 " fill-opacity="1" fill-rule="nonzero"/></svg>