<svg xmlns="http://www.w3.org/2000/svg" xmlns:xlink="http://www.w3.org/1999/xlink" width="410" zoomAndPan="magnify" viewBox="0 0 307.5 370.499997" height="494" preserveAspectRatio="xMidYMid meet" version="1.0"><defs><clipPath id="b061bb2cdf"><path d="M 0 0.0507812 L 307 0.0507812 L 307 369.949219 L 0 369.949219 Z M 0 0.0507812 " clip-rule="nonzero"/></clipPath><clipPath id="39b9e8f7b4"><path d="M 0 30.75 L 307 30.75 L 307 304.804688 L 0 304.804688 Z M 0 30.75 " clip-rule="nonzero"/></clipPath></defs><g clip-path="url(#b061bb2cdf)"><path fill="#ffffff" d="M 0 0.0507812 L 307 0.0507812 L 307 369.949219 L 0 369.949219 Z M 0 0.0507812 " fill-opacity="1" fill-rule="nonzero"/><path fill="#115d9c" d="M 0 0.0507812 L 307 0.0507812 L 307 369.949219 L 0 369.949219 Z M 0 0.0507812 " fill-opacity="1" fill-rule="nonzero"/></g><g clip-path="url(#39b9e8f7b4)"><path fill="#045c9b" d="M -40.519531 30.75 L 347.855469 30.75 L 347.855469 304.804688 L -40.519531 304.804688 Z M -40.519531 30.75 " fill-opacity="1" fill-rule="nonzero"/></g><path fill="#ffffff" d="M 103.59375 118.21875 C 106.867188 118.21875 109.683594 120.9375 109.683594 124.25 C 109.683594 127.519531 106.914062 130.097656 103.59375 130.097656 C 100.179688 130.097656 97.503906 127.519531 97.503906 124.25 C 97.503906 120.9375 100.179688 118.21875 103.59375 118.21875 Z M 98.75 139.441406 C 98.75 138.109375 99.210938 137.648438 100.59375 137.648438 L 106.820312 137.648438 C 108.207031 137.648438 108.667969 138.109375 108.667969 139.441406 L 108.667969 178.894531 C 108.667969 180.230469 108.207031 180.691406 106.820312 180.691406 L 100.59375 180.691406 C 99.210938 180.691406 98.75 180.230469 98.75 178.894531 Z M 98.75 139.441406 " fill-opacity="1" fill-rule="nonzero"/><path fill="#ffffff" d="M 143.355469 181.613281 C 131.039062 181.152344 121.167969 171.207031 121.167969 159.238281 C 121.167969 147.175781 131.039062 137.1875 143.355469 136.773438 L 143.355469 145.382812 C 136.761719 145.703125 130.992188 151.414062 130.992188 159.238281 C 130.992188 166.742188 136.574219 172.773438 143.355469 173.1875 Z M 144.789062 173.140625 C 151.707031 172.636719 157.148438 166.742188 157.148438 159.191406 C 157.148438 151.6875 151.707031 145.796875 144.789062 145.335938 L 144.789062 136.726562 C 157.289062 137.1875 166.976562 147.316406 166.976562 159.191406 C 166.976562 171.070312 157.335938 181.058594 144.789062 181.566406 Z M 144.789062 173.140625 " fill-opacity="1" fill-rule="nonzero"/><path fill="#ffffff" d="M 178.507812 120.0625 C 178.507812 118.726562 178.96875 118.265625 180.355469 118.265625 L 186.582031 118.265625 C 188.011719 118.265625 188.425781 118.726562 188.425781 120.0625 L 188.425781 178.894531 C 188.425781 180.230469 187.964844 180.691406 186.582031 180.691406 L 180.355469 180.691406 C 178.96875 180.691406 178.507812 180.230469 178.507812 178.894531 Z M 178.507812 120.0625 " fill-opacity="1" fill-rule="nonzero"/><path fill="#ffffff" d="M 209.921875 159.5625 C 209.921875 167.386719 215.734375 173.371094 223.300781 173.371094 C 226.4375 173.371094 230.683594 172.679688 235.203125 170.148438 C 236.585938 169.550781 236.910156 169.183594 237.878906 170.332031 L 240.371094 173.371094 C 241.246094 174.382812 241.429688 174.890625 240.648438 175.765625 C 236.585938 179.539062 229.4375 181.660156 223.023438 181.660156 C 209.921875 181.660156 199.773438 171.578125 199.773438 159.285156 C 199.773438 147.546875 209.324219 137.234375 221.640625 136.820312 L 221.640625 144.644531 C 214.722656 145.105469 209.921875 150.859375 209.921875 158.960938 Z M 211.769531 156.015625 L 234.140625 156.015625 C 233.542969 151 230.128906 145.058594 223.117188 144.644531 L 223.117188 136.679688 C 237.046875 137.003906 244.199219 148.097656 244.199219 160.4375 C 244.199219 161.769531 243.921875 162.277344 242.492188 162.277344 L 211.769531 162.277344 C 211.355469 160.4375 211.355469 157.949219 211.769531 156.015625 Z M 211.769531 156.015625 " fill-opacity="1" fill-rule="nonzero"/><path fill="#ffffff" d="M 273.351562 145.335938 C 266.339844 145.796875 260.988281 151.734375 260.988281 159.191406 C 260.988281 166.695312 266.339844 172.589844 273.351562 173.003906 L 273.351562 181.613281 C 260.527344 181.152344 251.164062 171.023438 251.164062 159.238281 C 251.164062 147.359375 260.714844 137.1875 273.351562 136.773438 Z M 274.875 136.773438 C 280.640625 136.957031 286.085938 139.210938 290.144531 143.125 C 290.929688 143.910156 290.746094 144.277344 289.867188 145.289062 L 286.640625 148.695312 C 285.671875 149.710938 285.070312 149.984375 284.007812 149.019531 C 281.378906 146.578125 277.78125 145.472656 274.828125 145.382812 L 274.828125 136.773438 Z M 274.875 173.003906 C 278.519531 172.820312 281.75 171.578125 284.054688 169.367188 C 285.117188 168.398438 285.714844 168.675781 286.683594 169.6875 L 289.914062 173.09375 C 290.789062 174.109375 290.976562 174.523438 290.191406 175.257812 C 286.132812 179.171875 280.6875 181.429688 274.921875 181.613281 L 274.921875 173.003906 Z M 274.875 173.003906 " fill-opacity="1" fill-rule="nonzero"/><path fill="#e9a822" d="M 58.199219 139.441406 C 62.027344 139.398438 64.890625 136.773438 64.796875 133.273438 C 64.75 129.820312 61.9375 127.242188 58.292969 127.242188 C 50.3125 127.242188 42.332031 127.242188 34.351562 127.242188 C 31.582031 127.242188 29 127.980469 26.601562 129.269531 C 21.757812 131.9375 18.527344 135.898438 17.421875 141.332031 C 16.730469 143.125 16.683594 145.011719 16.683594 146.855469 C 16.730469 156.476562 16.773438 166.097656 16.914062 175.765625 C 16.960938 179.308594 19.402344 181.886719 22.773438 181.886719 C 26.183594 181.886719 28.628906 179.402344 28.628906 175.8125 C 28.722656 165.222656 28.816406 154.589844 28.90625 144.046875 C 28.859375 144.09375 28.859375 144.140625 28.816406 144.277344 C 28.816406 144.230469 28.859375 144.09375 28.90625 144.046875 C 29.644531 141.5625 31.8125 139.855469 34.488281 139.765625 C 42.378906 139.257812 50.265625 139.535156 58.199219 139.441406 Z M 58.199219 139.441406 " fill-opacity="1" fill-rule="nonzero"/><path fill="#e9a822" d="M 87.171875 124.296875 C 84.679688 112.878906 72.410156 102.9375 60.183594 102.707031 C 47.820312 102.523438 35.410156 102.660156 23.046875 102.660156 C 21.894531 102.660156 20.835938 102.890625 19.820312 103.488281 C 17.421875 104.871094 16.3125 107.722656 17.097656 110.578125 C 17.789062 113.15625 20.003906 114.859375 22.957031 114.859375 C 34.535156 114.90625 46.160156 114.859375 57.738281 114.90625 C 59.816406 114.90625 61.84375 115.089844 63.875 115.6875 C 69.546875 117.484375 73.191406 121.351562 75.546875 126.507812 C 77.4375 132.398438 77.160156 138.015625 73.882812 143.449219 C 69.964844 149.109375 64.613281 152.011719 57.554688 151.871094 C 53.910156 151.828125 50.3125 151.78125 46.667969 151.871094 C 43.117188 151.964844 40.855469 154.589844 40.902344 158.273438 C 40.945312 161.679688 43.300781 163.933594 46.757812 164.027344 C 51.1875 164.074219 55.570312 164.117188 60 164.027344 C 70.886719 163.65625 78.683594 158.273438 84.21875 149.433594 C 88.785156 141.421875 90.078125 133.089844 87.171875 124.296875 Z M 87.171875 124.296875 " fill-opacity="1" fill-rule="nonzero"/><path fill="#ffffff" d="M 11.5625 199.613281 L 14.191406 199.613281 L 14.191406 212.320312 L 11.5625 212.320312 Z M 11.5625 199.613281 " fill-opacity="1" fill-rule="nonzero"/><path fill="#ffffff" d="M 15.804688 212.320312 L 15.804688 203.339844 L 17.972656 203.339844 L 17.972656 204.492188 C 18.203125 204.03125 18.480469 203.710938 18.757812 203.480469 C 19.082031 203.296875 19.449219 203.15625 19.910156 203.15625 C 20.558594 203.15625 20.972656 203.339844 21.203125 203.753906 C 21.433594 204.125 21.574219 204.859375 21.574219 205.917969 L 21.574219 212.320312 L 19.265625 212.320312 L 19.265625 206.058594 C 19.265625 205.734375 19.21875 205.503906 19.128906 205.414062 C 19.035156 205.320312 18.898438 205.230469 18.667969 205.230469 C 18.433594 205.230469 18.296875 205.273438 18.203125 205.414062 C 18.113281 205.503906 18.066406 205.734375 18.066406 206.058594 L 18.066406 212.320312 Z M 15.804688 212.320312 " fill-opacity="1" fill-rule="nonzero"/><path fill="#ffffff" d="M 22.816406 209.511719 L 24.894531 209.511719 C 24.894531 209.972656 24.941406 210.292969 25.03125 210.429688 C 25.125 210.570312 25.308594 210.660156 25.539062 210.660156 C 25.769531 210.660156 25.910156 210.613281 26 210.523438 C 26.09375 210.429688 26.140625 210.246094 26.140625 210.015625 L 26.140625 209.464844 C 26.140625 209.050781 25.769531 208.773438 24.984375 208.636719 C 24.710938 208.589844 24.480469 208.542969 24.292969 208.496094 C 23.695312 208.359375 23.324219 208.128906 23.140625 207.898438 C 22.957031 207.667969 22.863281 207.253906 22.863281 206.75 L 22.863281 205.6875 C 22.863281 204.816406 23.046875 204.171875 23.371094 203.753906 C 23.742188 203.386719 24.292969 203.15625 25.078125 203.15625 L 26.140625 203.15625 C 26.878906 203.15625 27.429688 203.296875 27.707031 203.617188 C 28.03125 203.941406 28.167969 204.492188 28.167969 205.320312 L 28.167969 205.964844 L 26.140625 205.964844 L 26.140625 205.460938 C 26.140625 205.230469 26.09375 205.089844 26 205 C 25.910156 204.90625 25.769531 204.859375 25.539062 204.859375 C 25.355469 204.859375 25.171875 204.90625 25.078125 205 C 24.984375 205.089844 24.894531 205.230469 24.894531 205.414062 L 24.894531 205.917969 C 24.894531 206.242188 25.171875 206.472656 25.769531 206.609375 C 26.09375 206.703125 26.371094 206.75 26.601562 206.792969 C 27.246094 206.933594 27.660156 207.117188 27.9375 207.394531 C 28.167969 207.667969 28.308594 208.128906 28.308594 208.773438 L 28.308594 209.832031 C 28.308594 210.800781 28.121094 211.488281 27.753906 211.859375 C 27.386719 212.226562 26.691406 212.410156 25.679688 212.410156 L 25.078125 212.410156 C 24.203125 212.410156 23.601562 212.226562 23.277344 211.902344 C 22.957031 211.582031 22.773438 210.984375 22.773438 210.109375 Z M 22.816406 209.511719 " fill-opacity="1" fill-rule="nonzero"/><path fill="#ffffff" d="M 29.828125 205.320312 L 29.136719 205.320312 L 29.136719 203.339844 L 29.828125 203.339844 L 29.828125 200.949219 L 32.136719 200.949219 L 32.136719 203.339844 L 33.429688 203.339844 L 33.429688 205.320312 L 32.136719 205.320312 L 32.136719 209.511719 C 32.136719 209.832031 32.226562 210.109375 32.367188 210.246094 C 32.503906 210.386719 32.734375 210.476562 33.011719 210.476562 C 33.105469 210.476562 33.152344 210.476562 33.195312 210.476562 C 33.242188 210.476562 33.289062 210.476562 33.289062 210.476562 L 33.289062 212.410156 C 33.058594 212.457031 32.828125 212.503906 32.644531 212.503906 C 32.460938 212.503906 32.226562 212.546875 32.089844 212.546875 C 31.214844 212.546875 30.613281 212.363281 30.292969 211.996094 C 29.96875 211.628906 29.828125 210.890625 29.828125 209.785156 Z M 29.828125 205.320312 " fill-opacity="1" fill-rule="nonzero"/><path fill="#ffffff" d="M 37.855469 212.320312 L 37.855469 211.582031 C 37.671875 211.902344 37.488281 212.132812 37.210938 212.273438 C 36.933594 212.410156 36.609375 212.457031 36.148438 212.457031 C 35.457031 212.457031 34.996094 212.273438 34.765625 211.902344 C 34.488281 211.535156 34.351562 210.9375 34.351562 210.015625 L 34.351562 208.910156 C 34.351562 208.175781 34.488281 207.621094 34.8125 207.253906 C 35.132812 206.886719 35.597656 206.703125 36.242188 206.703125 C 36.519531 206.703125 36.796875 206.75 37.070312 206.839844 C 37.347656 206.933594 37.578125 207.070312 37.765625 207.207031 L 37.765625 205.875 C 37.765625 205.503906 37.71875 205.273438 37.671875 205.136719 C 37.578125 205 37.441406 204.953125 37.210938 204.953125 C 36.980469 204.953125 36.839844 205 36.796875 205.136719 C 36.703125 205.273438 36.703125 205.503906 36.703125 205.875 L 34.671875 205.875 L 34.671875 205.230469 C 34.671875 204.398438 34.859375 203.847656 35.226562 203.570312 C 35.597656 203.296875 36.335938 203.109375 37.441406 203.109375 C 38.546875 203.109375 39.285156 203.25 39.65625 203.570312 C 40.023438 203.847656 40.210938 204.445312 40.210938 205.230469 L 40.210938 212.226562 L 37.855469 212.226562 Z M 37.765625 209.925781 L 37.765625 208.957031 C 37.765625 208.773438 37.71875 208.589844 37.625 208.496094 C 37.535156 208.40625 37.394531 208.3125 37.210938 208.3125 C 37.027344 208.3125 36.886719 208.359375 36.796875 208.496094 C 36.703125 208.589844 36.65625 208.773438 36.65625 208.957031 L 36.65625 209.925781 C 36.65625 210.109375 36.703125 210.292969 36.796875 210.386719 C 36.886719 210.476562 37.027344 210.523438 37.210938 210.523438 C 37.394531 210.523438 37.535156 210.476562 37.625 210.386719 C 37.671875 210.292969 37.765625 210.15625 37.765625 209.925781 Z M 37.765625 209.925781 " fill-opacity="1" fill-rule="nonzero"/><path fill="#ffffff" d="M 41.546875 199.382812 L 43.851562 199.382812 L 43.851562 212.320312 L 41.546875 212.320312 Z M 41.546875 199.382812 " fill-opacity="1" fill-rule="nonzero"/><path fill="#ffffff" d="M 45.375 199.382812 L 47.683594 199.382812 L 47.683594 212.320312 L 45.375 212.320312 Z M 45.375 199.382812 " fill-opacity="1" fill-rule="nonzero"/><path fill="#ffffff" d="M 52.480469 212.320312 L 52.480469 211.582031 C 52.296875 211.902344 52.109375 212.132812 51.835938 212.273438 C 51.558594 212.410156 51.234375 212.457031 50.773438 212.457031 C 50.082031 212.457031 49.621094 212.273438 49.390625 211.902344 C 49.113281 211.535156 48.972656 210.9375 48.972656 210.015625 L 48.972656 208.910156 C 48.972656 208.175781 49.113281 207.621094 49.433594 207.253906 C 49.757812 206.886719 50.21875 206.703125 50.867188 206.703125 C 51.140625 206.703125 51.417969 206.75 51.695312 206.839844 C 51.972656 206.933594 52.203125 207.070312 52.386719 207.207031 L 52.386719 205.875 C 52.386719 205.503906 52.339844 205.273438 52.296875 205.136719 C 52.203125 205 52.066406 204.953125 51.835938 204.953125 C 51.601562 204.953125 51.464844 205 51.417969 205.136719 C 51.328125 205.273438 51.328125 205.503906 51.328125 205.875 L 49.296875 205.875 L 49.296875 205.230469 C 49.296875 204.398438 49.480469 203.847656 49.851562 203.570312 C 50.21875 203.296875 50.957031 203.109375 52.066406 203.109375 C 53.171875 203.109375 53.910156 203.25 54.277344 203.570312 C 54.648438 203.847656 54.832031 204.445312 54.832031 205.230469 L 54.832031 212.226562 L 52.480469 212.226562 Z M 52.386719 209.925781 L 52.386719 208.957031 C 52.386719 208.773438 52.339844 208.589844 52.25 208.496094 C 52.15625 208.40625 52.019531 208.3125 51.835938 208.3125 C 51.648438 208.3125 51.511719 208.359375 51.417969 208.496094 C 51.328125 208.589844 51.28125 208.773438 51.28125 208.957031 L 51.28125 209.925781 C 51.28125 210.109375 51.328125 210.292969 51.417969 210.386719 C 51.511719 210.476562 51.648438 210.523438 51.835938 210.523438 C 52.019531 210.523438 52.15625 210.476562 52.25 210.386719 C 52.296875 210.292969 52.386719 210.15625 52.386719 209.925781 Z M 52.386719 209.925781 " fill-opacity="1" fill-rule="nonzero"/><path fill="#ffffff" d="M 56.402344 205.320312 L 55.710938 205.320312 L 55.710938 203.339844 L 56.402344 203.339844 L 56.402344 200.949219 L 58.707031 200.949219 L 58.707031 203.339844 L 60 203.339844 L 60 205.320312 L 58.707031 205.320312 L 58.707031 209.511719 C 58.707031 209.832031 58.800781 210.109375 58.9375 210.246094 C 59.078125 210.386719 59.308594 210.476562 59.582031 210.476562 C 59.675781 210.476562 59.722656 210.476562 59.769531 210.476562 C 59.816406 210.476562 59.859375 210.476562 59.859375 210.476562 L 59.859375 212.410156 C 59.628906 212.457031 59.398438 212.503906 59.214844 212.503906 C 59.03125 212.503906 58.800781 212.546875 58.660156 212.546875 C 57.785156 212.546875 57.183594 212.363281 56.863281 211.996094 C 56.539062 211.628906 56.402344 210.890625 56.402344 209.785156 Z M 56.402344 205.320312 " fill-opacity="1" fill-rule="nonzero"/><path fill="#ffffff" d="M 61.058594 201.453125 L 61.058594 199.382812 L 63.367188 199.382812 L 63.367188 201.453125 Z M 63.367188 212.320312 L 61.058594 212.320312 L 61.058594 203.339844 L 63.367188 203.339844 Z M 63.367188 212.320312 " fill-opacity="1" fill-rule="nonzero"/><path fill="#ffffff" d="M 64.660156 206.75 C 64.660156 205.367188 64.890625 204.445312 65.304688 203.941406 C 65.71875 203.433594 66.503906 203.203125 67.703125 203.203125 C 68.902344 203.203125 69.6875 203.433594 70.101562 203.941406 C 70.515625 204.445312 70.746094 205.367188 70.746094 206.75 L 70.746094 208.957031 C 70.746094 210.339844 70.515625 211.257812 70.101562 211.765625 C 69.6875 212.273438 68.902344 212.503906 67.703125 212.503906 C 66.503906 212.503906 65.71875 212.273438 65.304688 211.765625 C 64.890625 211.257812 64.660156 210.339844 64.660156 208.957031 Z M 67.011719 206.058594 L 67.011719 209.601562 C 67.011719 209.972656 67.058594 210.199219 67.148438 210.292969 C 67.242188 210.429688 67.425781 210.476562 67.65625 210.476562 C 67.933594 210.476562 68.070312 210.429688 68.164062 210.292969 C 68.257812 210.15625 68.300781 209.925781 68.300781 209.601562 L 68.300781 206.058594 C 68.300781 205.6875 68.257812 205.460938 68.164062 205.320312 C 68.070312 205.183594 67.886719 205.136719 67.65625 205.136719 C 67.378906 205.136719 67.242188 205.183594 67.148438 205.320312 C 67.058594 205.503906 67.011719 205.734375 67.011719 206.058594 Z M 67.011719 206.058594 " fill-opacity="1" fill-rule="nonzero"/><path fill="#ffffff" d="M 71.945312 212.320312 L 71.945312 203.339844 L 74.113281 203.339844 L 74.113281 204.492188 C 74.347656 204.03125 74.621094 203.710938 74.898438 203.480469 C 75.222656 203.296875 75.589844 203.15625 76.050781 203.15625 C 76.699219 203.15625 77.113281 203.339844 77.34375 203.753906 C 77.574219 204.125 77.714844 204.859375 77.714844 205.917969 L 77.714844 212.320312 L 75.40625 212.320312 L 75.40625 206.058594 C 75.40625 205.734375 75.359375 205.503906 75.269531 205.414062 C 75.175781 205.320312 75.039062 205.230469 74.808594 205.230469 C 74.578125 205.230469 74.4375 205.273438 74.347656 205.414062 C 74.253906 205.503906 74.207031 205.734375 74.207031 206.058594 L 74.207031 212.320312 Z M 71.945312 212.320312 " fill-opacity="1" fill-rule="nonzero"/><path fill="#ffffff" d="M 89.382812 212.503906 L 88.921875 211.8125 C 88.785156 212.042969 88.554688 212.226562 88.277344 212.320312 C 88 212.410156 87.632812 212.503906 87.171875 212.503906 L 85.925781 212.503906 C 84.816406 212.503906 84.03125 212.273438 83.617188 211.859375 C 83.203125 211.398438 82.972656 210.617188 82.972656 209.464844 L 82.972656 207.945312 C 82.972656 207.023438 83.109375 206.289062 83.433594 205.828125 C 83.710938 205.367188 84.171875 205.089844 84.816406 205.042969 L 84.539062 204.628906 C 84.171875 204.078125 83.941406 203.617188 83.800781 203.25 C 83.664062 202.882812 83.617188 202.511719 83.617188 202.144531 C 83.617188 201.179688 83.800781 200.488281 84.21875 200.074219 C 84.632812 199.660156 85.324219 199.472656 86.339844 199.472656 C 87.539062 199.472656 88.371094 199.660156 88.785156 199.980469 C 89.199219 200.347656 89.382812 200.992188 89.382812 202.007812 L 89.382812 202.972656 L 87.214844 202.972656 L 87.214844 202.46875 C 87.214844 202.050781 87.171875 201.777344 87.078125 201.636719 C 86.984375 201.5 86.800781 201.453125 86.570312 201.453125 C 86.339844 201.453125 86.15625 201.5 86.0625 201.636719 C 85.96875 201.730469 85.878906 201.914062 85.878906 202.144531 C 85.878906 202.238281 85.925781 202.375 85.96875 202.511719 C 86.015625 202.652344 86.109375 202.835938 86.203125 203.019531 L 87.90625 206.058594 L 87.816406 204.445312 L 89.984375 204.445312 L 89.984375 208.957031 L 91.183594 210.984375 Z M 87.492188 209.417969 L 85.925781 206.886719 C 85.738281 206.886719 85.601562 206.976562 85.507812 207.164062 C 85.417969 207.347656 85.371094 207.578125 85.371094 207.898438 L 85.371094 209.003906 C 85.371094 209.601562 85.417969 209.972656 85.554688 210.109375 C 85.695312 210.246094 86.015625 210.292969 86.476562 210.292969 C 86.9375 210.292969 87.214844 210.246094 87.355469 210.15625 C 87.492188 210.0625 87.539062 209.925781 87.539062 209.648438 C 87.539062 209.601562 87.539062 209.554688 87.539062 209.511719 C 87.539062 209.511719 87.492188 209.464844 87.492188 209.417969 Z M 87.492188 209.417969 " fill-opacity="1" fill-rule="nonzero"/><path fill="#ffffff" d="M 95.796875 212.320312 L 95.796875 199.613281 L 99.625 199.613281 L 101.148438 209.648438 L 102.761719 199.613281 L 106.5 199.613281 L 106.5 212.320312 L 104.101562 212.320312 L 104.238281 201.546875 L 102.484375 212.320312 L 99.578125 212.320312 L 97.871094 201.546875 L 98.058594 212.320312 Z M 95.796875 212.320312 " fill-opacity="1" fill-rule="nonzero"/><path fill="#ffffff" d="M 111.433594 212.320312 L 111.433594 211.582031 C 111.25 211.902344 111.066406 212.132812 110.789062 212.273438 C 110.511719 212.410156 110.1875 212.457031 109.726562 212.457031 C 109.035156 212.457031 108.574219 212.273438 108.34375 211.902344 C 108.066406 211.535156 107.929688 210.9375 107.929688 210.015625 L 107.929688 208.910156 C 107.929688 208.175781 108.066406 207.621094 108.390625 207.253906 C 108.714844 206.886719 109.175781 206.703125 109.820312 206.703125 C 110.097656 206.703125 110.375 206.75 110.652344 206.839844 C 110.925781 206.933594 111.15625 207.070312 111.34375 207.207031 L 111.34375 205.875 C 111.34375 205.503906 111.296875 205.273438 111.25 205.136719 C 111.15625 205 111.019531 204.953125 110.789062 204.953125 C 110.558594 204.953125 110.417969 205 110.375 205.136719 C 110.28125 205.273438 110.28125 205.503906 110.28125 205.875 L 108.25 205.875 L 108.25 205.230469 C 108.25 204.398438 108.4375 203.847656 108.804688 203.570312 C 109.175781 203.296875 109.914062 203.109375 111.019531 203.109375 C 112.125 203.109375 112.863281 203.25 113.234375 203.570312 C 113.601562 203.847656 113.789062 204.445312 113.789062 205.230469 L 113.789062 212.226562 L 111.433594 212.226562 Z M 111.296875 209.925781 L 111.296875 208.957031 C 111.296875 208.773438 111.25 208.589844 111.15625 208.496094 C 111.066406 208.40625 110.925781 208.3125 110.742188 208.3125 C 110.558594 208.3125 110.417969 208.359375 110.328125 208.496094 C 110.234375 208.589844 110.1875 208.773438 110.1875 208.957031 L 110.1875 209.925781 C 110.1875 210.109375 110.234375 210.292969 110.328125 210.386719 C 110.417969 210.476562 110.558594 210.523438 110.742188 210.523438 C 110.925781 210.523438 111.066406 210.476562 111.15625 210.386719 C 111.25 210.292969 111.296875 210.15625 111.296875 209.925781 Z M 111.296875 209.925781 " fill-opacity="1" fill-rule="nonzero"/><path fill="#ffffff" d="M 115.03125 201.453125 L 115.03125 199.382812 L 117.339844 199.382812 L 117.339844 201.453125 Z M 117.339844 212.320312 L 115.03125 212.320312 L 115.03125 203.339844 L 117.339844 203.339844 Z M 117.339844 212.320312 " fill-opacity="1" fill-rule="nonzero"/><path fill="#ffffff" d="M 118.816406 212.320312 L 118.816406 203.339844 L 120.984375 203.339844 L 120.984375 204.492188 C 121.214844 204.03125 121.492188 203.710938 121.769531 203.480469 C 122.089844 203.296875 122.460938 203.15625 122.921875 203.15625 C 123.566406 203.15625 123.980469 203.339844 124.214844 203.753906 C 124.445312 204.125 124.582031 204.859375 124.582031 205.917969 L 124.582031 212.320312 L 122.277344 212.320312 L 122.277344 206.058594 C 122.277344 205.734375 122.230469 205.503906 122.136719 205.414062 C 122.042969 205.320312 121.90625 205.230469 121.675781 205.230469 C 121.445312 205.230469 121.308594 205.273438 121.214844 205.414062 C 121.121094 205.503906 121.074219 205.734375 121.074219 206.058594 L 121.074219 212.320312 Z M 118.816406 212.320312 " fill-opacity="1" fill-rule="nonzero"/><path fill="#ffffff" d="M 126.289062 205.320312 L 125.550781 205.320312 L 125.550781 203.339844 L 126.242188 203.339844 L 126.242188 200.949219 L 128.550781 200.949219 L 128.550781 203.339844 L 129.839844 203.339844 L 129.839844 205.320312 L 128.550781 205.320312 L 128.550781 209.511719 C 128.550781 209.832031 128.640625 210.109375 128.78125 210.246094 C 128.917969 210.386719 129.148438 210.476562 129.425781 210.476562 C 129.519531 210.476562 129.5625 210.476562 129.609375 210.476562 C 129.65625 210.476562 129.703125 210.476562 129.703125 210.476562 L 129.703125 212.410156 C 129.472656 212.457031 129.242188 212.503906 129.058594 212.503906 C 128.871094 212.503906 128.640625 212.546875 128.503906 212.546875 C 127.625 212.546875 127.027344 212.363281 126.703125 211.996094 C 126.382812 211.628906 126.242188 210.890625 126.242188 209.785156 Z M 126.289062 205.320312 " fill-opacity="1" fill-rule="nonzero"/><path fill="#ffffff" d="M 130.761719 206.75 C 130.761719 205.367188 130.992188 204.445312 131.410156 203.941406 C 131.824219 203.433594 132.609375 203.203125 133.808594 203.203125 C 135.007812 203.203125 135.792969 203.433594 136.207031 203.941406 C 136.621094 204.445312 136.851562 205.367188 136.851562 206.75 L 136.851562 208.496094 L 133.164062 208.496094 L 133.164062 209.648438 C 133.164062 210.015625 133.207031 210.246094 133.300781 210.386719 C 133.394531 210.523438 133.578125 210.570312 133.855469 210.570312 C 134.132812 210.570312 134.316406 210.523438 134.40625 210.386719 C 134.5 210.246094 134.546875 210.015625 134.546875 209.695312 L 134.546875 209.511719 L 136.804688 209.511719 L 136.804688 210.109375 C 136.804688 211.03125 136.574219 211.71875 136.160156 212.042969 C 135.746094 212.410156 134.867188 212.546875 133.578125 212.546875 C 132.515625 212.546875 131.777344 212.320312 131.363281 211.8125 C 130.949219 211.304688 130.761719 210.386719 130.761719 209.050781 Z M 133.117188 205.828125 L 133.117188 206.703125 L 134.59375 206.703125 L 134.59375 205.828125 C 134.59375 205.460938 134.546875 205.183594 134.453125 205.089844 C 134.363281 204.953125 134.175781 204.90625 133.855469 204.90625 C 133.578125 204.90625 133.347656 204.953125 133.253906 205.089844 C 133.207031 205.230469 133.117188 205.503906 133.117188 205.828125 Z M 133.117188 205.828125 " fill-opacity="1" fill-rule="nonzero"/><path fill="#ffffff" d="M 138.050781 212.320312 L 138.050781 203.339844 L 140.21875 203.339844 L 140.21875 204.492188 C 140.449219 204.03125 140.726562 203.710938 141.003906 203.480469 C 141.328125 203.296875 141.695312 203.15625 142.15625 203.15625 C 142.804688 203.15625 143.21875 203.339844 143.449219 203.753906 C 143.679688 204.125 143.820312 204.859375 143.820312 205.917969 L 143.820312 212.320312 L 141.511719 212.320312 L 141.511719 206.058594 C 141.511719 205.734375 141.464844 205.503906 141.375 205.414062 C 141.28125 205.320312 141.144531 205.230469 140.914062 205.230469 C 140.679688 205.230469 140.542969 205.273438 140.449219 205.414062 C 140.359375 205.503906 140.3125 205.734375 140.3125 206.058594 L 140.3125 212.320312 Z M 138.050781 212.320312 " fill-opacity="1" fill-rule="nonzero"/><path fill="#ffffff" d="M 148.617188 212.320312 L 148.617188 211.582031 C 148.429688 211.902344 148.246094 212.132812 147.96875 212.273438 C 147.695312 212.410156 147.371094 212.457031 146.910156 212.457031 C 146.21875 212.457031 145.757812 212.273438 145.523438 211.902344 C 145.25 211.535156 145.109375 210.9375 145.109375 210.015625 L 145.109375 208.910156 C 145.109375 208.175781 145.25 207.621094 145.570312 207.253906 C 145.894531 206.886719 146.355469 206.703125 147 206.703125 C 147.277344 206.703125 147.554688 206.75 147.832031 206.839844 C 148.109375 206.933594 148.339844 207.070312 148.523438 207.207031 L 148.523438 205.875 C 148.523438 205.503906 148.476562 205.273438 148.429688 205.136719 C 148.339844 205 148.199219 204.953125 147.96875 204.953125 C 147.738281 204.953125 147.601562 205 147.554688 205.136719 C 147.460938 205.273438 147.460938 205.503906 147.460938 205.875 L 145.433594 205.875 L 145.433594 205.230469 C 145.433594 204.398438 145.617188 203.847656 145.988281 203.570312 C 146.355469 203.296875 147.09375 203.109375 148.199219 203.109375 C 149.308594 203.109375 150.046875 203.25 150.414062 203.570312 C 150.785156 203.847656 150.96875 204.445312 150.96875 205.230469 L 150.96875 212.226562 L 148.617188 212.226562 Z M 148.476562 209.925781 L 148.476562 208.957031 C 148.476562 208.773438 148.429688 208.589844 148.339844 208.496094 C 148.246094 208.40625 148.109375 208.3125 147.925781 208.3125 C 147.738281 208.3125 147.601562 208.359375 147.507812 208.496094 C 147.417969 208.589844 147.371094 208.773438 147.371094 208.957031 L 147.371094 209.925781 C 147.371094 210.109375 147.417969 210.292969 147.507812 210.386719 C 147.601562 210.476562 147.738281 210.523438 147.925781 210.523438 C 148.109375 210.523438 148.246094 210.476562 148.339844 210.386719 C 148.429688 210.292969 148.476562 210.15625 148.476562 209.925781 Z M 148.476562 209.925781 " fill-opacity="1" fill-rule="nonzero"/><path fill="#ffffff" d="M 152.214844 212.320312 L 152.214844 203.339844 L 154.382812 203.339844 L 154.382812 204.492188 C 154.613281 204.03125 154.890625 203.710938 155.167969 203.480469 C 155.488281 203.296875 155.859375 203.15625 156.320312 203.15625 C 156.964844 203.15625 157.378906 203.339844 157.613281 203.753906 C 157.84375 204.125 157.980469 204.859375 157.980469 205.917969 L 157.980469 212.320312 L 155.675781 212.320312 L 155.675781 206.058594 C 155.675781 205.734375 155.628906 205.503906 155.535156 205.414062 C 155.441406 205.320312 155.304688 205.230469 155.074219 205.230469 C 154.84375 205.230469 154.707031 205.273438 154.613281 205.414062 C 154.519531 205.503906 154.476562 205.734375 154.476562 206.058594 L 154.476562 212.320312 Z M 152.214844 212.320312 " fill-opacity="1" fill-rule="nonzero"/><path fill="#ffffff" d="M 164.898438 208.773438 L 164.898438 209.695312 C 164.898438 210.753906 164.714844 211.488281 164.347656 211.902344 C 163.976562 212.320312 163.285156 212.503906 162.269531 212.503906 C 161.070312 212.503906 160.285156 212.273438 159.871094 211.765625 C 159.457031 211.257812 159.226562 210.339844 159.226562 208.957031 L 159.226562 206.75 C 159.226562 205.367188 159.457031 204.445312 159.871094 203.941406 C 160.285156 203.433594 161.117188 203.203125 162.269531 203.203125 C 163.285156 203.203125 163.976562 203.386719 164.347656 203.800781 C 164.714844 204.171875 164.898438 204.90625 164.898438 206.011719 L 164.898438 206.425781 L 162.730469 206.425781 L 162.730469 206.105469 C 162.730469 205.734375 162.6875 205.503906 162.640625 205.367188 C 162.546875 205.230469 162.410156 205.183594 162.179688 205.183594 C 161.949219 205.183594 161.808594 205.230469 161.71875 205.367188 C 161.625 205.503906 161.625 205.734375 161.625 206.105469 L 161.625 209.648438 C 161.625 210.015625 161.671875 210.246094 161.71875 210.339844 C 161.808594 210.476562 161.949219 210.523438 162.179688 210.523438 C 162.410156 210.523438 162.546875 210.476562 162.640625 210.339844 C 162.730469 210.199219 162.730469 209.972656 162.730469 209.648438 L 162.730469 208.820312 Z M 164.898438 208.773438 " fill-opacity="1" fill-rule="nonzero"/><path fill="#ffffff" d="M 165.914062 206.75 C 165.914062 205.367188 166.144531 204.445312 166.5625 203.941406 C 166.976562 203.433594 167.761719 203.203125 168.960938 203.203125 C 170.160156 203.203125 170.941406 203.433594 171.359375 203.941406 C 171.773438 204.445312 172.003906 205.367188 172.003906 206.75 L 172.003906 208.496094 L 168.3125 208.496094 L 168.3125 209.648438 C 168.3125 210.015625 168.359375 210.246094 168.453125 210.386719 C 168.542969 210.523438 168.730469 210.570312 169.003906 210.570312 C 169.28125 210.570312 169.46875 210.523438 169.558594 210.386719 C 169.652344 210.246094 169.699219 210.015625 169.699219 209.695312 L 169.699219 209.511719 L 171.957031 209.511719 L 171.957031 210.109375 C 171.957031 211.03125 171.726562 211.71875 171.3125 212.042969 C 170.898438 212.410156 170.019531 212.546875 168.730469 212.546875 C 167.667969 212.546875 166.929688 212.320312 166.515625 211.8125 C 166.097656 211.304688 165.914062 210.386719 165.914062 209.050781 Z M 168.3125 205.828125 L 168.3125 206.703125 L 169.789062 206.703125 L 169.789062 205.828125 C 169.789062 205.460938 169.742188 205.183594 169.652344 205.089844 C 169.558594 204.953125 169.375 204.90625 169.050781 204.90625 C 168.773438 204.90625 168.542969 204.953125 168.453125 205.089844 C 168.359375 205.230469 168.3125 205.503906 168.3125 205.828125 Z M 168.3125 205.828125 " fill-opacity="1" fill-rule="nonzero"/><path fill="#ffffff" d="M 177.261719 212.320312 L 177.261719 199.613281 L 182.246094 199.613281 L 182.246094 201.914062 L 179.890625 201.914062 L 179.890625 204.722656 L 182.105469 204.722656 L 182.105469 206.933594 L 179.890625 206.933594 L 179.890625 210.109375 L 182.476562 210.109375 L 182.476562 212.410156 L 177.261719 212.410156 Z M 177.261719 212.320312 " fill-opacity="1" fill-rule="nonzero"/><path fill="#ffffff" d="M 183.628906 199.382812 L 185.9375 199.382812 L 185.9375 212.320312 L 183.628906 212.320312 Z M 183.628906 199.382812 " fill-opacity="1" fill-rule="nonzero"/><path fill="#ffffff" d="M 187.226562 206.75 C 187.226562 205.367188 187.457031 204.445312 187.875 203.941406 C 188.289062 203.433594 189.074219 203.203125 190.273438 203.203125 C 191.472656 203.203125 192.253906 203.433594 192.671875 203.941406 C 193.085938 204.445312 193.316406 205.367188 193.316406 206.75 L 193.316406 208.496094 L 189.625 208.496094 L 189.625 209.648438 C 189.625 210.015625 189.671875 210.246094 189.765625 210.386719 C 189.855469 210.523438 190.042969 210.570312 190.316406 210.570312 C 190.59375 210.570312 190.78125 210.523438 190.871094 210.386719 C 190.964844 210.246094 191.011719 210.015625 191.011719 209.695312 L 191.011719 209.511719 L 193.269531 209.511719 L 193.269531 210.109375 C 193.269531 211.03125 193.039062 211.71875 192.625 212.042969 C 192.210938 212.410156 191.332031 212.546875 190.042969 212.546875 C 188.980469 212.546875 188.242188 212.320312 187.828125 211.8125 C 187.410156 211.304688 187.226562 210.386719 187.226562 209.050781 Z M 189.625 205.828125 L 189.625 206.703125 L 191.101562 206.703125 L 191.101562 205.828125 C 191.101562 205.460938 191.054688 205.183594 190.964844 205.089844 C 190.871094 204.953125 190.6875 204.90625 190.363281 204.90625 C 190.085938 204.90625 189.855469 204.953125 189.765625 205.089844 C 189.671875 205.230469 189.625 205.503906 189.625 205.828125 Z M 189.625 205.828125 " fill-opacity="1" fill-rule="nonzero"/><path fill="#ffffff" d="M 200.003906 208.773438 L 200.003906 209.695312 C 200.003906 210.753906 199.820312 211.488281 199.453125 211.902344 C 199.082031 212.273438 198.390625 212.503906 197.375 212.503906 C 196.175781 212.503906 195.390625 212.273438 194.976562 211.765625 C 194.5625 211.257812 194.332031 210.339844 194.332031 208.957031 L 194.332031 206.75 C 194.332031 205.367188 194.5625 204.445312 194.976562 203.941406 C 195.390625 203.433594 196.222656 203.203125 197.375 203.203125 C 198.390625 203.203125 199.082031 203.386719 199.453125 203.800781 C 199.820312 204.171875 200.003906 204.90625 200.003906 206.011719 L 200.003906 206.425781 L 197.835938 206.425781 L 197.835938 206.105469 C 197.835938 205.734375 197.792969 205.503906 197.746094 205.367188 C 197.652344 205.230469 197.515625 205.183594 197.285156 205.183594 C 197.054688 205.183594 196.914062 205.230469 196.824219 205.367188 C 196.730469 205.503906 196.730469 205.734375 196.730469 206.105469 L 196.730469 209.648438 C 196.730469 210.015625 196.777344 210.246094 196.824219 210.339844 C 196.867188 210.429688 197.054688 210.523438 197.285156 210.523438 C 197.515625 210.523438 197.652344 210.476562 197.746094 210.339844 C 197.835938 210.199219 197.835938 209.972656 197.835938 209.648438 L 197.835938 208.820312 Z M 200.003906 208.773438 " fill-opacity="1" fill-rule="nonzero"/><path fill="#ffffff" d="M 201.480469 205.320312 L 200.789062 205.320312 L 200.789062 203.339844 L 201.480469 203.339844 L 201.480469 200.949219 L 203.789062 200.949219 L 203.789062 203.339844 L 205.078125 203.339844 L 205.078125 205.320312 L 203.789062 205.320312 L 203.789062 209.511719 C 203.789062 209.832031 203.878906 210.109375 204.019531 210.246094 C 204.15625 210.386719 204.386719 210.476562 204.664062 210.476562 C 204.757812 210.476562 204.804688 210.476562 204.847656 210.476562 C 204.894531 210.476562 204.941406 210.476562 204.941406 210.476562 L 204.941406 212.410156 C 204.710938 212.457031 204.480469 212.503906 204.296875 212.503906 C 204.109375 212.503906 203.878906 212.546875 203.742188 212.546875 C 202.867188 212.546875 202.265625 212.363281 201.941406 211.996094 C 201.621094 211.628906 201.480469 210.890625 201.480469 209.785156 Z M 201.480469 205.320312 " fill-opacity="1" fill-rule="nonzero"/><path fill="#ffffff" d="M 206.140625 212.320312 L 206.140625 203.339844 L 208.308594 203.339844 L 208.308594 204.308594 C 208.492188 203.894531 208.722656 203.617188 209 203.433594 C 209.277344 203.25 209.601562 203.15625 209.96875 203.15625 C 210.429688 203.15625 210.800781 203.296875 210.984375 203.570312 C 211.167969 203.847656 211.308594 204.308594 211.308594 205 L 211.308594 206.976562 L 209.371094 206.976562 L 209.371094 206.058594 C 209.371094 205.734375 209.324219 205.503906 209.277344 205.414062 C 209.230469 205.320312 209.09375 205.230469 208.910156 205.230469 C 208.722656 205.230469 208.585938 205.273438 208.539062 205.414062 C 208.492188 205.503906 208.449219 205.734375 208.449219 206.058594 L 208.449219 212.320312 Z M 206.140625 212.320312 " fill-opacity="1" fill-rule="nonzero"/><path fill="#ffffff" d="M 212.230469 201.453125 L 212.230469 199.382812 L 214.535156 199.382812 L 214.535156 201.453125 Z M 214.535156 212.320312 L 212.230469 212.320312 L 212.230469 203.339844 L 214.535156 203.339844 Z M 214.535156 212.320312 " fill-opacity="1" fill-rule="nonzero"/><path fill="#ffffff" d="M 219.472656 211.257812 C 219.289062 211.675781 219.011719 211.996094 218.734375 212.179688 C 218.457031 212.363281 218.089844 212.457031 217.671875 212.457031 C 217.027344 212.457031 216.613281 212.226562 216.335938 211.8125 C 216.058594 211.398438 215.921875 210.617188 215.921875 209.554688 L 215.921875 206.105469 C 215.921875 205.042969 216.058594 204.261719 216.335938 203.847656 C 216.613281 203.433594 217.074219 203.203125 217.71875 203.203125 C 218.179688 203.203125 218.550781 203.296875 218.828125 203.527344 C 219.148438 203.710938 219.378906 204.03125 219.566406 204.445312 L 219.566406 203.339844 L 221.777344 203.339844 L 221.777344 215.632812 L 219.472656 215.632812 Z M 219.472656 209.601562 L 219.472656 206.058594 C 219.472656 205.6875 219.425781 205.460938 219.335938 205.320312 C 219.242188 205.183594 219.105469 205.136719 218.871094 205.136719 C 218.640625 205.136719 218.503906 205.183594 218.410156 205.320312 C 218.320312 205.460938 218.273438 205.6875 218.273438 206.058594 L 218.273438 209.601562 C 218.273438 209.972656 218.320312 210.199219 218.367188 210.339844 C 218.457031 210.429688 218.597656 210.523438 218.828125 210.523438 C 219.058594 210.523438 219.195312 210.476562 219.289062 210.339844 C 219.425781 210.199219 219.472656 209.972656 219.472656 209.601562 Z M 219.472656 209.601562 " fill-opacity="1" fill-rule="nonzero"/><path fill="#ffffff" d="M 229.023438 203.339844 L 229.023438 212.320312 L 226.855469 212.320312 L 226.855469 211.167969 C 226.621094 211.628906 226.347656 211.949219 226.070312 212.179688 C 225.746094 212.363281 225.378906 212.503906 224.917969 212.503906 C 224.269531 212.503906 223.855469 212.320312 223.625 211.949219 C 223.394531 211.582031 223.253906 210.84375 223.253906 209.785156 L 223.253906 203.386719 L 225.5625 203.386719 L 225.5625 209.648438 C 225.5625 209.972656 225.609375 210.199219 225.699219 210.292969 C 225.792969 210.386719 225.929688 210.476562 226.160156 210.476562 C 226.390625 210.476562 226.53125 210.429688 226.621094 210.292969 C 226.714844 210.15625 226.761719 209.972656 226.761719 209.648438 L 226.761719 203.386719 L 229.023438 203.386719 Z M 229.023438 203.339844 " fill-opacity="1" fill-rule="nonzero"/><path fill="#ffffff" d="M 230.265625 206.75 C 230.265625 205.367188 230.496094 204.445312 230.914062 203.941406 C 231.328125 203.433594 232.113281 203.203125 233.3125 203.203125 C 234.511719 203.203125 235.296875 203.433594 235.710938 203.941406 C 236.125 204.445312 236.355469 205.367188 236.355469 206.75 L 236.355469 208.496094 L 232.667969 208.496094 L 232.667969 209.648438 C 232.667969 210.015625 232.710938 210.246094 232.804688 210.386719 C 232.898438 210.523438 233.082031 210.570312 233.359375 210.570312 C 233.632812 210.570312 233.820312 210.523438 233.910156 210.386719 C 234.003906 210.246094 234.050781 210.015625 234.050781 209.695312 L 234.050781 209.511719 L 236.308594 209.511719 L 236.308594 210.109375 C 236.308594 211.03125 236.078125 211.71875 235.664062 212.042969 C 235.25 212.410156 234.371094 212.546875 233.082031 212.546875 C 232.019531 212.546875 231.28125 212.320312 230.867188 211.8125 C 230.453125 211.304688 230.265625 210.386719 230.265625 209.050781 Z M 232.621094 205.828125 L 232.621094 206.703125 L 234.097656 206.703125 L 234.097656 205.828125 C 234.097656 205.460938 234.050781 205.183594 233.957031 205.089844 C 233.867188 204.953125 233.679688 204.90625 233.359375 204.90625 C 233.082031 204.90625 232.851562 204.953125 232.757812 205.089844 C 232.664062 205.230469 232.621094 205.503906 232.621094 205.828125 Z M 232.621094 205.828125 " fill-opacity="1" fill-rule="nonzero"/><path fill="#ffffff" d="M 245.445312 203.894531 L 245.445312 202.605469 C 245.445312 202.238281 245.398438 202.007812 245.304688 201.867188 C 245.214844 201.730469 245.027344 201.683594 244.796875 201.683594 C 244.523438 201.683594 244.382812 201.730469 244.289062 201.867188 C 244.199219 202.007812 244.152344 202.238281 244.152344 202.605469 L 244.152344 209.328125 C 244.152344 209.695312 244.199219 209.925781 244.289062 210.0625 C 244.382812 210.199219 244.566406 210.246094 244.796875 210.246094 C 245.074219 210.246094 245.257812 210.199219 245.304688 210.0625 C 245.398438 209.925781 245.445312 209.695312 245.445312 209.328125 L 245.445312 207.578125 L 247.84375 207.578125 L 247.84375 208.910156 C 247.84375 209.785156 247.796875 210.386719 247.703125 210.753906 C 247.613281 211.121094 247.472656 211.445312 247.289062 211.71875 C 247.105469 211.996094 246.828125 212.179688 246.503906 212.320312 C 246.183594 212.410156 245.628906 212.503906 244.796875 212.503906 C 243.828125 212.503906 243.183594 212.457031 242.816406 212.320312 C 242.492188 212.226562 242.167969 211.996094 241.9375 211.71875 C 241.707031 211.445312 241.570312 211.121094 241.476562 210.753906 C 241.382812 210.386719 241.339844 209.742188 241.339844 208.910156 L 241.339844 203.019531 C 241.339844 202.191406 241.382812 201.546875 241.476562 201.179688 C 241.570312 200.808594 241.707031 200.488281 241.9375 200.210938 C 242.167969 199.933594 242.492188 199.703125 242.859375 199.613281 C 243.230469 199.519531 243.875 199.429688 244.753906 199.429688 C 245.492188 199.429688 246.042969 199.472656 246.414062 199.613281 C 246.734375 199.703125 247.011719 199.933594 247.242188 200.210938 C 247.429688 200.488281 247.566406 200.808594 247.660156 201.179688 C 247.75 201.59375 247.796875 202.191406 247.796875 203.019531 L 247.796875 203.894531 Z M 245.445312 203.894531 " fill-opacity="1" fill-rule="nonzero"/><path fill="#ffffff" d="M 249.179688 212.320312 L 249.179688 199.613281 L 254.164062 199.613281 L 254.164062 201.914062 L 251.855469 201.914062 L 251.855469 205.089844 L 253.976562 205.089844 L 253.976562 207.394531 L 251.855469 207.394531 L 251.855469 212.410156 L 249.179688 212.410156 Z M 249.179688 212.320312 " fill-opacity="1" fill-rule="nonzero"/><path fill="#ffffff" d="M 254.53125 212.320312 L 256.191406 199.613281 L 260.390625 199.613281 L 262.097656 212.320312 L 259.421875 212.320312 L 259.097656 209.1875 L 257.484375 209.1875 L 257.160156 212.320312 Z M 257.714844 207.070312 L 258.914062 207.070312 L 258.316406 201.085938 Z M 257.714844 207.070312 " fill-opacity="1" fill-rule="nonzero"/><path fill="#ffffff" d="M 265.695312 213.976562 L 269.386719 199.472656 L 270.863281 199.472656 L 267.171875 213.976562 Z M 265.695312 213.976562 " fill-opacity="1" fill-rule="nonzero"/><path fill="#ffffff" d="M 279.121094 203.894531 L 279.121094 202.605469 C 279.121094 202.238281 279.074219 202.007812 278.980469 201.867188 C 278.890625 201.730469 278.703125 201.683594 278.472656 201.683594 C 278.195312 201.683594 278.058594 201.730469 277.964844 201.867188 C 277.875 202.007812 277.828125 202.238281 277.828125 202.605469 L 277.828125 209.328125 C 277.828125 209.695312 277.875 209.925781 277.964844 210.0625 C 278.058594 210.199219 278.242188 210.246094 278.472656 210.246094 C 278.75 210.246094 278.933594 210.199219 278.980469 210.0625 C 279.074219 209.925781 279.121094 209.695312 279.121094 209.328125 L 279.121094 207.578125 L 281.519531 207.578125 L 281.519531 208.910156 C 281.519531 209.785156 281.472656 210.386719 281.378906 210.753906 C 281.289062 211.121094 281.148438 211.445312 280.964844 211.71875 C 280.78125 211.996094 280.503906 212.179688 280.179688 212.320312 C 279.859375 212.410156 279.304688 212.503906 278.472656 212.503906 C 277.503906 212.503906 276.859375 212.457031 276.488281 212.320312 C 276.167969 212.226562 275.84375 211.996094 275.613281 211.71875 C 275.382812 211.445312 275.246094 211.121094 275.152344 210.753906 C 275.058594 210.386719 275.015625 209.742188 275.015625 208.910156 L 275.015625 203.019531 C 275.015625 202.191406 275.058594 201.546875 275.152344 201.179688 C 275.246094 200.808594 275.382812 200.488281 275.613281 200.210938 C 275.84375 199.933594 276.167969 199.703125 276.535156 199.613281 C 276.90625 199.519531 277.550781 199.429688 278.425781 199.429688 C 279.164062 199.429688 279.71875 199.472656 280.089844 199.613281 C 280.410156 199.703125 280.6875 199.933594 280.917969 200.210938 C 281.101562 200.488281 281.242188 200.808594 281.332031 201.179688 C 281.425781 201.59375 281.472656 202.191406 281.472656 203.019531 L 281.472656 203.894531 Z M 279.121094 203.894531 " fill-opacity="1" fill-rule="nonzero"/><path fill="#ffffff" d="M 282.902344 212.320312 L 282.902344 199.613281 L 287.882812 199.613281 L 287.882812 201.914062 L 285.578125 201.914062 L 285.578125 205.089844 L 287.699219 205.089844 L 287.699219 207.394531 L 285.578125 207.394531 L 285.578125 212.410156 L 282.902344 212.410156 Z M 282.902344 212.320312 " fill-opacity="1" fill-rule="nonzero"/><path fill="#ffffff" d="M 295.773438 208.910156 C 295.773438 209.785156 295.726562 210.429688 295.632812 210.800781 C 295.542969 211.167969 295.402344 211.488281 295.171875 211.765625 C 294.941406 212.042969 294.664062 212.226562 294.296875 212.363281 C 293.972656 212.457031 293.28125 212.546875 292.359375 212.546875 C 291.390625 212.546875 290.746094 212.503906 290.375 212.363281 C 290.050781 212.273438 289.730469 212.042969 289.5 211.765625 C 289.269531 211.488281 289.128906 211.167969 289.039062 210.800781 C 288.945312 210.429688 288.898438 209.785156 288.898438 208.957031 L 288.898438 203.066406 C 288.898438 202.238281 288.945312 201.59375 289.039062 201.222656 C 289.128906 200.855469 289.269531 200.535156 289.5 200.257812 C 289.730469 199.980469 290.050781 199.75 290.421875 199.660156 C 290.789062 199.566406 291.4375 199.472656 292.3125 199.472656 C 293.1875 199.472656 293.835938 199.519531 294.203125 199.660156 C 294.574219 199.75 294.894531 199.980469 295.125 200.257812 C 295.359375 200.535156 295.496094 200.855469 295.589844 201.222656 C 295.679688 201.59375 295.726562 202.238281 295.726562 203.066406 L 295.726562 208.910156 Z M 293.097656 209.328125 L 293.097656 202.605469 C 293.097656 202.238281 293.050781 202.007812 292.957031 201.914062 C 292.867188 201.777344 292.683594 201.730469 292.40625 201.730469 C 292.128906 201.730469 291.945312 201.777344 291.851562 201.914062 C 291.757812 202.050781 291.714844 202.28125 291.714844 202.605469 L 291.714844 209.328125 C 291.714844 209.695312 291.757812 209.925781 291.851562 210.0625 C 291.945312 210.199219 292.128906 210.246094 292.40625 210.246094 C 292.683594 210.246094 292.867188 210.199219 292.957031 210.0625 C 293.050781 209.925781 293.097656 209.695312 293.097656 209.328125 Z M 293.097656 209.328125 " fill-opacity="1" fill-rule="nonzero"/><path fill="#ffffff" d="M 111.433594 232.804688 L 111.433594 222.355469 L 109.636719 222.355469 L 109.636719 220.050781 L 115.816406 220.050781 L 115.816406 222.355469 L 114.0625 222.355469 L 114.0625 232.804688 Z M 111.433594 232.804688 " fill-opacity="1" fill-rule="nonzero"/><path fill="#ffffff" d="M 115.957031 232.804688 L 115.957031 223.828125 L 118.125 223.828125 L 118.125 224.792969 C 118.308594 224.378906 118.539062 224.105469 118.816406 223.917969 C 119.09375 223.734375 119.414062 223.644531 119.785156 223.644531 C 120.246094 223.644531 120.613281 223.78125 120.800781 224.058594 C 120.984375 224.335938 121.121094 224.792969 121.121094 225.484375 L 121.121094 227.464844 L 119.183594 227.464844 L 119.183594 226.542969 C 119.183594 226.222656 119.136719 225.992188 119.09375 225.898438 C 119.046875 225.808594 118.90625 225.714844 118.722656 225.714844 C 118.539062 225.714844 118.402344 225.761719 118.355469 225.898438 C 118.308594 225.992188 118.261719 226.222656 118.261719 226.542969 L 118.261719 232.804688 Z M 115.957031 232.804688 " fill-opacity="1" fill-rule="nonzero"/><path fill="#ffffff" d="M 125.367188 232.804688 L 125.367188 232.066406 C 125.183594 232.390625 124.996094 232.621094 124.71875 232.757812 C 124.445312 232.898438 124.121094 232.941406 123.660156 232.941406 C 122.96875 232.941406 122.507812 232.757812 122.277344 232.390625 C 122 232.023438 121.859375 231.421875 121.859375 230.503906 L 121.859375 229.398438 C 121.859375 228.660156 122 228.109375 122.320312 227.742188 C 122.644531 227.371094 123.105469 227.1875 123.75 227.1875 C 124.027344 227.1875 124.304688 227.234375 124.582031 227.328125 C 124.859375 227.417969 125.089844 227.554688 125.273438 227.695312 L 125.273438 226.40625 C 125.273438 226.039062 125.226562 225.808594 125.179688 225.667969 C 125.089844 225.53125 124.949219 225.484375 124.71875 225.484375 C 124.488281 225.484375 124.351562 225.53125 124.304688 225.667969 C 124.210938 225.808594 124.210938 226.039062 124.210938 226.40625 L 122.183594 226.40625 L 122.183594 225.761719 C 122.183594 224.933594 122.367188 224.378906 122.738281 224.105469 C 123.105469 223.828125 123.84375 223.644531 124.949219 223.644531 C 126.058594 223.644531 126.796875 223.78125 127.164062 224.105469 C 127.535156 224.378906 127.71875 224.980469 127.71875 225.761719 L 127.71875 232.757812 Z M 125.226562 230.410156 L 125.226562 229.445312 C 125.226562 229.261719 125.183594 229.074219 125.089844 228.984375 C 124.996094 228.890625 124.859375 228.800781 124.675781 228.800781 C 124.488281 228.800781 124.351562 228.84375 124.257812 228.984375 C 124.167969 229.074219 124.121094 229.261719 124.121094 229.445312 L 124.121094 230.410156 C 124.121094 230.59375 124.167969 230.777344 124.257812 230.871094 C 124.351562 230.964844 124.488281 231.007812 124.675781 231.007812 C 124.859375 231.007812 124.996094 230.964844 125.089844 230.871094 C 125.183594 230.734375 125.226562 230.59375 125.226562 230.410156 Z M 125.226562 230.410156 " fill-opacity="1" fill-rule="nonzero"/><path fill="#ffffff" d="M 129.703125 232.804688 L 128.503906 223.828125 L 130.761719 223.828125 L 131.5 231.378906 L 132.425781 223.828125 L 134.59375 223.828125 L 133.300781 232.804688 Z M 129.703125 232.804688 " fill-opacity="1" fill-rule="nonzero"/><path fill="#ffffff" d="M 138.882812 232.804688 L 138.882812 232.066406 C 138.699219 232.390625 138.511719 232.621094 138.238281 232.757812 C 137.960938 232.898438 137.636719 232.941406 137.175781 232.941406 C 136.484375 232.941406 136.023438 232.757812 135.792969 232.390625 C 135.515625 232.023438 135.375 231.421875 135.375 230.503906 L 135.375 229.398438 C 135.375 228.660156 135.515625 228.109375 135.835938 227.742188 C 136.160156 227.371094 136.621094 227.1875 137.269531 227.1875 C 137.542969 227.1875 137.820312 227.234375 138.097656 227.328125 C 138.375 227.417969 138.605469 227.554688 138.789062 227.695312 L 138.789062 226.40625 C 138.789062 226.039062 138.742188 225.808594 138.699219 225.667969 C 138.605469 225.53125 138.46875 225.484375 138.238281 225.484375 C 138.007812 225.484375 137.867188 225.53125 137.820312 225.667969 C 137.730469 225.808594 137.730469 226.039062 137.730469 226.40625 L 135.699219 226.40625 L 135.699219 225.761719 C 135.699219 224.933594 135.882812 224.378906 136.253906 224.105469 C 136.621094 223.828125 137.359375 223.644531 138.46875 223.644531 C 139.574219 223.644531 140.3125 223.78125 140.679688 224.105469 C 141.050781 224.378906 141.234375 224.980469 141.234375 225.761719 L 141.234375 232.757812 Z M 138.742188 230.410156 L 138.742188 229.445312 C 138.742188 229.261719 138.699219 229.074219 138.605469 228.984375 C 138.511719 228.890625 138.375 228.800781 138.191406 228.800781 C 138.007812 228.800781 137.867188 228.84375 137.773438 228.984375 C 137.683594 229.074219 137.636719 229.261719 137.636719 229.445312 L 137.636719 230.410156 C 137.636719 230.59375 137.683594 230.777344 137.773438 230.871094 C 137.867188 230.964844 138.007812 231.007812 138.191406 231.007812 C 138.375 231.007812 138.511719 230.964844 138.605469 230.871094 C 138.699219 230.734375 138.742188 230.59375 138.742188 230.410156 Z M 138.742188 230.410156 " fill-opacity="1" fill-rule="nonzero"/><path fill="#ffffff" d="M 148.292969 223.78125 L 148.292969 232.757812 L 146.125 232.757812 L 146.125 231.609375 C 145.894531 232.066406 145.617188 232.390625 145.339844 232.621094 C 145.019531 232.804688 144.648438 232.941406 144.1875 232.941406 C 143.542969 232.941406 143.125 232.757812 142.894531 232.390625 C 142.664062 232.023438 142.527344 231.285156 142.527344 230.226562 L 142.527344 223.828125 L 144.832031 223.828125 L 144.832031 230.089844 C 144.832031 230.410156 144.878906 230.640625 144.972656 230.734375 C 145.0625 230.824219 145.203125 230.917969 145.433594 230.917969 C 145.664062 230.917969 145.800781 230.871094 145.894531 230.734375 C 145.988281 230.59375 146.03125 230.410156 146.03125 230.089844 L 146.03125 223.828125 L 148.292969 223.828125 Z M 148.292969 223.78125 " fill-opacity="1" fill-rule="nonzero"/><path fill="#ffffff" d="M 149.078125 232.804688 L 150.277344 227.925781 L 149.308594 223.828125 L 151.613281 223.828125 L 152.214844 227.554688 L 152.8125 223.828125 L 154.980469 223.828125 L 154.011719 227.925781 L 155.210938 232.804688 L 152.859375 232.804688 L 152.167969 228.753906 L 151.429688 232.804688 Z M 149.078125 232.804688 " fill-opacity="1" fill-rule="nonzero"/><path fill="#ffffff" d="M 160.101562 232.804688 L 160.101562 220.097656 L 163.425781 220.097656 C 164.761719 220.097656 165.683594 220.375 166.144531 220.882812 C 166.605469 221.433594 166.835938 222.445312 166.835938 224.011719 L 166.835938 228.84375 C 166.835938 230.410156 166.605469 231.46875 166.144531 231.976562 C 165.683594 232.527344 164.761719 232.757812 163.425781 232.757812 L 160.101562 232.757812 Z M 164.160156 229.675781 L 164.160156 223.230469 C 164.160156 222.859375 164.117188 222.628906 164.023438 222.539062 C 163.929688 222.445312 163.746094 222.355469 163.46875 222.355469 L 162.777344 222.355469 L 162.777344 230.550781 L 163.46875 230.550781 C 163.746094 230.550781 163.929688 230.503906 164.023438 230.363281 C 164.117188 230.226562 164.160156 229.996094 164.160156 229.675781 Z M 164.160156 229.675781 " fill-opacity="1" fill-rule="nonzero"/><path fill="#ffffff" d="M 168.269531 221.894531 L 168.269531 219.824219 L 170.574219 219.824219 L 170.574219 221.894531 Z M 170.574219 232.804688 L 168.269531 232.804688 L 168.269531 223.828125 L 170.574219 223.828125 Z M 170.574219 232.804688 " fill-opacity="1" fill-rule="nonzero"/><path fill="#ffffff" d="M 172.695312 232.804688 L 171.496094 223.828125 L 173.757812 223.828125 L 174.496094 231.378906 L 175.417969 223.828125 L 177.585938 223.828125 L 176.292969 232.804688 Z M 172.695312 232.804688 " fill-opacity="1" fill-rule="nonzero"/><path fill="#ffffff" d="M 178.371094 227.1875 C 178.371094 225.808594 178.601562 224.886719 179.015625 224.378906 C 179.429688 223.875 180.214844 223.644531 181.414062 223.644531 C 182.613281 223.644531 183.398438 223.875 183.8125 224.378906 C 184.230469 224.886719 184.460938 225.808594 184.460938 227.1875 L 184.460938 228.9375 L 180.769531 228.9375 L 180.769531 230.089844 C 180.769531 230.457031 180.816406 230.6875 180.90625 230.824219 C 181 230.917969 181.183594 231.007812 181.460938 231.007812 C 181.738281 231.007812 181.921875 230.964844 182.015625 230.824219 C 182.105469 230.6875 182.152344 230.457031 182.152344 230.132812 L 182.152344 229.949219 L 184.414062 229.949219 L 184.414062 230.550781 C 184.414062 231.46875 184.183594 232.160156 183.769531 232.484375 C 183.351562 232.851562 182.476562 232.988281 181.183594 232.988281 C 180.125 232.988281 179.386719 232.757812 178.96875 232.253906 C 178.554688 231.746094 178.371094 230.824219 178.371094 229.488281 Z M 180.769531 226.3125 L 180.769531 227.1875 L 182.246094 227.1875 L 182.246094 226.3125 C 182.246094 225.945312 182.199219 225.667969 182.105469 225.578125 C 182.015625 225.4375 181.832031 225.394531 181.507812 225.394531 C 181.230469 225.394531 181 225.4375 180.90625 225.578125 C 180.816406 225.714844 180.769531 225.945312 180.769531 226.3125 Z M 180.769531 226.3125 " fill-opacity="1" fill-rule="nonzero"/><path fill="#ffffff" d="M 185.703125 232.804688 L 185.703125 223.828125 L 187.875 223.828125 L 187.875 224.792969 C 188.058594 224.378906 188.289062 224.105469 188.566406 223.917969 C 188.84375 223.734375 189.164062 223.644531 189.535156 223.644531 C 189.996094 223.644531 190.363281 223.78125 190.546875 224.058594 C 190.734375 224.335938 190.871094 224.792969 190.871094 225.484375 L 190.871094 227.464844 L 188.933594 227.464844 L 188.933594 226.542969 C 188.933594 226.222656 188.886719 225.992188 188.84375 225.898438 C 188.796875 225.808594 188.65625 225.714844 188.472656 225.714844 C 188.289062 225.714844 188.148438 225.761719 188.105469 225.898438 C 188.058594 225.992188 188.011719 226.222656 188.011719 226.542969 L 188.011719 232.804688 Z M 185.703125 232.804688 " fill-opacity="1" fill-rule="nonzero"/><path fill="#ffffff" d="M 191.5625 229.996094 L 193.640625 229.996094 C 193.640625 230.457031 193.6875 230.777344 193.777344 230.917969 C 193.871094 231.054688 194.054688 231.148438 194.285156 231.148438 C 194.515625 231.148438 194.65625 231.101562 194.746094 231.007812 C 194.839844 230.917969 194.886719 230.734375 194.886719 230.503906 L 194.886719 229.949219 C 194.886719 229.535156 194.515625 229.261719 193.730469 229.121094 C 193.453125 229.074219 193.222656 229.03125 193.039062 228.984375 C 192.441406 228.84375 192.070312 228.617188 191.886719 228.386719 C 191.703125 228.15625 191.609375 227.742188 191.609375 227.234375 L 191.609375 226.175781 C 191.609375 225.300781 191.792969 224.65625 192.117188 224.242188 C 192.484375 223.875 193.039062 223.644531 193.824219 223.644531 L 194.886719 223.644531 C 195.625 223.644531 196.175781 223.78125 196.453125 224.105469 C 196.777344 224.425781 196.914062 224.980469 196.914062 225.808594 L 196.914062 226.453125 L 194.886719 226.453125 L 194.886719 225.945312 C 194.886719 225.714844 194.839844 225.578125 194.746094 225.484375 C 194.65625 225.394531 194.515625 225.347656 194.285156 225.347656 C 194.101562 225.347656 193.917969 225.394531 193.824219 225.484375 C 193.730469 225.578125 193.640625 225.714844 193.640625 225.898438 L 193.640625 226.40625 C 193.640625 226.726562 193.917969 226.957031 194.515625 227.097656 C 194.839844 227.1875 195.117188 227.234375 195.347656 227.28125 C 195.992188 227.417969 196.40625 227.601562 196.683594 227.878906 C 196.914062 228.15625 197.054688 228.617188 197.054688 229.261719 L 197.054688 230.320312 C 197.054688 231.285156 196.867188 231.976562 196.5 232.34375 C 196.128906 232.710938 195.4375 232.898438 194.421875 232.898438 L 193.824219 232.898438 C 192.949219 232.898438 192.347656 232.710938 192.023438 232.390625 C 191.703125 232.066406 191.515625 231.46875 191.515625 230.59375 Z M 191.5625 229.996094 " fill-opacity="1" fill-rule="nonzero"/></svg>